<?xml version="1.0" encoding="utf-8"?>
<!-- Generator: $$$/GeneralStr/196=Adobe Illustrator 27.6.0, SVG Export Plug-In . SVG Version: 6.00 Build 0)  -->
<svg version="1.1" id="Ebene_1" xmlns="http://www.w3.org/2000/svg" xmlns:xlink="http://www.w3.org/1999/xlink" x="0px" y="0px"
	 viewBox="0 0 3745.3046875 964.2299194" style="enable-background:new 0 0 3745.3046875 964.2299194;" xml:space="preserve">
<style type="text/css">
	.st0{fill:#002B49;}
	.st1{fill:#E94222;}
	.st2{fill:#FFFFFF;stroke:#FFFFFF;stroke-width:20;stroke-miterlimit:10;}
	.st3{stroke:#000000;stroke-width:18;stroke-miterlimit:10;}
	.st4{fill:#FFFFFF;}
</style>
<g id="Ebene_3">
</g>
<g id="Ebene_6">
	<g>
		<g>
			<path class="st0" d="M218.432373,414.545929c4.8173523-37.016571,19.2977448-70.9251404,34.4192352-104.3942261
				c2.0332336-2.7983704,4.3498077-5.4350891,6.0540009-8.4212341
				c11.6139526-20.3500977,25.2610779-39.1939392,40.8297119-56.7139587
				c21.5637512-24.2665558,45.8175354-45.3365784,73.2629395-62.6878052
				c6.0733643-3.8396454,12.5592651-7.0552826,18.4665527-11.1226501
				c9.6035156-6.6123199,20.5282898-10.4029236,31.0282898-15.0262604
				c10.6223755-4.6772308,21.4803772-9.0767517,32.6159058-12.2701874
				c16.2101746-4.6487122,32.7332764-8.2307281,49.1845703-11.9985504c4.7610168-1.0904083,9.7930908-0.9560699,14.597229-1.9067383
				c15.1200562-2.9919586,30.4321899-3.0074387,45.6599121-2.3476562
				c15.5991821,0.6758728,31.1674805,2.4448242,46.7006836,4.1719208
				c23.6834717,2.6332855,46.5445557,8.9523773,68.803894,17.1960754
				c13.1148071,4.8570404,25.7681274,10.9720001,38.579834,16.6325378
				c15.5625,6.875885,29.3948975,16.7005768,43.3339844,26.2314301
				c8.6276245,5.8991241,16.6552734,12.7306976,24.6103516,19.5428314
				c7.7383423,6.6264954,15.4613647,13.3663483,22.4302979,20.7722626
				c9.0532227,9.6207428,17.793457,19.6104279,25.8577271,30.0666351
				c8.2809448,10.7372437,15.8731689,22.0414124,23.2454224,33.434845
				c9.6697998,14.9442444,17.6503296,30.8010864,23.8972168,47.5113831
				c3.8291626,10.2432251,8.3720703,20.2473145,11.6803589,30.6494751
				c3.0292358,9.5247498,5.0548706,19.3929749,7.109314,29.1964417c1.9945679,9.5186462,3.6206055,19.1230469,5.1054077,28.7366028
				c0.9232788,5.9787292,1.5296631,12.0317993,1.8396606,18.0739746c0.4853516,9.462616,1.0595703,18.9590759,0.7547607,28.4140625
				c-0.380249,11.7950439-1.4973145,23.5726929-2.5224609,35.3381653
				c-0.6322632,7.2559814-1.6734009,14.4768677-2.581543,21.7071533c-0.0588379,0.4686279-0.5522461,0.8828125-0.8434448,1.3223877
				c-0.2675171-0.6039429-0.7636108-1.2063599-0.7680054-1.8121948c-0.0551147-7.7122803,0.4627686-15.4661255-0.1644897-23.1275635
				c-0.8543091-10.4325256-1.7175903-20.9946899-4.1026001-31.1426697
				c-4.1752319-17.765686-10.9941406-34.5952148-20.5651855-50.3065796
				c-10.6623535-17.5027161-24.1221924-32.5301208-39.8708496-45.3896179
				c-13.1951904-10.7745361-28.0171509-19.1208496-43.90448-25.4310303
				c-19.489563-7.7409363-39.795105-11.8336182-60.6804199-12.6962891
				c-15.1696167-0.6266174-30.1462402,1.5237732-44.9064941,5.0283813
				c-31.8411255,7.5603027-59.2868042,23.1816406-82.2860107,46.2607117
				c-21.3806763,21.4549866-36.0983887,46.968689-44.2075806,76.2933044
				c-4.475647,16.1850281-10.6073608,31.8094482-19.5533447,46.0870972
				c-4.9697266,7.9317017-10.2927856,15.7962646-16.505188,22.7549438
				c-7.3144531,8.1930542-15.3440857,15.8861694-23.8456116,22.8399048
				c-7.7090454,6.3056641-16.1534424,11.8846436-24.835144,16.7904053
				c-14.7881775,8.3563232-30.3954773,14.9857788-47.3256836,17.7305298
				c-11.0790405,1.7960815-22.1919556,4.0370483-33.3528442,4.477478
				c-9.7993164,0.3866577-19.7101135-1.2478027-29.5293274-2.3625488
				c-13.8662109-1.5740356-27.3626404-5.2459717-39.9988403-10.8757324
				c-11.5615845-5.151062-22.6847839-11.5861206-33.2649536-18.5706177
				c-16.7619934-11.0654297-30.7080688-25.2728271-42.2167969-41.7950439
				c-11.3575897-16.3052368-20.2715454-33.7443848-25.6830902-52.9847107
				c-3.6764069-13.0712891-6.3808899-26.2101135-6.4250641-39.8270264
				C218.5341797,430.5792542,218.476059,422.5626526,218.432373,414.545929z"/>
			<path class="st1" d="M218.432373,414.545929c0.0436859,8.0167236,0.1018066,16.0333252,0.1278076,24.0500488
				c0.0441742,13.6169128,2.7486572,26.7557373,6.4250641,39.8270264
				c5.4115448,19.2403259,14.3255005,36.6794739,25.6830902,52.9847107
				c11.508728,16.5222168,25.4548035,30.7296143,42.2167969,41.7950439
				c10.5801697,6.9844971,21.7033691,13.4195557,33.2649536,18.5706177
				c12.6362,5.6297607,26.1326294,9.3016968,39.9988403,10.8757324c9.8192139,1.1147461,19.730011,2.7492065,29.5293274,2.3625488
				c11.1608887-0.4404297,22.2738037-2.6813965,33.3528442-4.477478
				c16.9302063-2.744751,32.5375061-9.3742065,47.3256836-17.7305298
				c8.6817017-4.9057617,17.1260986-10.4847412,24.835144-16.7904053
				c8.5015259-6.9537354,16.5311584-14.6468506,23.8456116-22.8399048
				c6.2124023-6.9586792,11.5354614-14.8232422,16.505188-22.7549438
				c8.9459839-14.2776489,15.0776978-29.9020691,19.5533447-46.0870972
				c8.1091919-29.3246155,22.8269043-54.8383179,44.2075806-76.2933044
				c22.9992065-23.079071,50.4448853-38.7004089,82.2860107-46.2607117
				c14.7602539-3.5046082,29.7368774-5.6549988,44.9064941-5.0283813
				c20.8853149,0.8626709,41.1908569,4.9553528,60.6804199,12.6962891
				c15.8873291,6.3101807,30.7092896,14.6564941,43.90448,25.4310303
				c15.7486572,12.8594971,29.2084961,27.8869019,39.8708496,45.3896179
				c9.5710449,15.7113647,16.3899536,32.5408936,20.5651855,50.3065796
				c2.3850098,10.1479797,3.248291,20.710144,4.1026001,31.1426697c0.6272583,7.661438,0.109375,15.4152832,0.1644897,23.1275635
				c0.0043945,0.605835,0.5004883,1.208252,0.7680054,1.8121948c-1.4428711,7.3483887-2.7602539,14.723999-4.3510132,22.0402222
				c-5.9219971,27.2354736-16.1781616,52.8825073-28.7855225,77.6401978
				c-9.21521,18.0962524-20.5496826,34.8185425-32.8249512,50.9743042
				c-10.6433105,14.0079956-22.2982178,27.0777588-34.9616699,39.234375
				c-13.4448242,12.9066162-27.7455444,24.8443604-43.3110352,35.1237793
				c-9.6164551,6.350708-19.6519775,12.06604-29.4911499,18.0800781
				c-16.0911255,9.8356323-33.3955688,17.1221924-51.1641235,23.1096191
				c-15.859314,5.3438721-32.0359497,9.8202515-48.2407837,14.0326538
				c-8.0776978,2.0998535-16.4916992,3.1780396-24.824707,3.9614258
				c-13.0909424,1.2305298-26.2445068,1.7849121-39.3669434,2.6920166
				c-15.7147217,1.0863037-31.2816162-0.4058228-46.8168945-2.5420532
				c-8.5067749-1.1696777-17.0659485-2.0592041-25.5011292-3.617981
				c-6.9702759-1.2880859-13.7899475-3.3864136-20.6836853-5.0960693c-1.6373901-0.4061279-3.3648071-0.5179443-4.947876-1.0636597
				c-12.3360291-4.2525635-24.7577515-8.2874756-36.9430542-12.9396362
				c-28.0780029-10.7197876-53.7507935-25.8825684-77.9321289-43.5721436
				c-18.4272461-13.4803467-34.9854736-29.1307983-50.3681335-45.9475098
				c-7.256134-7.9324951-13.7348328-16.5978394-20.3059387-25.1311035
				c-16.5017395-21.4296265-29.768219-44.7920532-40.3332825-69.6408691
				c-4.6627655-10.9668579-9.1022186-22.1204224-12.4246979-33.5436401
				c-4.887146-16.8027344-9.1065979-33.8321533-12.7685394-50.9451904
				c-1.8760529-8.7672729-2.3604279-17.9090881-2.7023621-26.9109497
				c-0.6095276-16.0465393-1.1743927-32.1308289-0.7136078-48.169342
				c0.3104401-10.806488,2.3527679-21.5696411,3.7624969-32.3335266
				C216.8858185,419.5368958,217.7901917,417.0585938,218.432373,414.545929z"/>
		</g>
	</g>
	<path class="st2" d="M387.6786499,616.7505493c-7.2944946,0-14.5010376-0.8933716-21.5011902-1.7615967
		c-1.9733887-0.2445679-3.9449768-0.4890747-5.9125061-0.7125244c-14.6374817-1.6615601-28.8325195-5.5217285-42.1903076-11.4732666
		c-11.02005-4.909668-22.2702637-11.1869507-34.393219-19.1899414
		c-16.8953247-11.1533203-31.7822571-25.8828125-44.2484741-43.7791748
		c-12.6640778-18.1808472-21.4199982-36.2616272-26.7675934-55.2752686
		c-4.5991669-16.3514709-6.6681213-29.2533875-6.7089539-41.8340149c-0.0260162-8.0474243-0.1844177-46.5480347-0.2283783-54.595459
		l13.7840271-0.0753784c0.0439758,8.0519104,0.2023773,46.5740662,0.2283936,54.6259766
		c0.0367889,11.2816467,1.9468994,23.0465393,6.1938477,38.1466064c4.924469,17.5073547,13.0396423,34.23172,24.8094788,51.129303
		c11.4633484,16.4569092,25.1002197,29.9667969,40.5314331,40.1536255
		c11.4857788,7.5825806,22.0867615,13.5040894,32.4090881,18.1032104
		c12.0690918,5.3772583,24.8996582,8.8654175,38.135376,10.3676758c2.0151062,0.2288208,4.0333557,0.4787598,6.0538635,0.7295532
		c7.8459473,0.9727783,15.2611389,1.8921509,22.5475769,1.604126c8.575531-0.3383179,17.0828857-1.7835693,26.0895996-3.3136597
		c2.1910095-0.3719482,4.3806763-0.7439575,6.5689697-1.098877c14.2933044-2.3170776,29.0887146-7.8778076,45.2320251-17.0003052
		c8.9421082-5.0523682,17.0043335-10.5009155,23.9641113-16.1935425c8.2556152-6.7525024,16.04953-14.2179565,23.1658936-22.1885986
		c6.3634644-7.128479,11.8259277-15.4577026,15.8736572-21.9180908
		c7.8751221-12.5680542,14.0348511-27.1090698,18.8314819-44.4535522
		c8.4633179-30.6053162,23.9901123-57.3980408,46.1495972-79.6342163
		c24.1602173-24.2445679,53.0658569-40.4919739,85.9133301-48.2912598
		c17.3076782-4.1096191,32.6746826-5.8173828,46.9671021-5.2295837c22.12854,0.9140015,43.3883057,5.3646545,63.1889648,13.2294617
		c17.2112427,6.835907,32.6541138,15.7861328,45.8997192,26.6024475
		c16.8064575,13.7230225,30.7897339,29.6469116,41.5611572,47.3283691
		c9.862854,16.1899414,17.0874023,33.8606262,21.4729614,52.5215759c2.5095825,10.6794739,3.4078979,21.6456909,4.276123,32.2507324
		c0.4509277,5.5028076,0.3553467,10.9329834,0.2629395,16.1845703c-0.0426636,2.4212036-0.0870361,4.9222412-0.0736084,7.3442993
		c0.2755127,3.0413208,3.1436157,29.2156982,3.5330811,31.4829712c-0.0192871-0.1108398-0.1296997-0.6981812-0.4432983-1.4071045
		l-12.6057739,5.5755615c-0.5510254-1.2451782-0.6084595-1.3753052-2.4849243-18.3150024
		c-1.7741089-16.0172729-1.779541-16.75354-1.781311-16.9958496c-0.0188599-2.6688843,0.0282593-5.3422241,0.0736084-7.9276123
		c0.0906372-5.1407471,0.1763306-9.996582-0.2158203-14.7828369c-0.8301392-10.1343384-1.6853638-20.5787354-3.9597778-30.2562866
		c-4.0517578-17.2408142-10.722168-33.5599976-19.8262329-48.5039368
		c-9.9570923-16.3452148-22.9128418-31.089447-38.5073853-43.8226318
		c-12.1507568-9.9220886-26.3722534-18.1548157-42.2697144-24.4689331
		c-18.3553467-7.2904358-38.0945435-11.4180298-58.6696167-12.2674255
		c-13.0150146-0.5388794-27.1525879,1.0544434-43.2138062,4.8683777
		c-30.317688,7.1984863-57.0094604,22.207489-79.3340454,44.6096802
		c-20.4628906,20.5342712-34.8051147,45.2894592-42.6282349,73.5785828
		c-5.1573486,18.6497498-11.842041,34.3829346-20.4359741,48.0988159
		c-4.3366699,6.9207153-10.218689,15.8781128-17.2717896,23.7783203
		c-7.5933228,8.5059814-15.9108887,16.472229-24.7210999,23.6783447
		c-7.5673218,6.1897583-16.2846375,12.0861206-25.9101257,17.5252686
		c-17.5858765,9.9373169-33.8781433,16.0234985-49.8074036,18.6057739c-2.1542053,0.3490601-4.3097534,0.7156372-6.466217,1.0817871
		c-9.0417175,1.5358887-18.3908386,3.1238403-27.8543396,3.4976196
		C389.8678589,616.7303467,388.7721558,616.7505493,387.6786499,616.7505493z M905.7660522,539.2085571
		c0.0004272,0.0287476,0.0004272,0.0574341,0.0009155,0.0857544
		C905.7664795,539.2736206,905.7664795,539.2449341,905.7660522,539.2085571z"/>
</g>
<g id="Ebene_5">
</g>
<g id="Topf">
	<path d="M557.7402954,69.9999542c55.6658936,0,109.6296997,10.8864746,160.392334,32.3573608
		c49.065918,20.7532349,93.1464844,50.4779358,131.0170898,88.3482208
		c37.8703003,37.8706055,67.5949707,81.9512024,88.3482056,131.0170593
		c21.4708862,50.7626648,32.3573608,104.7264709,32.3573608,160.3923645s-10.8864746,109.6297302-32.3573608,160.3923645
		c-20.7532349,49.065918-50.4779053,93.1464844-88.3482056,131.0170898
		c-37.8706055,37.8703003-81.9511719,67.5949707-131.0170898,88.3482056
		c-50.7626343,21.4708862-104.7264404,32.3573608-160.392334,32.3573608s-109.6297302-10.8864746-160.392395-32.3573608
		c-49.0658569-20.7532349-93.1464539-50.4779053-131.0170593-88.3482056
		c-37.8702545-37.8706055-67.5949707-81.9511719-88.3482056-131.0170898
		c-21.4708862-50.7626343-32.3573608-104.7264404-32.3573608-160.3923645s10.8864746-109.6296997,32.3573608-160.3923645
		c20.7532349-49.0658569,50.477951-93.1464539,88.3482056-131.0170593
		c37.8706055-37.870285,81.9512024-67.594986,131.0170593-88.3482208
		C448.1105652,80.8864288,502.0743713,69.9999542,557.7402954,69.9999542 M557.7402954-0.0000369
		c-266.26474,0-482.1150208,215.8502808-482.1150208,482.1149902s215.8502808,482.1150818,482.1150208,482.1150818
		s482.1149292-215.8503418,482.1149292-482.1150818S824.0050049-0.0000369,557.7402954-0.0000369L557.7402954-0.0000369z"/>
</g>
<g id="Ebene_2_00000125562297871770665760000008198023702078919555_">
</g>
<g id="Ebene_1_00000090265878013131041610000011389277804130011548_">
	<g>
		<path class="st3" d="M1366.2191162,38.4166565c4.515625,42.3759766,5.5087891,86.8710938,2.9658203,133.4848633
			c-2.5419922,46.6137695-13.9833984,94.7905273-34.3242188,144.5029297h2.5419922
			c7.3369141,2.2646484,14.4082031,4.8071289,21.1884766,7.6279297c2.8203125,1.1386719,5.6416016,2.1186523,8.4755859,2.9663086
			c2.8203125,0.847168,5.0849609,2.1186523,6.7802734,3.8139648c5.0849609,5.0849609,3.3896484,14.1293945-5.0859375,27.1206055
			c-22.0351562,40.125-41.5283203,79.9584961-58.4785156,119.5009766c5.0849609-1.1259766,10.59375-2.9663086,16.5263672-5.5092773
			c5.9326172-2.5424805,10.3027344-3.5224609,13.1367188-2.9663086c11.2958984,1.1391602,19.4931641,3.3901367,24.578125,6.7802734
			c1.6953125,1.1391602,3.6679688,1.8408203,5.9326172,2.1191406c2.2509766,0.2910156,3.6679688,0.9931641,4.2373047,2.1186523
			c2.2519531,4.5288086,2.9667969,10.315918,2.1191406,17.3740234c-0.8476562,7.0717773-1.5625,12.0112305-2.1191406,14.8320618
			c-1.1386719,13.0039062-2.5419922,27.2661133-4.2373047,42.7998047s-5.3759766,27.5444336-11.0175781,36.0195312
			c-6.2246094,9.6010742-14.1298828,17.0830078-23.7304688,22.4594727
			c-9.6142578,5.3632812-19.2148438,11.9980469-28.8164062,19.9169922
			c-7.3496094,6.2104492-16.3935547,11.0175781-27.1201172,14.4077148
			c-10.7402344,3.3901367-19.2158203,5.0854492-25.4257812,5.0854492c-1.1396484,0,0.1318359-0.8476562,3.8134766-2.5429688
			c3.6679688-1.6948242,6.0654297-3.9594727,7.2041016-6.7797852c-4.5292969,0.5561523-7.6279297,0-9.3232422-1.6953125
			c-1.6943359-1.6948242-3.6806641-3.1118164-5.9326172-4.237793c-2.2636719-1.1386719-4.6611328-1.840332-7.2041016-2.1186523
			c-2.5419922-0.2915039-4.3828125-1.8408203-5.5087891-4.6611328c-1.1386719-2.2646484-1.5625-4.953125-1.2705078-8.0517578
			c0.2773438-3.1118164,0.4238281-5.800293,0.4238281-8.0512695c1.125-24.300293,5.0849609-48.4545898,11.8652344-72.4633789
			s14.6855469-47.0376282,23.7304688-69.0732727c9.03125-22.0356445,18.3544922-43.078125,27.9677734-63.140625
			c9.6015625-20.0493164,18.0761719-38.5620117,25.4257812-55.5126953
			c-5.0849609-0.5561523-13.9833984,0.7148438-26.6962891,3.8139648
			c-12.7128906,3.1118164-26.5654297,6.5019531-41.5292969,10.1699219
			c-14.9775391,3.6816406-29.6630859,7.2041016-44.0712891,10.5942383
			c-14.4072266,3.3901367-25.8496094,5.0849609-34.3242188,5.0849609c-2.2646484,0-4.8076172-3.0986328-7.6279297-9.3227539
			c-1.1386719-1.1254883-2.2646484-2.2509766-3.390625-3.3896484c-1.1386719-1.1259766-1.9863281-2.2514648-2.5419922-3.3901367
			c-1.6953125-3.9462891-2.9667969-8.8994141-3.8144531-14.8320312c-0.8466797-5.9326172,0.1328125-10.0244141,2.9667969-12.2890625
			c22.0361328-15.8115234,44.3496094-25.9819336,66.9541016-30.5107422c22.5917969-4.515625,48.3095703-4.515625,77.125,0
			c0-20.8969727,0.1328125-43.2236328,0.4238281-66.9545898c0.2783203-23.7304688,1.1259766-46.7460938,2.5429688-69.0732422
			c1.4033203-22.3134766,3.0986328-42.9321289,5.0849609-61.8691406
			c1.9726562-18.9233398,4.6611328-34.0332031,8.0507812-45.3422852c1.6953125-5.6416016,4.2382812-11.4418945,7.6279297-17.3745117
			c3.390625-5.9326172,6.4892578-10.8720703,9.3232422-14.831543c1.125-1.6948242,2.5419922-2.2514648,4.2373047-1.6948242
			c1.6953125,0.5693359,3.2441406,1.6948242,4.6611328,3.3896484c1.4042969,1.6953125,2.9667969,3.3901367,4.6621094,5.0854492
			c1.6943359,1.6948242,3.0986328,2.5424805,4.2373047,2.5424805c1.125,0.5693359,2.1191406-0.5561523,2.9658203-3.3901367
			C1363.2523193,38.1383362,1364.5238037,37.2911682,1366.2191162,38.4166565z M1265.3636475,600.3248901
			c6.7802734,1.1259766,13.1367188,0.7021484,19.0693359-1.2709961c5.9326172-1.9863281,11.2958984-4.3833008,16.1025391-7.2041016
			c4.7939453-2.8339844,8.8994141-6.078125,12.2890625-9.746582c3.390625-3.6811523,5.9326172-7.2036133,7.6279297-10.59375
			c6.7802734-17.5200195-1.6953125-36.7216797-25.4257812-57.6318359
			C1284.2874756,543.2628784,1274.3948975,572.0656128,1265.3636475,600.3248901z M1453.5140381,524.8952026
			c1.125,2.2646484,2.1181641,7.0717773,2.9658203,14.4082031s0.7021484,13.5605469-0.4238281,18.6455078
			c-1.6943359,10.1704102-3.2568359,20.8969727-4.6611328,32.2060547c-1.4169922,11.2958984-1.5625,24.2866211-0.4238281,38.9858398
			c37.2910156-7.3496094,73.8671875-17.5200195,109.7548828-30.5107422
			c35.8740234-13.0043945,71.8935547-26.8427734,108.0585938-41.5288086c1.6953125,0,2.9667969-0.5693359,3.8144531-1.6948242
			c0.8476562-1.1391602,1.8271484-1.1391602,2.9658203,0c1.1259766,1.1254883,1.1259766,3.0986328,0,5.9326172
			c-1.1386719,2.8208008-1.6943359,5.3632812-1.6943359,7.6274414c0,6.7802734-1.4169922,11.5742188-4.2382812,14.4082031
			c-18.0888672,10.1704102-37.1582031,20.7641602-57.2080078,31.7822266
			c-20.0625,11.0175781-40.5478516,20.8964844-61.4453125,29.6630859
			c-20.9101562,8.753418-41.9521484,15.8115234-63.140625,21.1879883c-21.1875,5.3632812-41.6738281,7.4824219-61.4453125,6.3564453
			c-2.8339844-1.1386719-4.6611328-2.8334961-5.5087891-5.0849609c-0.8476562-2.2646484-1.8408203-4.8071289-2.9658203-7.6279297
			c-1.1396484-2.8334961-1.5634766-7.3496094-1.2714844-13.5600586c0.2783203-6.2241211,0.1318359-10.7397461-0.4238281-13.5605469
			c-0.5693359-2.8339844-1.6953125-5.6542969-3.390625-8.4750977c-1.6943359-2.8339844-2.5419922-5.6547852-2.5419922-8.4750977
			c1.125-18.6459961,5.640625-36.8676758,13.5605469-54.6655273
			C1431.7562256,543.1173706,1441.6488037,531.1193237,1453.5140381,524.8952026z M1673.8704834,313.861969
			c11.8652344,0,21.0419922,1.8408203,27.5439453,5.5087891c6.4892578,3.6816406,10.0244141,6.0786133,10.5947266,7.2041016
			c0,0.5693359-1.2714844,1.5625-3.8144531,2.9663086c-2.5419922,1.4169922-5.6542969,2.9663086-9.3222656,4.6611328
			c-3.6816406,1.6953125-7.4960938,3.2578125-11.4423828,4.6616211c-3.9589844,1.4169922-7.6269531,2.4101562-11.0175781,2.9663086
			c-11.3085938,2.8339844-25.9951172,6.3564453-44.0712891,10.5942383
			c-18.0888672,4.2373047-36.1650391,8.8989258-54.2412109,13.9838867l-10.1699219,104.2456055
			c-1.6953125,2.2641602-3.8144531,3.5356445-6.3564453,3.8139648c-2.5429688,0.2910156-5.2314453,1.2709961-8.0517578,2.9663086
			c-1.6953125,1.1386719-4.5292969,2.9663086-8.4755859,5.5087891c-3.9589844,2.5424805-6.7802734,4.3833008-8.4746094,5.5087891
			c-4.5292969,2.2646484-7.4960938,2.9663086-8.8994141,2.1186523c-1.4169922-0.847168-2.4101562-2.6748047-2.9667969-5.5087891
			c-4.5283203-51.4077148-5.0849609-104.2451172-1.6943359-158.4868164
			c3.3896484-54.2416992,13.5605469-107.0664062,30.5107422-158.4868164
			c1.1259766-1.6953125,1.8271484-3.0991211,2.1191406-4.237793c0.2773438-1.1254883,1.8271484-1.6953125,4.6611328-1.6953125
			c1.125,0,3.0986328,1.5629883,5.9326172,4.6616211c2.8203125,3.1118164,5.0849609,4.9526367,6.7802734,5.5087891
			c6.2109375,2.2646484,12.1435547,5.5087891,17.7978516,9.746582c5.6416016,4.237793,7.6279297,9.1904297,5.9326172,14.831543
			c-2.8339844,22.6049805-5.2304688,45.0644531-7.2041016,67.378418
			c-1.9863281,22.3266602-4.3828125,44.7861328-7.2041016,67.3779297
			c12.9912109-2.8203125,27.8232422-6.0649414,44.4951172-9.746582
			C1643.4915771,318.2452698,1659.1712646,315.5567932,1673.8704834,313.861969z"/>
		<path class="st3" d="M1951.8568115,522.3527222c3.3896484,0.5698242,7.3359375,0.8476562,11.8652344,0.8476562
			c4.515625,0,8.4755859,0.5693359,11.8652344,1.6948242c3.390625,1.1391602,6.3564453,3.1123047,8.8994141,5.9331055
			c2.5419922,2.8334961,5.5087891,5.0849609,8.8984375,6.7797852c4.515625,4.5292969,5.6416016,10.4487305,3.390625,17.7983398
			c-0.5693359,1.1254883-0.9931641,2.5424805-1.2714844,4.2373047c-0.2910156,1.6953125-0.9931641,3.3901367-2.1191406,5.0854492
			c0,11.2958984-0.2910156,23.5849609-0.8476562,36.8671875c-0.5693359,13.269043-1.6943359,26.9750977-3.3896484,41.1049805
			c-1.6953125,14.1166992-3.6816406,27.8227539-5.9326172,41.1049805
			c-2.2646484,13.269043-5.0849609,25.5581055-8.4755859,36.8671875c-3.3896484,3.3901367-5.6542969,5.0849609-6.7802734,5.0849609
			c-1.6943359,0-3.1113281-1.840332-4.2373047-5.5087891c-1.1386719-3.6816406-3.1123047-7.4951172-5.9326172-11.4414062
			c-1.1386719-2.2646484-2.2646484-4.9526367-3.3896484-8.0517578c-1.1396484-3.1118164-1.6953125-6.6474609-1.6953125-10.59375
			c2.8203125-36.7348633,2.8203125-73.456543,0-110.1782227c-6.2246094,1.1254883-13.2822266,2.5424805-21.1884766,4.237793
			c-7.9189453,1.6948242-16.3945312,3.3896484-25.4257812,5.0849609
			c-9.0439453,1.6948242-17.9433594,3.5224609-26.6962891,5.5087891
			c-8.7666016,1.9731445-16.8183594,3.8139648-24.1552734,5.5087891
			c-6.2236328,1.6953125-11.5869141,1.9731445-16.1025391,0.8476562c-4.5292969-1.1386719-9.3232422-3.3901367-14.4082031-6.7802734
			c-2.8339844-1.6948242-6.5019531-3.3901367-11.0175781-5.0849609c-4.5292969-1.6953125-8.1972656-3.9594727-11.0175781-6.7802734
			c-1.1386719-1.1386719-2.9667969-2.4101562-5.5087891-3.8139648c-2.5429688-1.4169922-4.1054688-2.6879883-4.6621094-3.8134766
			c-1.1386719-2.8339844-0.4238281-5.6547852,2.1191406-8.4755859c2.5429688-2.8339844,4.9394531-5.0849609,7.2041016-6.7802734
			c7.9052734-3.9594727,15.8115234-7.6274414,23.7304688-11.0175781c7.90625-3.3901367,16.1035156-6.4887695,24.578125-9.3227539
			c1.1259766-13.5605469,2.2509766-28.5244446,3.390625-44.9189758c1.125-16.3808594,3.2441406-33.1855469,6.3564453-50.4277344
			c3.0986328-17.2285156,7.3359375-34.4570312,12.7128906-51.6987305
			c5.3632812-17.2285156,12.5664062-33.7553711,21.6113281-49.5800781
			c-32.7753906,4.5288086-63.8554688,7.3496094-93.2275391,8.4750977
			c-29.3847656,1.1386719-53.3935547,0.2915039-72.0390625-2.5424805c0-6.2109375,0.8466797-11.1503906,2.5419922-14.831543
			c1.6953125-3.668457,4.7939453-6.9125977,9.3232422-9.746582c4.515625-2.8208008,9.7460938-6.3564453,15.6787109-10.5942383
			s11.9980469-6.9125977,18.2216797-8.0512695c23.7304688-2.8208008,45.3427734-5.3632812,64.8359375-7.6279297
			c19.4931641-2.2509766,37.9931641-4.515625,55.5126953-6.7802734c7.90625-27.1206055,13.6923828-53.394043,17.3740234-78.8198242
			c3.6679688-25.425293,6.0654297-51.6987305,7.2041016-78.8193359c0-12.421875-6.5019531-18.6455078-19.4931641-18.6455078
			c-7.3496094,0-15.8242188,0.2910156-25.4257812,0.847168c-9.6142578,0.5698242-19.6386719,1.2714844-30.0869141,2.1191406
			c-10.4619141,0.847168-20.9101562,1.6948242-31.3583984,2.5424805
			c-10.4619141,0.8476562-19.9169922,1.8408203-28.3916016,2.9663086c-5.0859375,1.1386719-7.9189453-0.2783203-8.4755859-4.237793
			c0-0.5561523,0.8476562-2.5424805,2.5429688-5.9326172c1.6943359-3.3901367,3.9462891-6.2109375,6.7792969-8.4750977
			c1.6953125-1.1254883,3.8144531-2.675293,6.3564453-4.6616211c2.5429688-1.9731445,5.2177734-3.5224609,8.0517578-4.6611328
			c8.4755859-2.2514648,18.0761719-4.237793,28.8164062-5.9326172c10.7255859-1.6953125,21.1875-2.9663086,31.3583984-3.8139648
			c10.1699219-0.8476562,19.3466797-1.4038086,27.5439453-1.6948242c8.1835938-0.2783203,13.984375-0.1328125,17.3740234,0.4233398
			c2.8212891,1.1391602,5.3632812,2.4101562,7.6279297,3.8139648c2.2509766,1.4169922,4.515625,2.6884766,6.7802734,3.8139648
			c2.8203125,1.6948242,5.6416016,3.3901367,8.4755859,5.0849609c2.8203125,1.6953125,5.3632812,3.6816406,7.6279297,5.9326172
			c1.6943359,1.6953125,2.9658203,3.5361328,3.8134766,5.5092773c0.8476562,1.9863281,1.8271484,4.3833008,2.9658203,7.2036133
			c2.8212891,11.8657227,3.6689453,25.7172852,2.5429688,41.5288086
			c-1.1386719,15.824707-3.3896484,31.7822266-6.7802734,47.8852539
			c-3.3896484,16.1030273-7.7734375,31.6494141-13.1367188,46.6137695
			c-5.3759766,14.9770508-10.8847656,27.5444336-16.5263672,37.7148438
			c16.3808594-2.2514648,32.0605469-4.3701172,47.0371094-6.3564453
			c14.9648438-1.9731445,29.7958984-3.8139648,44.4951172-5.5087891c3.9462891-0.5566406,7.6279297-0.2783203,11.0175781,0.847168
			c3.390625,1.1391602,6.4892578,1.6953125,9.3232422,1.6953125c2.8203125,0,6.7802734,0.2910156,11.8652344,0.847168
			c5.0849609,0.5698242,8.4755859,1.4169922,10.1699219,2.5429688c2.8212891,2.8339844,5.7872314,5.2304688,8.8995361,7.2036133
			c3.0986328,1.9868164,5.5087891,4.3833008,7.2041016,7.2041016c1.1259766,1.6953125,1.5488281,3.5356445,1.2714844,5.5087891
			c-0.2919922,1.9863281-0.4238281,4.1054688-0.4238281,6.3564453
			c-21.4796143,6.2241211-44.4952393,11.8657227-69.0733643,16.9506836s-49.5800781,9.6142578-75.0058594,13.5605469
			c-1.1386719,10.7392578-2.5429688,23.7304688-4.2382812,38.9858398
			c-1.6943359,15.2553711-3.6806641,31.5039062-5.9326172,48.7329102
			c-2.2636719,17.2416992-4.9521484,34.6157227-8.0507812,52.1225586
			c-3.1123047,17.5200195-6.6484375,33.9009094-10.5947266,49.1562805
			c12.9912109-2.8208008,25.0019531-4.7939453,36.0205078-5.9326172
			C1933.6351318,522.0748901,1943.3812256,521.7965698,1951.8568115,522.3527222z"/>
		<path class="st3" d="M2643.609375,462.1788635c0,3.9594727-1.1386719,6.7797852-3.3896484,8.4750977
			c-2.2646484,1.6948242-4.8076172,3.9594727-7.6279297,6.7802734c-3.390625,3.9594727-7.6279297,8.4750977-12.7128906,13.5600586
			c-5.0849609,5.0854492-10.4619141,10.1704102-16.1035156,15.2553711
			c-5.6542969,5.0854492-11.0175781,9.8926086-16.1025391,14.4082336
			c-5.0849609,4.5288086-9.6142578,8.1972656-13.5605469,11.0175781
			c-42.3759766,20.8969727-84.8984375,34.6030273-127.5527344,41.1049805
			c-42.6669922,6.4887695-88.5654297,6.6347656-137.7226562,0.4238281c-7.3496094-1.1386719-14.4072266-3.6816406-21.1875-7.6274414
			c-6.7802734-3.9599609-13.8515625-5.9331055-21.1884766-5.9331055c-3.9589844,0-5.9326172-1.4169922-5.9326172-4.2373047
			c0-1.1391602,0.9804688-3.1123047,2.9667969-5.9326172c1.9726562-2.8339844,4.6611328-4.237793,8.0507812-4.237793
			c5.0859375,0,10.3027344,0,15.6796875,0c5.3632812,0,10.59375-0.2783203,15.6787109-0.8476562
			c-7.3496094-16.9501953-11.8652344-33.3315735-13.5595703-49.1562805
			c-1.6953125-15.8115234-2.1191406-31.6367188-1.2714844-47.4614258
			c0.8476562-15.8115234,2.3964844-31.4907227,4.6611328-47.0375977
			c2.2509766-15.5332031,3.6679688-31.4907227,4.2373047-47.8847656c-1.1386719,0-3.3896484-0.5566406-6.7802734-1.6953125
			c-2.2636719-1.1254883-3.6806641-2.3969727-4.2373047-3.8139648c-0.5693359-1.4038086-1.4169922-2.9663086-2.5419922-4.6611328
			c-3.390625-3.9462891-5.2314453-8.6079102-5.5097656-13.984375c-0.2910156-5.3632812-0.4228516-11.1499023-0.4228516-17.3740234
			c0-5.0854492-0.2919922-10.0249023-0.8476562-14.831543c-0.5693359-4.7939453,0-10.3027344,1.6943359-16.5268555
			c3.390625-10.7265625,7.7607422-21.7446289,13.1367188-33.0537109
			c5.3632812-11.2958984,11.4414062-22.1679688,18.2216797-32.6293945
			c6.7802734-10.4482422,13.984375-20.3408203,21.6123047-29.6635742s15.109375-17.3740234,22.4589844-24.1542969
			c3.9462891-3.9462891,8.0517578-6.4887695,12.2890625-7.6279297c4.2382812-1.1254883,8.8994141-2.2509766,13.984375-3.3901367
			c3.9462891-1.1254883,7.90625-2.3964844,11.8652344-3.8134766c3.9462891-1.4038086,8.1845703-2.1191406,12.7128906-2.1191406
			c2.2509766,0,4.6611328,0,7.2041016,0s4.6611328,0.5698242,6.3564453,1.6953125
			c1.1259766,1.1386719,2.3964844,2.4101562,3.8134766,3.8139648c1.4042969,1.4169922,2.3974609,2.6879883,2.9667969,3.8134766
			l-11.0175781,13.5605469l-11.8652344,11.8652344c2.2509766-1.1254883,4.3701172-2.1186523,6.3564453-2.9663086
			c1.9726562-0.8476562,4.0917969-1.8271484,6.3564453-2.9663086c4.515625-1.1254883,8.8984375-1.5493164,13.1357422-1.2709961
			c4.2382812,0.2910156,8.6083984,0.7148438,13.1367188,1.2709961c4.515625,0.5693359,8.4755859,0.9931641,11.8652344,1.2714844
			c3.390625,0.2910156,6.2109375,1.2709961,8.4755859,2.9663086c2.8203125,2.2646484,5.6416016,3.6811523,8.4755859,4.2373047
			c2.8203125,0.5698242,4.7939453,2.2646484,5.9326172,5.0854492c1.6953125,6.2241211,1.4033203,13.0039062-0.8476562,20.340332
			c-2.2646484,7.3496094-4.8066406,14.4082031-7.6279297,21.1884766
			c-4.5283203,9.6137695-11.1630859,19.7841797-19.9169922,30.5107422
			c-8.7666016,10.7397461-18.7910156,21.1879883-30.0869141,31.3583984
			c-11.3085938,10.1704102-23.3066406,19.6386719-36.0195312,28.3920898
			c-12.7128906,8.7666016-25.0019531,15.9702148-36.8671875,21.6118164
			c-3.9599609,1.6948242-7.6279297,3.2578125-11.0175781,4.6611328c-3.390625,1.4169922-6.7802734,2.6884766-10.1708984,3.8139648
			c0.5566406,13.0043945,0.4238281,27.9682617-0.4238281,44.9189453
			c-0.8476562,16.9501953-2.1181641,34.324707-3.8134766,52.1225586s-3.390625,35.3178711-5.0849609,52.5463867
			c-1.6953125,17.242218-3.1123047,32.6299133-4.2382812,46.1904602
			C2406.8583984,536.2047729,2518.1757812,509.0836487,2643.609375,462.1788635z M2335.1103516,269.7906799
			c-5.0849609,9.6142578-5.5087891,14.6992188-1.2714844,15.2553711c4.2382812,0.5693359,9.7470703,0,16.5273438-1.6948242
			c8.4746094-1.6953125,17.5068359-4.515625,27.1210938-8.4755859c9.6005859-3.9462891,18.7773438-8.7529297,27.5439453-14.4077148
			c8.7539062-5.6411133,16.6591797-11.4414062,23.7304688-17.3740234
			c7.0585938-5.9331055,11.9980469-11.9980469,14.8320312-18.222168c1.6953125-3.9462891-0.7148438-6.3564453-7.2041016-7.2036133
			c-6.5019531-0.8476562-14.2753906-0.7021484-23.3066406,0.4238281
			c-9.0449219,1.1386719-17.9433594,2.6879883-26.6972656,4.6611328
			c-8.7666016,1.9863281-14.5537109,3.5356445-17.3740234,4.6616211c0-3.9462891,1.4033203-9.6010742,4.2373047-16.9506836
			c-7.9189453,9.6142578-14.8310547,19.3608398-20.7636719,29.2397461
			C2346.5517578,249.5958557,2340.7519531,259.6202698,2335.1103516,269.7906799z M2493.5976562,350.3053284
			c-6.7802734,13.0043945-12.8583984,26.5649414-18.2216797,40.6811523
			c-5.3769531,14.1298828-10.7402344,28.1142578-16.1035156,41.9526367
			c-5.3759766,13.8515625-11.3085938,27.2666016-17.7978516,40.2573242
			c-6.5019531,13.0043945-14.2753906,24.8696289-23.3066406,35.5961914
			c-1.1386719,1.6948242-3.2578125,3.535675-6.3564453,5.5088196c-3.1123047,1.9863281-5.5087891,2.9663086-7.2041016,2.9663086
			c-3.9589844,0.5693359-7.7734375,1.6948242-11.4414062,3.3901367c-3.6816406,1.6948242-7.2041016,2.8339844-10.59375,3.3901367
			c-4.5292969,0-7.0722656-1.1254883-7.6279297-3.3901367c0-0.5561523,0.1328125-0.8476562,0.4238281-0.8476562
			c0.2783203,0,0.4238281-0.5561523,0.4238281-1.6948242c10.7265625-10.726593,19.0693359-23.5849915,25.0019531-38.5625305
			c5.9326172-14.9638672,11.8652344-30.2197266,17.7978516-45.7661133
			c5.9326172-15.5336914,12.7128906-30.7890625,20.3408203-45.7666016
			c7.6269531-14.9638672,18.2216797-27.5444336,31.7822266-37.7148438c0.5556641-0.5561523,2.2509766-1.1254883,5.0849609-1.6948242
			c2.8203125-0.5561523,5.7871094-0.9799805,8.8984375-1.2714844c3.0996094-0.277832,5.6416016-0.277832,7.6279297,0
			C2494.2998047,347.6305237,2494.7236328,348.6105042,2493.5976562,350.3053284z"/>
		<path class="st3" d="M2826.6708984,179.9532776c3.3896484,13.5600586,2.1181641,27.4121094-3.8144531,41.5288086
			c-5.9326172,14.1293945-13.7060547,27.6899414-23.3066406,40.6806641
			c-9.6142578,13.0043945-19.9169922,25.0019531-30.9345703,36.0200195
			c-11.0175781,11.0175781-20.2080078,20.2080078-27.5449219,27.5444336
			c16.3818359-3.9462891,31.7822266-6.7802734,46.1904297-8.4750977
			c14.4082031-1.6953125,26.4052734-1.9731445,36.0195312-0.8476562c2.8212891,0.5693359,6.3564453,0.9931641,10.5947266,1.2714844
			c4.2373047,0.2910156,7.4814453,0.9931641,9.7460938,2.1186523c2.8203125,1.1386719,4.3701172,2.4101562,4.6611328,3.8139648
			c0.2783203,1.4169922,0.9804688,3.2578125,2.1191406,5.5087891c1.6953125,5.0849609,3.2441406,9.3227539,4.6611328,12.7128906
			c1.4042969,3.3901367,1.5498047,7.0717773,0.4238281,11.0180664c-1.1386719,2.8334961-2.8339844,5.7998047-5.0849609,8.8989258
			c-2.2646484,3.1118164-4.2373047,5.800293-5.9326172,8.0512695
			c-17.5195312,25.4257812-35.8876953,51.1425781-55.0888672,77.1245117
			c-19.2148438,25.9951172-35.8876953,53.394043-50.0039062,82.2099915
			c27.1201172-10.7265625,54.5195312-24.8564758,82.2099609-42.3760071
			c27.6767578-17.5068359,53.3935547-35.5961914,77.1240234-54.2416992s44.9189453-36.1523438,63.5644531-52.5463867
			c18.6455078-16.3813477,32.7617188-28.815918,42.3759766-37.2910156c0,2.8339844-2.1181641,7.6274414-6.3564453,14.4077148
			c-4.2373047,6.7802734-6.9257812,11.5874023-8.0507812,14.4082031
			c-4.5292969,10.1699219-9.0449219,17.6655273-13.5605469,22.4589844
			c-4.5292969,4.8071289-9.0449219,12.2890625-13.5605469,22.4594727
			c-6.7802734,8.4750977-14.6992188,18.3676758-23.7304688,29.6635742
			c-9.0449219,11.309082-17.5205078,21.4794922-25.4257812,30.5107422
			c-11.3095703,12.4345703-23.1748047,24.578125-35.5966797,36.4433899
			c-12.4345703,11.8652344-25.5712891,22.8833008-39.4091797,33.0537109
			c-13.8515625,10.1699219-28.1142578,19.2016602-42.7998047,27.1206055
			c-14.6992188,7.9057617-29.9550781,13.8383789-45.7666016,17.7978516c-3.390625,1.1259766-6.6474609,1.1259766-9.7470703,0
			c-3.1113281-1.1386719-6.3554688-2.2641602-9.7460938-3.3901367c-3.3896484-1.1386719-7.2041016-1.9863281-11.4414062-2.5424805
			c-4.2373047-0.5693359-7.4951172-2.2641602-9.7470703-5.0849609c-1.6943359-2.8339844-2.4101562-5.6547852-2.1181641-8.4750977
			c0.2783203-2.8339844,0.4238281-6.5024414,0.4238281-11.0180664c0.5556641-11.309082,3.8134766-25.2797852,9.7460938-41.9521484
			c5.9326172-16.6592102,12.7128906-33.7554016,20.3408203-51.2754211
			c7.6279297-17.5068359,15.3876953-34.0332031,23.3066406-49.5800781
			c7.90625-15.5336914,14.1171875-28.1010742,18.6455078-37.7148438c-4.5283203,0.5693359-9.8916016,1.5625-16.1025391,2.9663086
			c-6.2246094,1.4169922-12.8583984,2.9663086-19.9169922,4.6611328
			c-7.0712891,1.6953125-14.1298828,3.2578125-21.1884766,4.6616211
			c-7.0712891,1.4169922-13.4277344,2.6879883-19.0693359,3.8139648c-2.8339844,1.1386719-5.3759766,1.1386719-7.6269531,0
			c-2.2646484-1.1259766-4.8076172-2.5429688-7.6279297-4.237793c-2.2646484-1.1254883-5.2314453-2.5424805-8.8994141-4.237793
			c-3.6816406-1.6948242-6.078125-3.9462891-7.2041016-6.7797852c-0.5693359-1.6953125-0.2910156-3.2446289,0.8476562-4.6616211
			c1.1259766-1.4038086,1.6953125-3.2446289,1.6953125-5.5087891c0-2.2514648,1.1259766-5.2177734,3.3896484-8.8989258
			c2.2519531-3.668457,4.9394531-7.3364258,8.0517578-11.0180664c3.0986328-3.6679688,6.0654297-6.9125977,8.8994141-9.746582
			c2.8203125-2.8203125,5.0849609-5.0849609,6.7802734-6.7802734c6.7802734-9.03125,13.9833984-19.2016602,21.6113281-30.5107422
			c7.6279297-11.2958984,14.5400391-22.5917969,20.7646484-33.9008789
			c6.2109375-11.2958984,11.5742188-22.1679688,16.1025391-32.6298828c4.515625-10.4482422,7.3369141-19.625,8.4755859-27.5444336
			c0-2.8203125-2.5429688-4.3701172-7.6279297-4.6611328c-5.0849609-0.2783203-11.3085938,0.1455078-18.6455078,1.2709961
			c-7.3496094,1.1391602-15.1230469,2.6884766-23.3066406,4.6616211
			c-8.1972656,1.9863281-15.1230469,3.8139648-20.7646484,5.5087891
			c-4.5283203-0.5561523-10.0380859-3.0986328-16.5263672-7.6274414
			c-6.5019531-4.5161133-11.1640625-8.4755859-13.984375-11.8657227c-2.8339844-2.8203125-4.2373047-5.2172852-4.2373047-7.2036133
			c0-1.9731445-0.2919922-3.2446289-0.8476562-3.8139648c-3.390625-4.515625-1.4169922-8.753418,5.9326172-12.7128906
			c3.3896484-2.2514648,8.7529297-4.9394531,16.1025391-8.0512695c7.3369141-3.0991211,15.3886719-6.0654297,24.1552734-8.8994141
			c8.7529297-2.8203125,17.6513672-5.3632812,26.6962891-7.6274414c9.03125-2.2514648,16.6591797-3.668457,22.8837891-4.237793
			c3.3896484-0.5561523,7.9052734-0.4238281,13.5595703,0.4238281c5.6416016,0.8476562,11.5742188,2.6884766,17.7988281,5.5087891
			c2.8203125,1.1391602,6.6337891,3.6816406,11.4414062,7.6279297c4.7939453,3.9594727,8.6074219,6.7802734,11.4414062,8.4750977
			c4.515625,2.8339844,7.3359375,4.6616211,8.4755859,5.5087891
			C2822.7109375,172.749176,2824.40625,175.4376526,2826.6708984,179.9532776z M3079.2324219,203.6837463
			c2.2519531,19.784668,3.8144531,41.9526367,4.6621094,66.5307617s1.125,49.871582,0.8476562,75.8535156
			c-0.2919922,25.9951172-0.8476562,51.5664062-1.6953125,76.7006836
			c-0.8476562,25.1474609-1.6953125,48.1762695-2.5429688,69.0732422
			c-0.8476562,20.9101868-1.6953125,38.4302063-2.5419922,52.5464172
			c-0.8476562,14.1166992-1.2714844,23.4394531-1.2714844,27.9682617
			c-11.8652344-15.824707-20.4863281-37.9926758-25.8496094-66.530304
			c-5.3769531-28.5249023-8.4755859-59.7504883-9.3232422-93.6513672
			c-0.8466797-33.9013672-0.1455078-68.7822266,2.1191406-104.6694336
			c2.2509766-35.8740234,5.0849609-69.3515625,8.4755859-100.4316406c-0.5693359-2.2509766,0.4238281-4.0917969,2.9658203-5.5087891
			c2.5429688-1.4038086,5.2177734-3.2446289,8.0517578-5.5087891c1.6953125-1.1259766,3.3896484-2.8208008,5.0849609-5.0854492
			c1.6953125-2.2509766,3.0986328-3.3901367,4.2373047-3.3901367c3.390625-0.5561523,5.2177734,1.2714844,5.5097656,5.5092773
			C3078.2392578,197.327301,3078.6630859,200.8629456,3079.2324219,203.6837463z"/>
	</g>
	<g>
		<path d="M1196.230835,846.3117065c-2.7509766,0-4.1269531-0.8505859-4.1269531-2.5546875
			c0-1.046875,0.4238281-1.7993164,1.2773438-2.2602539c0.8505859-0.4575195,1.9316406-0.9487305,3.2431641-1.4736328
			c1.9648438-0.6542969,3.7646484-1.4067383,5.4042969-2.2602539c1.6367188-0.8505859,2.4570312-2.6533203,2.4570312-5.4047852
			V736.647644c0-4.0595703-0.5595703-7.2714844-1.6708984-9.6298828c-1.1142578-2.3583984-3.3105469-3.862793-6.5839844-4.5200195
			c-1.3105469-0.2612305-1.9648438-1.2436523-1.9648438-2.9482422c0-1.5722656,0.5898438-2.4873047,1.7685547-2.7514648
			c3.4052734-0.6538086,6.8115234-1.5722656,10.2197266-2.7514648c3.4052734-1.1791992,6.6142578-2.3583984,9.6298828-3.5371094
			c3.0126953-1.1791992,5.5029297-2.0947266,7.46875-2.7514648c1.046875-0.3930664,1.8330078-0.5898438,2.3583984-0.5898438
			c0.6533203,0,1.1113281,0.1967773,1.375,0.5898438c0.2617188,0.3930664,0.3935547,0.9179688,0.3935547,1.5722656
			c0,1.1791992-0.1972656,3.2426758-0.5898438,6.1904297c-0.3925781,2.9482422-0.6572266,6.7802734-0.7861328,11.4970703
			l0.1962891,70.5546875c0,1.4433594,0.4580078,2.1616211,1.3759766,2.1616211c0.5224609,0,1.2099609-0.1962891,2.0634766-0.5893555
			c0.8505859-0.3930664,1.6708984-0.9829102,2.4570312-1.769043c4.9775391-4.3237305,9.3349609-8.5151367,13.0693359-12.5776367
			c3.7333984-4.0595703,6.2548828-7.0078125,7.5664062-8.8442383c0.6533203-0.7861328,1.1113281-1.4399414,1.375-1.965332
			c0.2617188-0.5219727,0.3935547-0.9824219,0.3935547-1.3754883c0-0.6542969-0.5253906-1.2773438-1.5722656-1.8671875
			c-1.0507812-0.5893555-2.4902344-1.0131836-4.3242188-1.2773438c-1.5722656-0.3930664-2.3574219-1.1791992-2.3574219-2.3583984
			c0-0.9150391,0.4570312-1.5722656,1.375-1.965332c0.9150391-0.3930664,1.8984375-0.5893555,2.9482422-0.5893555h9.6298828
			c2.2265625,0,5.0117188-0.1293945,8.3525391-0.3930664c3.3408203-0.2612305,6.5498047-0.5561523,9.6298828-0.8847656
			c3.0771484-0.3251953,5.4052734-0.5556641,6.9765625-0.6875c1.5722656,0,2.3583984,0.7216797,2.3583984,2.1616211
			c0,0.9179688-0.4267578,1.7041016-1.2773438,2.3583984c-0.8535156,0.6572266-1.9990234,1.1791992-3.4384766,1.5722656
			c-2.3583984,0.5249023-4.8828125,1.409668-7.5664062,2.6533203c-2.6875,1.246582-5.4052734,2.652832-8.15625,4.2250977
			c-1.7041016,0.918457-3.8662109,2.3583984-6.4853516,4.3237305c-2.6230469,1.965332-5.3408203,4.0966797-8.15625,6.387207
			c-2.8193359,2.2939453-5.4052734,4.5541992-7.7626953,6.7802734c-0.6572266,0.6572266-0.9833984,1.3115234-0.9833984,1.965332
			c0,0.3930664,0.0986328,0.7216797,0.2949219,0.9829102c0.1962891,0.2641602,0.4238281,0.5893555,0.6884766,0.9824219
			c3.2734375,4.0629883,6.515625,8.1254883,9.7275391,12.1850586c3.2089844,4.0625,6.3203125,7.8613281,9.3359375,11.3989258
			c3.0117188,3.5375977,5.6992188,6.6816406,8.0576172,9.4331055c2.2255859,2.2294922,4.8789062,4.2929688,7.9589844,6.190918
			c3.0771484,1.9008789,5.6015625,3.1782227,7.5664062,3.8325195c1.3085938,0.5249023,2.5859375,1.0161133,3.8330078,1.4736328
			c1.2431641,0.4609375,1.8662109,1.2133789,1.8662109,2.2602539c0,1.7041016-1.375,2.5546875-4.1269531,2.5546875
			c-7.0751953,0-14.1835938-0.0981445-21.3232422-0.2944336c-7.1425781-0.1967773-13.9873047-0.2949219-20.5380859-0.2949219
			c-2.4902344,0-3.7333984-0.7861328-3.7333984-2.3583984c0-0.9150391,0.359375-1.6704102,1.0810547-2.2602539
			c0.7177734-0.5893555,1.6699219-1.0805664,2.8496094-1.4736328c1.1787109-0.3930664,2.09375-0.8847656,2.7509766-1.4741211
			c0.6542969-0.5898438,1.046875-1.2773438,1.1796875-2.0634766c0-0.5219727-0.1972656-1.0810547-0.5898438-1.6704102
			c-0.3935547-0.5898438-0.9179688-1.3422852-1.5722656-2.2602539l-20.4394531-26.3349609
			c-0.5244141-0.6542969-0.9824219-0.9829102-1.3759766-0.9829102c-0.65625,0.1318359-0.9824219,0.6572266-0.9824219,1.5722656
			c-0.1318359,1.8364258-0.1962891,3.8017578-0.1962891,5.8959961c0,2.097168,0,4.1948242,0,6.2890625
			c0,2.2294922,0,4.5200195,0,6.878418s0.0644531,4.6523438,0.1962891,6.878418
			c0,2.3583984,0.5224609,4.0629883,1.5722656,5.1098633c1.0478516,1.050293,2.5546875,1.9008789,4.5205078,2.5551758
			c1.046875,0.3930664,2.0292969,0.8198242,2.9482422,1.2773438c0.9150391,0.4604492,1.375,1.2128906,1.375,2.2602539
			c0,0.9179688-0.4599609,1.605957-1.375,2.0634766c-0.9189453,0.4575195-1.7695312,0.6875-2.5556641,0.6875
			c-2.4902344,0-4.6513672-0.0981445-6.4853516-0.2944336c-1.8359375-0.1967773-3.6044922-0.359375-5.3056641-0.4912109
			c-1.7050781-0.1293945-3.734375-0.1967773-6.0927734-0.1967773c-2.2294922,0-4.2587891,0.0673828-6.0927734,0.1967773
			c-1.8359375,0.1318359-3.7333984,0.2944336-5.6992188,0.4912109
			C1201.1448975,846.213562,1198.8509521,846.3117065,1196.230835,846.3117065z"/>
		<path d="M1367.0150146,848.4738159c-7.7314453,0-14.6748047-1.7382812-20.8320312-5.2080078
			c-6.1601562-3.4702148-11.0732422-8.2851562-14.7392578-14.4453125
			c-3.6699219-6.1567383-5.5029297-13.0996094-5.5029297-20.8320312c0-6.0249023,1.1787109-11.7919922,3.5371094-17.2949219
			c2.3583984-5.5024414,5.5673828-10.4160156,9.6298828-14.7397461c4.0595703-4.3237305,8.84375-7.7626953,14.3466797-10.3178711
			c5.5029297-2.5546875,11.3994141-3.8320312,17.6884766-3.8320312c7.9902344,0,15.1630859,1.8666992,21.5195312,5.6010742
			c6.3535156,3.7338867,11.4296875,8.6811523,15.2314453,14.8378906c3.7988281,6.1601562,5.6992188,12.9067383,5.6992188,20.2426758
			c0,8.1254883-1.7382812,15.6918945-5.2080078,22.6992188c-3.4726562,7.0107422-8.6474609,12.6455078-15.5263672,16.9018555
			C1385.980835,846.3424683,1377.3636475,848.4738159,1367.0150146,848.4738159z M1370.9456787,840.8092651
			c3.2734375,0,6.1914062-0.6542969,8.7460938-1.965332c2.5546875-1.3081055,4.6181641-3.3413086,6.1904297-6.0927734
			s2.6533203-6.387207,3.2431641-10.9072266c0.5888672-4.5205078,0.8837891-9.3999023,0.8837891-14.6416016
			c0-6.9428711-0.9179688-13.2319336-2.7509766-18.8671875c-1.8369141-5.6318359-4.3916016-10.1518555-7.6650391-13.5605469
			c-3.2763672-3.4052734-7.1425781-5.1098633-11.5947266-5.1098633c-2.4912109,0-4.7509766,0.4272461-6.7802734,1.277832
			c-2.0332031,0.8535156-3.9003906,2.2597656-5.6015625,4.2250977c-2.3583984,2.7514648-3.9638672,6.5195312-4.8154297,11.3007812
			c-0.8535156,4.7841797-1.2773438,10.3178711-1.2773438,16.6069336c0,6.2885742,0.9492188,12.3168945,2.8496094,18.0805664
			c1.8984375,5.7670898,4.453125,10.4838867,7.6650391,14.1503906
			C1363.2474365,838.975769,1366.8831787,840.8092651,1370.9456787,840.8092651z"/>
		<path d="M1457.0267334,846.3117065c-1.0507812,0-1.9658203-0.2299805-2.7519531-0.6875s-1.1787109-1.0810547-1.1787109-1.8671875
			c0-1.046875,0.4238281-1.8330078,1.2773438-2.3583984c0.8505859-0.5219727,1.9316406-0.9824219,3.2431641-1.3754883
			c2.7509766-0.7861328,4.6826172-1.7353516,5.796875-2.8500977c1.1123047-1.1113281,1.6708984-2.652832,1.6708984-4.6181641
			V788.335144c0-3.012207-0.4267578-5.5332031-1.2773438-7.5664062c-0.8535156-2.0297852-2.6533203-3.371582-5.4042969-4.0288086
			c-0.5253906-0.2607422-1.0507812-0.6201172-1.5722656-1.0805664c-0.5253906-0.4575195-0.7861328-1.1455078-0.7861328-2.0639648
			c0-1.7011719,0.7177734-2.7514648,2.1611328-3.1445312c3.9306641-1.046875,8.1875-2.456543,12.7744141-4.2250977
			c4.5849609-1.769043,8.4511719-3.5039062,11.5957031-5.2080078c0.6542969-0.3930664,1.3759766-0.7861328,2.1621094-1.1791992
			s1.3759766-0.5898438,1.7685547-0.5898438c1.046875,0,1.5722656,0.6572266,1.5722656,1.965332
			c0,0.5253906-0.0341797,1.7045898-0.0986328,3.5375977c-0.0673828,1.8364258-0.1318359,3.8325195-0.1962891,5.9941406
			c-0.0673828,2.1621094-0.1660156,4.0966797-0.2949219,5.7978516c0,0.7861328,0.1962891,1.1791992,0.5898438,1.1791992
			c2.0947266-2.7514648,4.4521484-5.3066406,7.0751953-7.6650391c2.6191406-2.3579102,5.4042969-4.3232422,8.3525391-5.8955078
			s5.9267578-2.3583984,8.9423828-2.3583984c3.7978516,0,6.6474609,0.7861328,8.5488281,2.3583984
			c1.8974609,1.5722656,2.8496094,3.5375977,2.8496094,5.8955078c0,1.8364258-0.4912109,3.8017578-1.4736328,5.8959961
			c-0.9833984,2.0976562-2.2294922,3.8999023-3.734375,5.4047852c-1.5078125,1.5078125-3.1787109,2.2602539-5.0117188,2.2602539
			c-1.0498047,0-2.1621094-0.2275391-3.3408203-0.6879883c-1.1796875-0.4575195-2.3583984-1.0131836-3.5380859-1.6704102
			c-1.1787109-0.5219727-2.3916016-1.0473633-3.6357422-1.5722656c-1.2460938-0.5219727-2.3916016-0.7861328-3.4384766-0.7861328
			c-3.2773438,0-6.2246094,1.2128906-8.8447266,3.6357422c-2.6220703,2.4257812-3.9306641,7.1733398-3.9306641,14.2485352
			v34.5893555c0,2.3583984,0.8515625,4.1606445,2.5556641,5.4042969c1.7011719,1.2470703,4.3232422,2.3925781,7.8613281,3.4394531
			c1.4394531,0.3930664,2.5205078,0.8198242,3.2421875,1.2773438c0.71875,0.4609375,1.0810547,1.2133789,1.0810547,2.2602539
			c0,1.7041016-1.1787109,2.5546875-3.5371094,2.5546875c-3.9306641,0-7.6347656-0.1655273-11.1044922-0.4912109
			c-3.4726562-0.3251953-6.9121094-0.4912109-10.3173828-0.4912109c-2.2294922,0-4.3574219,0.0673828-6.3876953,0.1967773
			c-2.0332031,0.1318359-4.0966797,0.2944336-6.1904297,0.4912109
			C1462.0042725,846.213562,1459.645874,846.3117065,1457.0267334,846.3117065z"/>
		<path d="M1595.7738037,848.4738159c-7.2070312,0-13.5605469-1.8364258-19.0634766-5.5029297
			c-5.5019531-3.6665039-9.8261719-8.7456055-12.9707031-15.230957c-3.1445312-6.4858398-4.7167969-13.8554688-4.7167969-22.1098633
			c0-7.9902344,1.8671875-15.2954102,5.6015625-21.9130859c3.7333984-6.6147461,8.7451172-11.8901367,15.0341797-15.8208008
			s13.1679688-5.8959961,20.6357422-5.8959961c5.5029297,0,10.4160156,1.1484375,14.7402344,3.4394531
			c4.3232422,2.2939453,7.7626953,5.4384766,10.3173828,9.4335938c2.5546875,3.9980469,3.8330078,8.484375,3.8330078,13.4619141
			c0,4.7167969-2.0332031,7.0751953-6.0927734,7.0751953h-39.8955078c-1.8369141,0-3.1787109,0.4916992-4.0292969,1.4741211
			c-0.8535156,0.9824219-1.2773438,2.7851562-1.2773438,5.4047852c0,5.5024414,1.2099609,10.4833984,3.6357422,14.9360352
			c2.4228516,4.4560547,5.6660156,7.9931641,9.7285156,10.612793c4.0595703,2.6225586,8.7119141,3.9306641,13.953125,3.9306641
			c3.7988281,0,7.3027344-0.7524414,10.5146484-2.2602539c3.2089844-1.5043945,6.2548828-3.5683594,9.1386719-6.1904297
			c0.5224609-0.3930664,0.9824219-0.7524414,1.3759766-1.0810547c0.3925781-0.3256836,0.7861328-0.4912109,1.1787109-0.4912109
			c1.3085938,0,1.9658203,0.7861328,1.9658203,2.3583984c0,1.8359375-0.7861328,4.0625-2.3583984,6.6816406
			c-1.5722656,3.015625-3.8330078,5.8959961-6.7802734,8.6474609c-2.9482422,2.7514648-6.5195312,4.9472656-10.7109375,6.5839844
			C1605.3363037,847.6539917,1600.7523193,848.4738159,1595.7738037,848.4738159z M1583.1966553,787.7457886h13.953125
			c3.4052734,0,5.9609375-0.0644531,7.6650391-0.1962891c1.7011719-0.1293945,3.3408203-0.3930664,4.9130859-0.7861328
			c0.6542969-0.1293945,1.1113281-0.6879883,1.3759766-1.6708984c0.2607422-0.9824219,0.3925781-2.1279297,0.3925781-3.4389648
			c0-3.5375977-1.3447266-6.5166016-4.0283203-8.9423828c-2.6875-2.4228516-5.9941406-3.6357422-9.9248047-3.6357422
			c-2.7519531,0-5.4384766,0.8198242-8.0576172,2.456543c-2.6230469,1.6396484-4.7851562,3.7036133-6.4863281,6.190918
			c-1.7041016,2.4902344-2.4902344,5.0454102-2.3583984,7.6645508
			C1580.6409912,786.9596558,1581.4915771,787.7457886,1583.1966553,787.7457886z"/>
		<path d="M1688.3382568,848.4738159c-3.1445312,0-6.1259766-0.8535156-8.9423828-2.5551758
			c-2.8183594-1.7011719-5.0791016-3.9301758-6.7802734-6.6816406c-1.7041016-2.7514648-2.5546875-5.5673828-2.5546875-8.4511719
			c0-4.4526367,1.3076172-8.0883789,3.9306641-10.9072266c2.6191406-2.815918,6.5498047-5.3369141,11.7919922-7.5664062
			l18.2773438-7.8613281c2.6191406-1.046875,4.2255859-2.0297852,4.8144531-2.9477539
			c0.5898438-0.9150391,0.8847656-2.6196289,0.8847656-5.1098633l0.3925781-11.5952148
			c0.1289062-3.6665039-0.6230469-6.6147461-2.2597656-8.8442383c-1.6396484-2.2260742-4.0966797-3.3408203-7.3701172-3.3408203
			c-1.7041016,0-3.4726562,0.3286133-5.3056641,0.9824219c-1.8369141,0.6572266-3.2773438,1.5078125-4.3242188,2.5551758
			c-0.5253906,0.5249023-0.8837891,1.2128906-1.0810547,2.0634766c-0.1962891,0.8535156-0.2949219,1.6704102-0.2949219,2.456543
			c0,0.6572266,0.03125,1.4741211,0.0986328,2.456543c0.0644531,0.9829102,0.0986328,1.8671875,0.0986328,2.6533203
			s-0.9833984,1.769043-2.9482422,2.9477539c-1.9658203,1.1791992-4.1943359,2.2294922-6.6816406,3.1445312
			c-2.4912109,0.918457-4.5878906,1.3759766-6.2890625,1.3759766c-0.9189453,0-1.640625-0.3256836-2.1621094-0.9829102
			c-0.5253906-0.6538086-0.7861328-1.4399414-0.7861328-2.3583984c0-2.0942383,0.6875-4.2250977,2.0634766-6.387207
			c1.3759766-2.1616211,3.5683594-4.4863281,6.5839844-6.9765625c3.2734375-2.7514648,6.8779297-5.2080078,10.8085938-7.3701172
			c3.9306641-2.1616211,7.7636719-3.8964844,11.4970703-5.2080078c3.734375-1.3081055,6.9775391-1.965332,9.7285156-1.965332
			c6.2890625,0,11.3310547,2.0634766,15.1328125,6.190918c3.7988281,4.1269531,5.6318359,9.5317383,5.5029297,16.2138672
			l-0.9824219,42.0576172c-0.1318359,2.8833008,0.4238281,5.3061523,1.6699219,7.2714844
			c1.2441406,1.965332,2.7822266,2.9477539,4.6191406,2.9477539c2.7509766,0,4.9775391-0.7861328,6.6816406-2.3583984
			c0.5224609-0.5219727,0.9824219-0.7861328,1.3759766-0.7861328c0.6542969,0,1.2099609,0.2304688,1.6708984,0.6879883
			c0.4570312,0.4604492,0.6875,1.0166016,0.6875,1.6704102c0,1.4433594-1.0507812,3.2124023-3.1445312,5.3066406
			c-2.3583984,2.3583984-4.8828125,4.1606445-7.5664062,5.4042969c-2.6875,1.2436523-5.3398438,1.8671875-7.9599609,1.8671875
			c-6.9453125,0-12.5771484-3.6020508-16.9013672-10.809082h-0.5898438
			c-4.3232422,3.8012695-8.2880859,6.5527344-11.8896484,8.2539062
			C1696.2298584,847.6203003,1692.3978271,848.4738159,1688.3382568,848.4738159z M1699.1478271,836.6818237
			c1.8330078,0,3.4052734-0.2949219,4.7158203-0.8842773c1.3085938-0.5893555,2.4228516-1.40625,3.3417969-2.456543
			c0.5214844-0.6542969,0.9482422-1.4404297,1.2773438-2.3583984c0.3251953-0.9150391,0.5556641-2.2265625,0.6875-3.9306641
			l0.3935547-12.578125c0.1289062-1.3081055,0-2.1923828-0.3935547-2.652832
			c-0.3925781-0.4575195-0.8535156-0.6879883-1.3759766-0.6879883c-0.2636719,0-0.65625,0.0336914-1.1787109,0.0981445
			c-0.5253906,0.0673828-1.1152344,0.2949219-1.7685547,0.6879883c-4.8486328,1.965332-8.3222656,4.0625-10.4160156,6.2890625
			c-2.0976562,2.2294922-3.1445312,5.1098633-3.1445312,8.6469727c0,3.5375977,0.8505859,6.0620117,2.5546875,7.5668945
			C1695.5423584,835.9293823,1697.3109131,836.6818237,1699.1478271,836.6818237z"/>
		<path d="M1785.0286865,846.3117065c-1.0498047,0-1.9648438-0.2299805-2.7509766-0.6875s-1.1796875-1.0810547-1.1796875-1.8671875
			c0-1.046875,0.4238281-1.8330078,1.2783203-2.3583984c0.8505859-0.5219727,1.9306641-0.9824219,3.2421875-1.3754883
			c1.9658203-0.5219727,3.7646484-1.2436523,5.4042969-2.1621094c1.6367188-0.9150391,2.4570312-2.6835938,2.4570312-5.3061523
			v-44.0229492c0-3.0126953-0.4267578-5.6010742-1.2773438-7.7631836c-0.8535156-2.1616211-2.6533203-3.5678711-5.4042969-4.2250977
			c-0.5253906-0.2612305-0.9833984-0.6206055-1.3759766-1.0810547c-0.3935547-0.4575195-0.5898438-1.2099609-0.5898438-2.2602539
			c0-1.7011719,0.5898438-2.6835938,1.7685547-2.9477539c4.5849609-1.0473633,9.1386719-2.456543,13.6591797-4.2255859
			c4.5205078-1.7685547,8.4814453-3.6357422,11.890625-5.6010742c0.5214844-0.2607422,1.046875-0.5893555,1.5722656-0.9824219
			c0.5214844-0.3930664,1.046875-0.5898438,1.5712891-0.5898438c0.6542969,0,1.0810547,0.2304688,1.2783203,0.6879883
			c0.1962891,0.4604492,0.2939453,0.9521484,0.2939453,1.4741211c0,0.9179688-0.1650391,2.6220703-0.4912109,5.1098633
			c-0.328125,2.4902344-0.4912109,4.6518555-0.4912109,6.4853516c0,0.5249023,0.03125,1.0810547,0.0986328,1.6704102
			c0.0644531,0.5898438,0.1630859,0.9521484,0.2949219,1.0810547c4.4521484-4.1918945,9.0712891-7.4682617,13.8554688-9.8266602
			c4.78125-2.3583984,10.1855469-3.5375977,16.2138672-3.5375977c6.6816406,0,12.2832031,2.5551758,16.8027344,7.6645508
			c4.5205078,5.1098633,6.7802734,11.8598633,6.7802734,20.2426758v42.84375c0,2.6225586,0.7861328,4.3237305,2.3583984,5.1098633
			s3.3408203,1.5078125,5.3066406,2.1621094c1.046875,0.3930664,2.0292969,0.8842773,2.9482422,1.4736328
			c0.9150391,0.5898438,1.375,1.409668,1.375,2.4570312c0,0.7861328-0.4267578,1.3754883-1.2773438,1.7685547
			c-0.8535156,0.3930664-1.6699219,0.5893555-2.4560547,0.5893555c-2.6230469,0-4.9140625-0.0981445-6.8789062-0.2944336
			c-1.9648438-0.1967773-3.8994141-0.359375-5.7978516-0.4912109c-1.9003906-0.1293945-4.0283203-0.1967773-6.3867188-0.1967773
			c-2.2294922,0-4.3242188,0.0673828-6.2890625,0.1967773c-1.9658203,0.1318359-3.9648438,0.2944336-5.9941406,0.4912109
			c-2.0332031,0.1962891-4.3574219,0.2944336-6.9775391,0.2944336c-0.65625,0-1.375-0.1962891-2.1611328-0.5893555
			s-1.1796875-0.9824219-1.1796875-1.7685547c0-1.0473633,0.3935547-1.8671875,1.1796875-2.4570312
			c0.7861328-0.5893555,1.7011719-1.0805664,2.7509766-1.4736328c1.9658203-0.6542969,3.7001953-1.3759766,5.2080078-2.1621094
			c1.5048828-0.7861328,2.2607422-2.4873047,2.2607422-5.1098633v-39.8955078c0-5.2387695-1.2783203-9.3662109-3.8330078-12.3813477
			c-2.5546875-3.0126953-5.9941406-4.5205078-10.3173828-4.5205078c-3.5380859,0-6.6181641,0.5253906-9.2373047,1.5722656
			c-2.6220703,1.050293-5.1767578,2.5551758-7.6650391,4.5205078c-0.5244141,0.3930664-0.9179688,0.9516602-1.1787109,1.6704102
			c-0.2636719,0.7216797-0.3935547,1.4741211-0.3935547,2.2602539v46.7739258c0,2.6225586,0.7529297,4.3574219,2.2607422,5.2080078
			c1.5048828,0.8540039,3.2421875,1.5419922,5.2080078,2.0639648c2.7509766,0.9179688,4.1269531,2.1616211,4.1269531,3.7338867
			c0,0.7861328-0.328125,1.409668-0.9824219,1.8671875c-0.6572266,0.4575195-1.5078125,0.6875-2.5546875,0.6875
			c-2.6230469,0-4.9140625-0.0981445-6.8789062-0.2944336c-1.9648438-0.1967773-3.8662109-0.359375-5.6992188-0.4912109
			c-1.8369141-0.1293945-3.9306641-0.1967773-6.2890625-0.1967773c-2.2294922,0-4.3242188,0.0673828-6.2890625,0.1967773
			c-1.9658203,0.1318359-3.9980469,0.2944336-6.0927734,0.4912109
			C1790.0072021,846.213562,1787.6488037,846.3117065,1785.0286865,846.3117065z"/>
		<path d="M1922.7962646,846.3117065c-1.0507812,0-1.9013672-0.2299805-2.5546875-0.6875
			c-0.6572266-0.4575195-0.9833984-1.0810547-0.9833984-1.8671875c0-1.046875,0.3935547-1.8330078,1.1796875-2.3583984
			c0.7861328-0.5219727,1.7011719-0.9150391,2.7509766-1.1791992c3.1445312-0.7861328,5.4052734-1.6367188,6.7802734-2.5546875
			c1.3759766-0.9150391,2.0644531-2.4873047,2.0644531-4.7167969v-42.6474609c0-4.1914062-0.6572266-7.3359375-1.9658203-9.4331055
			c-1.3115234-2.0942383-3.5371094-3.4057617-6.6816406-3.9306641c-0.6572266-0.1289062-1.1796875-0.4912109-1.5722656-1.0810547
			c-0.3935547-0.5893555-0.5898438-1.2773438-0.5898438-2.0634766c0-1.8334961,0.71875-2.815918,2.1621094-2.9482422
			c6.2890625-1.3081055,11.7578125-3.1103516,16.4101562-5.4042969c4.6494141-2.2910156,8.2207031-4.0932617,10.7109375-5.4047852
			c1.8330078-0.9150391,3.0126953-1.3754883,3.5371094-1.3754883c1.4404297,0,2.1621094,0.6572266,2.1621094,1.965332
			c-0.1318359,1.8364258-0.3935547,4.3574219-0.7861328,7.5664062c-0.3935547,3.2119141-0.7558594,6.6176758-1.0810547,10.2197266
			c-0.328125,3.6049805-0.4912109,6.9765625-0.4912109,10.1210938v44.2192383c0,1.965332,0.71875,3.4731445,2.1621094,4.5205078
			c1.4394531,1.050293,3.7333984,2.0327148,6.8779297,2.9477539c1.0478516,0.3930664,1.9658203,0.8198242,2.7519531,1.2773438
			c0.7861328,0.4609375,1.1787109,1.2133789,1.1787109,2.2602539c0,1.5722656-1.1142578,2.3583984-3.3408203,2.3583984
			c-2.4902344,0-4.8828125-0.0673828-7.1728516-0.1967773c-2.2939453-0.1318359-4.5205078-0.2607422-6.6826172-0.3925781
			c-2.1621094-0.1293945-4.421875-0.1967773-6.7802734-0.1967773c-2.2294922,0-4.390625,0.0673828-6.4853516,0.1967773
			c-2.0976562,0.1318359-4.2255859,0.2944336-6.3876953,0.4912109
			C1927.8079834,846.213562,1925.4154053,846.3117065,1922.7962646,846.3117065z M1942.449585,747.260437
			c-3.8017578,0-7.0107422-1.3081055-9.6298828-3.9306641c-2.6230469-2.6191406-3.9306641-5.7636719-3.9306641-9.4335938
			c0-4.0595703,1.3076172-7.4003906,3.9306641-10.0229492c2.6191406-2.6191406,5.828125-3.9306641,9.6298828-3.9306641
			c3.9306641,0,7.2041016,1.3115234,9.8261719,3.9306641c2.6191406,2.6225586,3.9306641,5.9633789,3.9306641,10.0229492
			c0,3.6699219-1.3115234,6.8144531-3.9306641,9.4335938C1949.6536865,745.9523315,1946.380249,747.260437,1942.449585,747.260437z"
			/>
		<path d="M2030.2962646,848.4738159c-4.1943359,0-8.2236328-0.559082-12.0869141-1.6704102
			c-3.8662109-1.1118164-7.3691406-2.7822266-10.5136719-5.0117188c-0.9189453-1.8330078-1.6064453-4.7167969-2.0634766-8.6474609
			c-0.4609375-3.9306641-0.6884766-7.793457-0.6884766-11.5952148c0-1.5722656,1.1113281-2.3583984,3.3408203-2.3583984
			c0.9150391,0,1.7011719,0.2641602,2.3583984,0.7861328c0.6542969,0.5253906,1.1123047,1.1147461,1.3759766,1.769043
			c2.2265625,5.7666016,5.0419922,10.3852539,8.4511719,13.8554688c3.4052734,3.4726562,7.2714844,5.2080078,11.5947266,5.2080078
			c3.6669922,0,6.5507812-1.1455078,8.6474609-3.4394531c2.0947266-2.2910156,3.1445312-4.9438477,3.1445312-7.9594727
			c0-3.5375977-1.2773438-6.4853516-3.8320312-8.84375s-6.0615234-4.78125-10.5146484-7.2719727
			c-4.0625-2.2260742-7.6982422-4.5844727-10.9072266-7.074707c-3.2119141-2.487793-5.7333984-5.3374023-7.5664062-8.5493164
			c-1.8369141-3.2089844-2.7519531-6.9770508-2.7519531-11.300293c0-4.8457031,1.2441406-9.1049805,3.734375-12.7749023
			c2.4873047-3.6665039,5.9941406-6.5498047,10.5146484-8.6469727c4.5205078-2.0942383,9.7285156-3.1445312,15.6240234-3.1445312
			c4.1914062,0,7.9599609,0.4604492,11.3009033,1.3754883c3.3408203,0.918457,5.6650391,1.8364258,6.9765625,2.7514648
			c1.046875,1.3110352,1.8974609,3.7036133,2.5546875,7.1733398c0.6542969,3.4731445,0.9824219,7.1088867,0.9824219,10.9077148
			c0,1.1791992-0.9824219,1.7685547-2.9472656,1.7685547c-0.9179688,0-1.8369141-0.2612305-2.7519531-0.7861328
			c-0.9179688-0.5219727-1.5078125-1.046875-1.7685547-1.5722656c-1.7041016-4.8457031-3.8662109-8.5151367-6.4854736-11.0058594
			c-2.6230469-2.4873047-5.6347656-3.7338867-9.0400391-3.7338867c-3.015625,0-5.7333984,0.9521484-8.15625,2.8496094
			c-2.4257812,1.9008789-3.6357422,4.5541992-3.6357422,7.9594727c0,2.7514648,1.1455078,5.2421875,3.4384766,7.4682617
			c2.2910156,2.2294922,5.6015625,4.5200195,9.9248047,6.878418c8.2548828,4.4560547,14.2149658,8.6811523,17.8848877,12.6762695
			c3.6669922,3.9985352,5.5029297,9.3354492,5.5029297,16.0175781c0,7.9931641-2.7519531,14.315918-8.2539062,18.9648438
			C2048.1811523,846.1461792,2040.3841553,848.4738159,2030.2962646,848.4738159z"/>
		<path d="M2138.7797852,848.4738159c-6.8134766,0-12.9707031-1.769043-18.4736328-5.3061523
			c-5.5029297-3.5375977-9.8603516-8.4174805-13.0693359-14.6416016
			c-3.2119141-6.2216797-4.8144531-13.1982422-4.8144531-20.9306641c0-8.5151367,1.9648438-16.2138672,5.8955078-23.0922852
			s9.1386719-12.3476562,15.6240234-16.4101562c6.4853516-4.0600586,13.7236328-6.0927734,21.7167969-6.0927734
			c9.9560547,0,18.3417969,3.1445312,25.15625,9.4335938c1.3076172,1.1791992,1.9648438,2.3583984,1.9648438,3.5375977
			c0,0.9179688-0.5244141,2.097168-1.5722656,3.5375977c-1.0498047,1.4433594-2.2939453,2.6870117-3.7333984,3.7338867
			c-1.4433594,1.050293-2.6875,1.5722656-3.734375,1.5722656c-1.0507812,0-2.0332031-0.3256836-2.9482422-0.9824219
			c-0.9179688-0.6542969-1.8359375-1.3759766-2.7509766-2.1621094c-3.2763672-2.6191406-6.6826172-4.8457031-10.2197266-6.6821289
			c-3.5380859-1.8330078-6.5537109-2.7514648-9.0410156-2.7514648c-5.3730469,0-9.5654297,2.3583984-12.5771484,7.0751953
			c-3.015625,4.7167969-4.5205078,11.7919922-4.5205078,21.2255859c0,6.4208984,1.1113281,11.9882812,3.3408203,16.7050781
			c2.2265625,4.7167969,5.3710938,8.3862305,9.4335938,11.0053711c4.0595703,2.6225586,8.7763672,3.9306641,14.1503906,3.9306641
			c3.9306641,0,7.3017578-0.6201172,10.1210938-1.8666992c2.8164062-1.2436523,5.7978516-3.2426758,8.9423828-5.9941406
			c0.5214844-0.3930664,1.0136719-0.7524414,1.4736328-1.0810547c0.4580078-0.3256836,0.9492188-0.4912109,1.4746094-0.4912109
			c1.4394531,0,2.1611328,1.0498047,2.1611328,3.1445312c0,0.5249023-0.1318359,1.2773438-0.3925781,2.2597656
			c-0.2646484,0.9829102-0.7861328,2.0634766-1.5722656,3.2426758c-1.4433594,2.6225586-3.7675781,5.3740234-6.9765625,8.2543945
			c-3.2128906,2.8837891-6.9130859,5.2416992-11.1044922,7.0751953
			C2148.5395508,847.5558472,2143.8901367,848.4738159,2138.7797852,848.4738159z"/>
		<path d="M2214.4418945,846.3117065c-2.6220703,0-3.9306641-0.8505859-3.9306641-2.5546875
			c0-1.4399414,1.5048828-2.684082,4.5205078-3.7338867c1.9648438-0.6542969,3.7646484-1.4067383,5.4042969-2.2602539
			c1.6367188-0.8505859,2.4570312-2.6533203,2.4570312-5.4047852V736.647644c0-3.5375977-0.4912109-6.6142578-1.4746094-9.2368164
			c-0.9824219-2.6191406-3.1777344-4.2558594-6.5830078-4.9130859c-1.3115234-0.2612305-1.9658203-1.2436523-1.9658203-2.9482422
			c0-1.4399414,0.5898438-2.3583984,1.7685547-2.7514648c2.6201172-0.6538086,5.6660156-1.5380859,9.1386719-2.652832
			c3.4707031-1.1118164,6.8789062-2.2910156,10.2197266-3.5375977c3.3408203-1.2436523,6.0585938-2.1928711,8.15625-2.8496094
			c0.9150391-0.3930664,1.5722656-0.5898438,1.9658203-0.5898438c0.7861328,0,1.3076172,0.1967773,1.5712891,0.5898438
			c0.2617188,0.3930664,0.3935547,0.8535156,0.3935547,1.3754883c0,0.7861328-0.1318359,1.8364258-0.3935547,3.1445312
			c-0.2636719,1.3110352-0.4912109,3.1137695-0.6875,5.4047852c-0.1962891,2.293457-0.2949219,5.4042969-0.2949219,9.3349609
			v41.8608398c0,1.5722656,0.0644531,2.8500977,0.1972656,3.8325195c0.1289062,0.9829102,0.4570312,1.7382812,0.9824219,2.2602539
			c1.9648438-1.5722656,4.3876953-3.371582,7.2714844-5.4047852c2.8798828-2.0297852,6.1572266-3.7983398,9.8261719-5.3061523
			c3.6669922-1.5048828,7.6650391-2.2602539,11.9882812-2.2602539c6.8115234,0,12.4804688,2.4907227,17,7.4682617
			c4.5205078,4.980957,6.7802734,11.6630859,6.7802734,20.0458984v42.2543945c0,2.7514648,0.7861328,4.6523438,2.3583984,5.6992188
			c1.5722656,1.050293,3.2734375,1.9008789,5.1103516,2.5551758c1.4394531,0.5249023,2.5205078,1.0498047,3.2421875,1.5722656
			c0.71875,0.5249023,1.0810547,1.246582,1.0810547,2.1616211c0,1.7041016-1.3759766,2.5546875-4.1269531,2.5546875
			c-3.015625,0-5.4042969-0.0981445-7.1738281-0.2944336c-1.7685547-0.1967773-3.4384766-0.359375-5.0107422-0.4912109
			c-1.5722656-0.1293945-3.734375-0.1967773-6.4863281-0.1967773c-2.6220703,0-4.6855469,0.0673828-6.1904297,0.1967773
			c-1.5078125,0.1318359-3.0458984,0.2944336-4.6181641,0.4912109c-1.5722656,0.1962891-3.8662109,0.2944336-6.8789062,0.2944336
			c-2.8828125,0-4.3232422-0.9150391-4.3232422-2.7509766c0-0.9155273,0.3925781-1.6367188,1.1787109-2.1621094
			c0.7861328-0.5219727,1.7685547-0.9824219,2.9482422-1.3754883c1.8330078-0.5219727,3.4697266-1.3759766,4.9130859-2.5551758
			c1.4404297-1.1791992,2.1621094-3.1445312,2.1621094-5.8959961v-39.109375c0-3.0126953-0.7216797-5.7299805-2.1621094-8.15625
			c-1.4433594-2.4228516-3.2421875-4.3540039-5.4042969-5.7973633c-2.1621094-1.4404297-4.4892578-2.1621094-6.9765625-2.1621094
			c-2.0976562,0-4.4560547,0.3286133-7.0751953,0.9829102c-2.6230469,0.6572266-4.9814453,1.7685547-7.0751953,3.3408203
			c-1.4433594,1.050293-2.3925781,2.1958008-2.8496094,3.4394531c-0.4609375,1.246582-0.6884766,3.2426758-0.6884766,5.9941406
			v42.0576172c0.1289062,2.6225586,0.8847656,4.421875,2.2607422,5.4042969
			c1.375,0.9829102,2.9140625,1.8027344,4.6181641,2.4570312c1.3076172,0.3930664,2.3242188,0.8535156,3.0458984,1.3754883
			c0.71875,0.5253906,1.0810547,1.246582,1.0810547,2.1621094c0,1.8359375-1.1787109,2.7509766-3.5371094,2.7509766
			c-2.6230469,0-4.9140625-0.0981445-6.8789062-0.2944336c-1.9648438-0.1967773-3.8320312-0.359375-5.6015625-0.4912109
			c-1.7685547-0.1293945-3.8320312-0.1967773-6.1904297-0.1967773c-2.2294922,0-4.2929688,0.0673828-6.1904297,0.1967773
			c-1.9013672,0.1318359-3.8662109,0.2944336-5.8964844,0.4912109
			C2219.3862305,846.213562,2217.0610352,846.3117065,2214.4418945,846.3117065z"/>
		<path d="M2350.8344727,813.0983276c-1.1796875,0-1.7685547-0.5898438-1.7685547-1.769043
			c0-3.4052734,0.3251953-6.1567383,0.9824219-8.2539062c0.6542969-2.0942383,1.6367188-3.2089844,2.9482422-3.3413086
			c6.8105469-1.046875,13.8554688-2.0634766,21.1269531-3.0458984c7.2714844-0.9829102,14.3125-1.7998047,21.1269531-2.4570312
			c1.046875,0,1.734375,0.2304688,2.0634766,0.6879883c0.3251953,0.4604492,0.4912109,1.0166016,0.4912109,1.6704102
			c0,3.5375977-0.2636719,6.190918-0.7861328,7.9594727c-0.5253906,1.769043-1.5722656,2.7851562-3.1445312,3.0463867
			c-6.6816406,0.9179688-13.7910156,1.9008789-21.3232422,2.9477539
			C2365.0151367,811.5934448,2357.777832,812.4440308,2350.8344727,813.0983276z"/>
		<path d="M2440.0561523,846.3117065c-2.7509766,0-4.1269531-0.8505859-4.1269531-2.5546875
			c0-1.046875,0.4238281-1.7993164,1.2773438-2.2602539c0.8505859-0.4575195,1.9316406-0.9487305,3.2431641-1.4736328
			c1.9648438-0.6542969,3.7646484-1.4067383,5.4042969-2.2602539c1.6367188-0.8505859,2.4570312-2.6533203,2.4570312-5.4047852
			V736.647644c0-4.0595703-0.5595703-7.2714844-1.6708984-9.6298828c-1.1142578-2.3583984-3.3105469-3.862793-6.5839844-4.5200195
			c-1.3105469-0.2612305-1.9648438-1.2436523-1.9648438-2.9482422c0-1.5722656,0.5898438-2.4873047,1.7685547-2.7514648
			c3.4052734-0.6538086,6.8115234-1.5722656,10.2197266-2.7514648c3.4052734-1.1791992,6.6142578-2.3583984,9.6298828-3.5371094
			c3.0126953-1.1791992,5.5029297-2.0947266,7.46875-2.7514648c1.046875-0.3930664,1.8330078-0.5898438,2.3583984-0.5898438
			c0.6533203,0,1.1113281,0.1967773,1.375,0.5898438c0.2617188,0.3930664,0.3935547,0.9179688,0.3935547,1.5722656
			c0,1.1791992-0.1972656,3.2426758-0.5898438,6.1904297c-0.3925781,2.9482422-0.6572266,6.7802734-0.7861328,11.4970703
			l0.1962891,70.5546875c0,1.4433594,0.4580078,2.1616211,1.3759766,2.1616211c0.5224609,0,1.2099609-0.1962891,2.0634766-0.5893555
			c0.8505859-0.3930664,1.6708984-0.9829102,2.4570312-1.769043c4.9775391-4.3237305,9.3349609-8.5151367,13.0693359-12.5776367
			c3.7333984-4.0595703,6.2548828-7.0078125,7.5664062-8.8442383c0.6533203-0.7861328,1.1113281-1.4399414,1.375-1.965332
			c0.2617188-0.5219727,0.3935547-0.9824219,0.3935547-1.3754883c0-0.6542969-0.5253906-1.2773438-1.5722656-1.8671875
			c-1.0507812-0.5893555-2.4902344-1.0131836-4.3242188-1.2773438c-1.5722656-0.3930664-2.3574219-1.1791992-2.3574219-2.3583984
			c0-0.9150391,0.4570312-1.5722656,1.375-1.965332c0.9150391-0.3930664,1.8984375-0.5893555,2.9482422-0.5893555h9.6298828
			c2.2265625,0,5.0117188-0.1293945,8.3525391-0.3930664c3.3408203-0.2612305,6.5498047-0.5561523,9.6298828-0.8847656
			c3.0771484-0.3251953,5.4052734-0.5556641,6.9765625-0.6875c1.5722656,0,2.3583984,0.7216797,2.3583984,2.1616211
			c0,0.9179688-0.4267578,1.7041016-1.2773438,2.3583984c-0.8535156,0.6572266-1.9990234,1.1791992-3.4384766,1.5722656
			c-2.3583984,0.5249023-4.8828125,1.409668-7.5664062,2.6533203c-2.6875,1.246582-5.4052734,2.652832-8.15625,4.2250977
			c-1.7041016,0.918457-3.8662109,2.3583984-6.4853516,4.3237305c-2.6230469,1.965332-5.3408203,4.0966797-8.15625,6.387207
			c-2.8193359,2.2939453-5.4052734,4.5541992-7.7626953,6.7802734c-0.6572266,0.6572266-0.9833984,1.3115234-0.9833984,1.965332
			c0,0.3930664,0.0986328,0.7216797,0.2949219,0.9829102c0.1962891,0.2641602,0.4238281,0.5893555,0.6884766,0.9824219
			c3.2734375,4.0629883,6.515625,8.1254883,9.7275391,12.1850586c3.2089844,4.0625,6.3203125,7.8613281,9.3359375,11.3989258
			c3.0117188,3.5375977,5.6992188,6.6816406,8.0576172,9.4331055c2.2255859,2.2294922,4.8789062,4.2929688,7.9589844,6.190918
			c3.0771484,1.9008789,5.6015625,3.1782227,7.5664062,3.8325195c1.3085938,0.5249023,2.5859375,1.0161133,3.8330078,1.4736328
			c1.2431641,0.4609375,1.8662109,1.2133789,1.8662109,2.2602539c0,1.7041016-1.375,2.5546875-4.1269531,2.5546875
			c-7.0751953,0-14.1835938-0.0981445-21.3232422-0.2944336c-7.1425781-0.1967773-13.9873047-0.2949219-20.5380859-0.2949219
			c-2.4902344,0-3.7333984-0.7861328-3.7333984-2.3583984c0-0.9150391,0.359375-1.6704102,1.0810547-2.2602539
			c0.7177734-0.5893555,1.6699219-1.0805664,2.8496094-1.4736328c1.1787109-0.3930664,2.09375-0.8847656,2.7509766-1.4741211
			c0.6542969-0.5898438,1.046875-1.2773438,1.1796875-2.0634766c0-0.5219727-0.1972656-1.0810547-0.5898438-1.6704102
			c-0.3935547-0.5898438-0.9179688-1.3422852-1.5722656-2.2602539l-20.4394531-26.3349609
			c-0.5244141-0.6542969-0.9824219-0.9829102-1.3759766-0.9829102c-0.65625,0.1318359-0.9824219,0.6572266-0.9824219,1.5722656
			c-0.1318359,1.8364258-0.1962891,3.8017578-0.1962891,5.8959961c0,2.097168,0,4.1948242,0,6.2890625
			c0,2.2294922,0,4.5200195,0,6.878418s0.0644531,4.6523438,0.1962891,6.878418
			c0,2.3583984,0.5224609,4.0629883,1.5722656,5.1098633c1.0478516,1.050293,2.5546875,1.9008789,4.5205078,2.5551758
			c1.046875,0.3930664,2.0292969,0.8198242,2.9482422,1.2773438c0.9150391,0.4604492,1.375,1.2128906,1.375,2.2602539
			c0,0.9179688-0.4599609,1.605957-1.375,2.0634766c-0.9189453,0.4575195-1.7695312,0.6875-2.5556641,0.6875
			c-2.4902344,0-4.6513672-0.0981445-6.4853516-0.2944336c-1.8359375-0.1967773-3.6044922-0.359375-5.3056641-0.4912109
			c-1.7050781-0.1293945-3.734375-0.1967773-6.0927734-0.1967773c-2.2294922,0-4.2587891,0.0673828-6.0927734,0.1967773
			c-1.8359375,0.1318359-3.7333984,0.2944336-5.6992188,0.4912109
			C2444.9702148,846.213562,2442.6762695,846.3117065,2440.0561523,846.3117065z"/>
		<path d="M2610.840332,848.4738159c-7.7314453,0-14.6748047-1.7382812-20.8320312-5.2080078
			c-6.1601562-3.4702148-11.0732422-8.2851562-14.7392578-14.4453125
			c-3.6699219-6.1567383-5.5029297-13.0996094-5.5029297-20.8320312c0-6.0249023,1.1787109-11.7919922,3.5371094-17.2949219
			c2.3583984-5.5024414,5.5673828-10.4160156,9.6298828-14.7397461c4.0595703-4.3237305,8.84375-7.7626953,14.3466797-10.3178711
			c5.5029297-2.5546875,11.3994141-3.8320312,17.6884766-3.8320312c7.9902344,0,15.1630859,1.8666992,21.5195312,5.6010742
			c6.3535156,3.7338867,11.4296875,8.6811523,15.2314453,14.8378906c3.7988281,6.1601562,5.6992188,12.9067383,5.6992188,20.2426758
			c0,8.1254883-1.7382812,15.6918945-5.2080078,22.6992188c-3.4726562,7.0107422-8.6474609,12.6455078-15.5263672,16.9018555
			C2629.8061523,846.3424683,2621.1889648,848.4738159,2610.840332,848.4738159z M2614.7709961,840.8092651
			c3.2734375,0,6.1914062-0.6542969,8.7460938-1.965332c2.5546875-1.3081055,4.6181641-3.3413086,6.1904297-6.0927734
			s2.6533203-6.387207,3.2431641-10.9072266c0.5888672-4.5205078,0.8837891-9.3999023,0.8837891-14.6416016
			c0-6.9428711-0.9179688-13.2319336-2.7509766-18.8671875c-1.8369141-5.6318359-4.3916016-10.1518555-7.6650391-13.5605469
			c-3.2763672-3.4052734-7.1425781-5.1098633-11.5947266-5.1098633c-2.4912109,0-4.7509766,0.4272461-6.7802734,1.277832
			c-2.0332031,0.8535156-3.9003906,2.2597656-5.6015625,4.2250977c-2.3583984,2.7514648-3.9638672,6.5195312-4.8154297,11.3007812
			c-0.8535156,4.7841797-1.2773438,10.3178711-1.2773438,16.6069336c0,6.2885742,0.9492188,12.3168945,2.8496094,18.0805664
			c1.8984375,5.7670898,4.453125,10.4838867,7.6650391,14.1503906
			C2607.0727539,838.975769,2610.7084961,840.8092651,2614.7709961,840.8092651z"/>
		<path d="M2733.8686523,848.4738159c-6.8134766,0-12.9707031-1.769043-18.4736328-5.3061523
			c-5.5029297-3.5375977-9.8603516-8.4174805-13.0693359-14.6416016
			c-3.2119141-6.2216797-4.8144531-13.1982422-4.8144531-20.9306641c0-8.5151367,1.9648438-16.2138672,5.8955078-23.0922852
			s9.1386719-12.3476562,15.6240234-16.4101562c6.4853516-4.0600586,13.7236328-6.0927734,21.7167969-6.0927734
			c9.9560547,0,18.3417969,3.1445312,25.15625,9.4335938c1.3076172,1.1791992,1.9648438,2.3583984,1.9648438,3.5375977
			c0,0.9179688-0.5244141,2.097168-1.5722656,3.5375977c-1.0498047,1.4433594-2.2939453,2.6870117-3.7333984,3.7338867
			c-1.4433594,1.050293-2.6875,1.5722656-3.734375,1.5722656c-1.0507812,0-2.0332031-0.3256836-2.9482422-0.9824219
			c-0.9179688-0.6542969-1.8359375-1.3759766-2.7509766-2.1621094c-3.2763672-2.6191406-6.6826172-4.8457031-10.2197266-6.6821289
			c-3.5380859-1.8330078-6.5537109-2.7514648-9.0410156-2.7514648c-5.3730469,0-9.5654297,2.3583984-12.5771484,7.0751953
			c-3.015625,4.7167969-4.5205078,11.7919922-4.5205078,21.2255859c0,6.4208984,1.1113281,11.9882812,3.3408203,16.7050781
			c2.2265625,4.7167969,5.3710938,8.3862305,9.4335938,11.0053711c4.0595703,2.6225586,8.7763672,3.9306641,14.1503906,3.9306641
			c3.9306641,0,7.3017578-0.6201172,10.1210938-1.8666992c2.8164062-1.2436523,5.7978516-3.2426758,8.9423828-5.9941406
			c0.5214844-0.3930664,1.0136719-0.7524414,1.4736328-1.0810547c0.4580078-0.3256836,0.9492188-0.4912109,1.4746094-0.4912109
			c1.4394531,0,2.1611328,1.0498047,2.1611328,3.1445312c0,0.5249023-0.1318359,1.2773438-0.3925781,2.2597656
			c-0.2646484,0.9829102-0.7861328,2.0634766-1.5722656,3.2426758c-1.4433594,2.6225586-3.7675781,5.3740234-6.9765625,8.2543945
			c-3.2128906,2.8837891-6.9130859,5.2416992-11.1044922,7.0751953
			C2743.628418,847.5558472,2738.9790039,848.4738159,2733.8686523,848.4738159z"/>
		<path d="M2809.5307617,846.3117065c-2.6220703,0-3.9306641-0.8505859-3.9306641-2.5546875
			c0-1.4399414,1.5048828-2.684082,4.5205078-3.7338867c1.9648438-0.6542969,3.7646484-1.4067383,5.4042969-2.2602539
			c1.6367188-0.8505859,2.4570312-2.6533203,2.4570312-5.4047852V736.647644c0-3.5375977-0.4912109-6.6142578-1.4746094-9.2368164
			c-0.9824219-2.6191406-3.1777344-4.2558594-6.5830078-4.9130859c-1.3115234-0.2612305-1.9658203-1.2436523-1.9658203-2.9482422
			c0-1.4399414,0.5898438-2.3583984,1.7685547-2.7514648c2.6201172-0.6538086,5.6660156-1.5380859,9.1386719-2.652832
			c3.4707031-1.1118164,6.8789062-2.2910156,10.2197266-3.5375977c3.3408203-1.2436523,6.0585938-2.1928711,8.15625-2.8496094
			c0.9150391-0.3930664,1.5722656-0.5898438,1.9658203-0.5898438c0.7861328,0,1.3076172,0.1967773,1.5712891,0.5898438
			c0.2617188,0.3930664,0.3935547,0.8535156,0.3935547,1.3754883c0,0.7861328-0.1318359,1.8364258-0.3935547,3.1445312
			c-0.2636719,1.3110352-0.4912109,3.1137695-0.6875,5.4047852c-0.1962891,2.293457-0.2949219,5.4042969-0.2949219,9.3349609
			v41.8608398c0,1.5722656,0.0644531,2.8500977,0.1972656,3.8325195c0.1289062,0.9829102,0.4570312,1.7382812,0.9824219,2.2602539
			c1.9648438-1.5722656,4.3876953-3.371582,7.2714844-5.4047852c2.8798828-2.0297852,6.1572266-3.7983398,9.8261719-5.3061523
			c3.6669922-1.5048828,7.6650391-2.2602539,11.9882812-2.2602539c6.8115234,0,12.4804688,2.4907227,17,7.4682617
			c4.5205078,4.980957,6.7802734,11.6630859,6.7802734,20.0458984v42.2543945c0,2.7514648,0.7861328,4.6523438,2.3583984,5.6992188
			c1.5722656,1.050293,3.2734375,1.9008789,5.1103516,2.5551758c1.4394531,0.5249023,2.5205078,1.0498047,3.2421875,1.5722656
			c0.71875,0.5249023,1.0810547,1.246582,1.0810547,2.1616211c0,1.7041016-1.3759766,2.5546875-4.1269531,2.5546875
			c-3.015625,0-5.4042969-0.0981445-7.1738281-0.2944336c-1.7685547-0.1967773-3.4384766-0.359375-5.0107422-0.4912109
			c-1.5722656-0.1293945-3.734375-0.1967773-6.4863281-0.1967773c-2.6220703,0-4.6855469,0.0673828-6.1904297,0.1967773
			c-1.5078125,0.1318359-3.0458984,0.2944336-4.6181641,0.4912109c-1.5722656,0.1962891-3.8662109,0.2944336-6.8789062,0.2944336
			c-2.8828125,0-4.3232422-0.9150391-4.3232422-2.7509766c0-0.9155273,0.3925781-1.6367188,1.1787109-2.1621094
			c0.7861328-0.5219727,1.7685547-0.9824219,2.9482422-1.3754883c1.8330078-0.5219727,3.4697266-1.3759766,4.9130859-2.5551758
			c1.4404297-1.1791992,2.1621094-3.1445312,2.1621094-5.8959961v-39.109375c0-3.0126953-0.7216797-5.7299805-2.1621094-8.15625
			c-1.4433594-2.4228516-3.2421875-4.3540039-5.4042969-5.7973633c-2.1621094-1.4404297-4.4892578-2.1621094-6.9765625-2.1621094
			c-2.0976562,0-4.4560547,0.3286133-7.0751953,0.9829102c-2.6230469,0.6572266-4.9814453,1.7685547-7.0751953,3.3408203
			c-1.4433594,1.050293-2.3925781,2.1958008-2.8496094,3.4394531c-0.4609375,1.246582-0.6884766,3.2426758-0.6884766,5.9941406
			v42.0576172c0.1289062,2.6225586,0.8847656,4.421875,2.2607422,5.4042969
			c1.375,0.9829102,2.9140625,1.8027344,4.6181641,2.4570312c1.3076172,0.3930664,2.3242188,0.8535156,3.0458984,1.3754883
			c0.71875,0.5253906,1.0810547,1.246582,1.0810547,2.1621094c0,1.8359375-1.1787109,2.7509766-3.5371094,2.7509766
			c-2.6230469,0-4.9140625-0.0981445-6.8789062-0.2944336c-1.9648438-0.1967773-3.8320312-0.359375-5.6015625-0.4912109
			c-1.7685547-0.1293945-3.8320312-0.1967773-6.1904297-0.1967773c-2.2294922,0-4.2929688,0.0673828-6.1904297,0.1967773
			c-1.9013672,0.1318359-3.8662109,0.2944336-5.8964844,0.4912109
			C2814.4750977,846.213562,2812.1499023,846.3117065,2809.5307617,846.3117065z"/>
		<path d="M2980.512207,848.4738159c-7.2070312,0-13.5605469-1.8364258-19.0634766-5.5029297
			c-5.5019531-3.6665039-9.8261719-8.7456055-12.9707031-15.230957c-3.1445312-6.4858398-4.7167969-13.8554688-4.7167969-22.1098633
			c0-7.9902344,1.8671875-15.2954102,5.6015625-21.9130859c3.7333984-6.6147461,8.7451172-11.8901367,15.0341797-15.8208008
			s13.1679688-5.8959961,20.6357422-5.8959961c5.5029297,0,10.4160156,1.1484375,14.7402344,3.4394531
			c4.3232422,2.2939453,7.7626953,5.4384766,10.3173828,9.4335938c2.5546875,3.9980469,3.8330078,8.484375,3.8330078,13.4619141
			c0,4.7167969-2.0332031,7.0751953-6.0927734,7.0751953h-39.8955078c-1.8369141,0-3.1787109,0.4916992-4.0292969,1.4741211
			c-0.8535156,0.9824219-1.2773438,2.7851562-1.2773438,5.4047852c0,5.5024414,1.2099609,10.4833984,3.6357422,14.9360352
			c2.4228516,4.4560547,5.6660156,7.9931641,9.7285156,10.612793c4.0595703,2.6225586,8.7119141,3.9306641,13.953125,3.9306641
			c3.7988281,0,7.3027344-0.7524414,10.5146484-2.2602539c3.2089844-1.5043945,6.2548828-3.5683594,9.1386719-6.1904297
			c0.5224609-0.3930664,0.9824219-0.7524414,1.3759766-1.0810547c0.3925781-0.3256836,0.7861328-0.4912109,1.1787109-0.4912109
			c1.3085938,0,1.9658203,0.7861328,1.9658203,2.3583984c0,1.8359375-0.7861328,4.0625-2.3583984,6.6816406
			c-1.5722656,3.015625-3.8330078,5.8959961-6.7802734,8.6474609c-2.9482422,2.7514648-6.5195312,4.9472656-10.7109375,6.5839844
			C2990.074707,847.6539917,2985.4907227,848.4738159,2980.512207,848.4738159z M2967.9350586,787.7457886h13.953125
			c3.4052734,0,5.9609375-0.0644531,7.6650391-0.1962891c1.7011719-0.1293945,3.3408203-0.3930664,4.9130859-0.7861328
			c0.6542969-0.1293945,1.1113281-0.6879883,1.3759766-1.6708984c0.2607422-0.9824219,0.3925781-2.1279297,0.3925781-3.4389648
			c0-3.5375977-1.3447266-6.5166016-4.0283203-8.9423828c-2.6875-2.4228516-5.9941406-3.6357422-9.9248047-3.6357422
			c-2.7519531,0-5.4384766,0.8198242-8.0576172,2.456543c-2.6230469,1.6396484-4.7851562,3.7036133-6.4863281,6.190918
			c-1.7041016,2.4902344-2.4902344,5.0454102-2.3583984,7.6645508
			C2965.3793945,786.9596558,2966.2299805,787.7457886,2967.9350586,787.7457886z"/>
		<path d="M3056.7641602,846.3117065c-1.0498047,0-1.9648438-0.2299805-2.7509766-0.6875s-1.1796875-1.0810547-1.1796875-1.8671875
			c0-1.046875,0.4238281-1.8330078,1.2783203-2.3583984c0.8505859-0.5219727,1.9306641-0.9824219,3.2421875-1.3754883
			c1.9658203-0.5219727,3.7646484-1.2436523,5.4042969-2.1621094c1.6367188-0.9150391,2.4570312-2.6835938,2.4570312-5.3061523
			v-44.0229492c0-3.0126953-0.4267578-5.6010742-1.2773438-7.7631836c-0.8535156-2.1616211-2.6533203-3.5678711-5.4042969-4.2250977
			c-0.5253906-0.2612305-0.9833984-0.6206055-1.3759766-1.0810547c-0.3935547-0.4575195-0.5898438-1.2099609-0.5898438-2.2602539
			c0-1.7011719,0.5898438-2.6835938,1.7685547-2.9477539c4.5849609-1.0473633,9.1386719-2.456543,13.6591797-4.2255859
			c4.5205078-1.7685547,8.4814453-3.6357422,11.890625-5.6010742c0.5214844-0.2607422,1.046875-0.5893555,1.5722656-0.9824219
			c0.5214844-0.3930664,1.046875-0.5898438,1.5712891-0.5898438c0.6542969,0,1.0810547,0.2304688,1.2783203,0.6879883
			c0.1962891,0.4604492,0.2939453,0.9521484,0.2939453,1.4741211c0,0.9179688-0.1650391,2.6220703-0.4912109,5.1098633
			c-0.328125,2.4902344-0.4912109,4.6518555-0.4912109,6.4853516c0,0.5249023,0.03125,1.0810547,0.0986328,1.6704102
			c0.0644531,0.5898438,0.1630859,0.9521484,0.2949219,1.0810547c4.4521484-4.1918945,9.0712891-7.4682617,13.8554688-9.8266602
			c4.78125-2.3583984,10.1855469-3.5375977,16.2138672-3.5375977c6.6816406,0,12.2832031,2.5551758,16.8027344,7.6645508
			c4.5205078,5.1098633,6.7802734,11.8598633,6.7802734,20.2426758v42.84375c0,2.6225586,0.7861328,4.3237305,2.3583984,5.1098633
			s3.3408203,1.5078125,5.3066406,2.1621094c1.046875,0.3930664,2.0292969,0.8842773,2.9482422,1.4736328
			c0.9150391,0.5898438,1.375,1.409668,1.375,2.4570312c0,0.7861328-0.4267578,1.3754883-1.2773438,1.7685547
			c-0.8535156,0.3930664-1.6699219,0.5893555-2.4560547,0.5893555c-2.6230469,0-4.9140625-0.0981445-6.8789062-0.2944336
			c-1.9648438-0.1967773-3.8994141-0.359375-5.7978516-0.4912109c-1.9003906-0.1293945-4.0283203-0.1967773-6.3867188-0.1967773
			c-2.2294922,0-4.3242188,0.0673828-6.2890625,0.1967773c-1.9658203,0.1318359-3.9648438,0.2944336-5.9941406,0.4912109
			c-2.0332031,0.1962891-4.3574219,0.2944336-6.9775391,0.2944336c-0.65625,0-1.375-0.1962891-2.1611328-0.5893555
			s-1.1796875-0.9824219-1.1796875-1.7685547c0-1.0473633,0.3935547-1.8671875,1.1796875-2.4570312
			c0.7861328-0.5893555,1.7011719-1.0805664,2.7509766-1.4736328c1.9658203-0.6542969,3.7001953-1.3759766,5.2080078-2.1621094
			c1.5048828-0.7861328,2.2607422-2.4873047,2.2607422-5.1098633v-39.8955078c0-5.2387695-1.2783203-9.3662109-3.8330078-12.3813477
			c-2.5546875-3.0126953-5.9941406-4.5205078-10.3173828-4.5205078c-3.5380859,0-6.6181641,0.5253906-9.2373047,1.5722656
			c-2.6220703,1.050293-5.1767578,2.5551758-7.6650391,4.5205078c-0.5244141,0.3930664-0.9179688,0.9516602-1.1787109,1.6704102
			c-0.2636719,0.7216797-0.3935547,1.4741211-0.3935547,2.2602539v46.7739258c0,2.6225586,0.7529297,4.3574219,2.2607422,5.2080078
			c1.5048828,0.8540039,3.2421875,1.5419922,5.2080078,2.0639648c2.7509766,0.9179688,4.1269531,2.1616211,4.1269531,3.7338867
			c0,0.7861328-0.328125,1.409668-0.9824219,1.8671875c-0.6572266,0.4575195-1.5078125,0.6875-2.5546875,0.6875
			c-2.6230469,0-4.9140625-0.0981445-6.8789062-0.2944336c-1.9648438-0.1967773-3.8662109-0.359375-5.6992188-0.4912109
			c-1.8369141-0.1293945-3.9306641-0.1967773-6.2890625-0.1967773c-2.2294922,0-4.3242188,0.0673828-6.2890625,0.1967773
			c-1.9658203,0.1318359-3.9980469,0.2944336-6.0927734,0.4912109
			C3061.7426758,846.213562,3059.3842773,846.3117065,3056.7641602,846.3117065z"/>
		<path d="M3210.253418,850.635437c-3.8017578,0-7.109375-1.4091797-9.9248047-4.2250977
			c-2.8193359-2.815918-4.2255859-6.1235352-4.2255859-9.9248047c0-4.0595703,1.40625-7.4990234,4.2255859-10.3178711
			c2.8154297-2.815918,6.1230469-4.2255859,9.9248047-4.2255859c4.0595703,0,7.4990234,1.409668,10.3173828,4.2255859
			c2.8164062,2.8188477,4.2255859,6.2583008,4.2255859,10.3178711c0,3.8012695-1.4091797,7.1088867-4.2255859,9.9248047
			C3217.7524414,849.2262573,3214.3129883,850.635437,3210.253418,850.635437z"/>
		<path d="M3329.1547852,849.4562378c-0.3935547,0-0.9521484-0.3623047-1.6708984-1.0805664
			c-0.7216797-0.7216797-1.0810547-1.277832-1.0810547-1.6708984c0.2607422-1.8330078,0.4912109-3.7646484,0.6875-5.7973633
			c0.1972656-2.0297852,0.359375-3.7646484,0.4921875-5.2080078v-1.1791992
			c-2.4912109,3.6694336-5.9941406,6.9121094-10.5146484,9.7280273s-9.6640625,4.2255859-15.4277344,4.2255859
			c-7.3388672,0-13.8251953-1.8671875-19.4570312-5.6010742c-5.6347656-3.734375-10.0566406-8.7119141-13.265625-14.9365234
			c-3.2119141-6.2211914-4.8144531-12.9370117-4.8144531-20.1445312c0-8.5151367,1.9316406-16.2133789,5.796875-23.0922852
			c3.8632812-6.878418,9.2685547-12.3134766,16.2138672-16.3120117c6.9433594-3.9951172,15.0009766-5.9941406,24.1738281-5.9941406
			c2.2265625,0,4.4863281,0.1660156,6.7802734,0.4912109c2.2910156,0.3286133,4.2900391,0.7553711,5.9941406,1.277832
			c1.5722656,0.3930664,2.4228516,0.5893555,2.5546875,0.5893555c0.6542969,0,0.9824219-1.1118164,0.9824219-3.3408203V736.647644
			c0-4.9775391-0.6572266-8.4506836-1.9648438-10.4160156c-1.3115234-1.965332-3.4082031-3.2089844-6.2890625-3.7338867
			c-1.4433594-0.3930664-2.1621094-1.3759766-2.1621094-2.9482422c0-1.4399414,0.6542969-2.3583984,1.9658203-2.7514648
			c5.109375-1.1791992,9.9248047-2.5209961,14.4443359-4.0288086c4.5205078-1.5043945,8.2207031-2.9140625,11.1044922-4.2250977
			c1.3076172-0.5224609,2.2597656-0.8847656,2.8496094-1.0810547c0.5898438-0.1967773,0.9492188-0.2949219,1.0810547-0.2949219
			c1.3076172,0,1.9648438,0.6572266,1.9648438,1.965332c-0.2636719,3.1445312-0.4912109,6.0615234-0.6875,8.7456055
			c-0.1962891,2.6870117-0.3623047,5.7333984-0.4912109,9.1386719l-0.5898438,95.7104492
			c0,4.4555664,0.3251953,7.6645508,0.9824219,9.6298828c0.6542969,1.965332,1.7695312,2.9482422,3.3417969,2.9482422
			c0.6533203,0,1.5039062-0.0307617,2.5546875-0.0981445c1.046875-0.0649414,2.8798828-0.2275391,5.5029297-0.4916992
			c1.9648438-0.1289062,2.9472656,0.5253906,2.9472656,1.965332c0,1.050293-0.3623047,2.0634766-1.0800781,3.0463867
			c-0.7216797,0.9824219-1.4101562,1.4741211-2.0644531,1.4741211c-4.4550781,0.5249023-8.9755859,1.3754883-13.5605469,2.5546875
			c-4.5878906,1.1791992-9.2363281,2.684082-13.953125,4.5200195c-0.9179688,0.3930664-1.6064453,0.6879883-2.0634766,0.8847656
			C3329.9711914,849.3580933,3329.5473633,849.4562378,3329.1547852,849.4562378z M3310.6801758,836.0924683
			c2.4873047,0,5.2392578-0.6206055,8.2548828-1.8671875c3.0117188-1.2436523,5.5673828-2.9785156,7.6640625-5.2080078v-40.878418
			c0-2.7514648-0.9179688-5.4692383-2.7509766-8.15625c-1.8369141-2.6835938-4.2597656-4.9130859-7.2714844-6.6816406
			c-3.015625-1.769043-6.2246094-2.6533203-9.6298828-2.6533203c-3.1445312,0-6.2246094,1.1484375-9.2373047,3.4394531
			c-3.015625,2.293457-5.5371094,5.7973633-7.5664062,10.5141602c-2.0332031,4.7167969-3.0458984,10.7446289-3.0458984,18.0810547
			c0,6.027832,0.7519531,11.1713867,2.2597656,15.4272461c1.5048828,4.2592773,3.4394531,7.6987305,5.7978516,10.3178711
			c2.3583984,2.6225586,4.9130859,4.5541992,7.6640625,5.7978516
			C3305.5708008,835.4718628,3308.1899414,836.0924683,3310.6801758,836.0924683z"/>
		<path d="M3435.4741211,848.4738159c-7.2070312,0-13.5605469-1.8364258-19.0634766-5.5029297
			c-5.5019531-3.6665039-9.8261719-8.7456055-12.9707031-15.230957c-3.1445312-6.4858398-4.7167969-13.8554688-4.7167969-22.1098633
			c0-7.9902344,1.8671875-15.2954102,5.6015625-21.9130859c3.7333984-6.6147461,8.7451172-11.8901367,15.0341797-15.8208008
			s13.1679688-5.8959961,20.6357422-5.8959961c5.5029297,0,10.4160156,1.1484375,14.7402344,3.4394531
			c4.3232422,2.2939453,7.7626953,5.4384766,10.3173828,9.4335938c2.5546875,3.9980469,3.8330078,8.484375,3.8330078,13.4619141
			c0,4.7167969-2.0332031,7.0751953-6.0927734,7.0751953h-39.8955078c-1.8369141,0-3.1787109,0.4916992-4.0292969,1.4741211
			c-0.8535156,0.9824219-1.2773438,2.7851562-1.2773438,5.4047852c0,5.5024414,1.2099609,10.4833984,3.6357422,14.9360352
			c2.4228516,4.4560547,5.6660156,7.9931641,9.7285156,10.612793c4.0595703,2.6225586,8.7119141,3.9306641,13.953125,3.9306641
			c3.7988281,0,7.3027344-0.7524414,10.5146484-2.2602539c3.2089844-1.5043945,6.2548828-3.5683594,9.1386719-6.1904297
			c0.5224609-0.3930664,0.9824219-0.7524414,1.3759766-1.0810547c0.3925781-0.3256836,0.7861328-0.4912109,1.1787109-0.4912109
			c1.3085938,0,1.9658203,0.7861328,1.9658203,2.3583984c0,1.8359375-0.7861328,4.0625-2.3583984,6.6816406
			c-1.5722656,3.015625-3.8330078,5.8959961-6.7802734,8.6474609c-2.9482422,2.7514648-6.5195312,4.9472656-10.7109375,6.5839844
			C3445.0366211,847.6539917,3440.4526367,848.4738159,3435.4741211,848.4738159z M3422.8969727,787.7457886h13.953125
			c3.4052734,0,5.9609375-0.0644531,7.6650391-0.1962891c1.7011719-0.1293945,3.3408203-0.3930664,4.9130859-0.7861328
			c0.6542969-0.1293945,1.1113281-0.6879883,1.3759766-1.6708984c0.2607422-0.9824219,0.3925781-2.1279297,0.3925781-3.4389648
			c0-3.5375977-1.3447266-6.5166016-4.0283203-8.9423828c-2.6875-2.4228516-5.9941406-3.6357422-9.9248047-3.6357422
			c-2.7519531,0-5.4384766,0.8198242-8.0576172,2.456543c-2.6230469,1.6396484-4.7851562,3.7036133-6.4863281,6.190918
			c-1.7041016,2.4902344-2.4902344,5.0454102-2.3583984,7.6645508
			C3420.3413086,786.9596558,3421.1918945,787.7457886,3422.8969727,787.7457886z"/>
	</g>
	<path class="st1" d="M3345.5344238,428.4619446h-0.0002441c-56.9226074,0-103.0673828-46.1448669-103.0673828-103.0674438
		v-89.0428925c0-56.9225769,46.1447754-103.0674438,103.0673828-103.0674438h0.0002441
		c56.9226074,0,103.0673828,46.1448669,103.0673828,103.0674438v89.0428925
		C3448.6018066,382.3170776,3402.4570312,428.4619446,3345.5344238,428.4619446z"/>
	<g>
		<path class="st4" d="M3327.4501953,229.0314026h27.2685547v-21.3330078h16.2001953
			c3.8496094,0,5.1328125,0.9619141,5.1328125,2.4057617c0,1.2832031-1.2832031,2.887207-2.5664062,4.3305664v14.5966797h35.7695312
			v16.0400391h-35.7695312v24.3808594h41.5439453v16.0400391h-35.6083984
			c6.2548828,12.5112305,24.5410156,30.796875,38.9765625,39.1376953
			c-4.1699219,4.9726562-8.5009766,12.3505859-11.3886719,17.4833984
			c-11.2275391-8.1801758-27.1074219-23.5786133-33.5234375-34.1650391v45.0722656H3354.71875v-43.4682617
			c-7.859375,11.8696289-20.53125,25.6640625-37.8544922,38.175293
			c-4.3310547-5.9345703-9.6240234-11.5488281-14.5966797-16.0400391
			c19.8896484-10.265625,34.8076172-27.5888672,45.5537109-46.1953125h-25.8242188v29.6738281h-17.6445312v-8.3408203h-12.6708984
			v15.3984375h-18.1259766V220.530426h48.4414062v48.921875h32.7216797v-24.3808594h-27.2685547V229.0314026z
			 M3304.3525391,236.5704651h-12.6708984v54.2148438h12.6708984V236.5704651z"/>
	</g>
</g>
</svg>
