<?xml version="1.0" encoding="utf-8"?>
<!-- Generator: $$$/GeneralStr/196=Adobe Illustrator 27.6.0, SVG Export Plug-In . SVG Version: 6.00 Build 0)  -->
<svg version="1.1" id="Ebene_1" xmlns="http://www.w3.org/2000/svg" xmlns:xlink="http://www.w3.org/1999/xlink" x="0px" y="0px"
	 viewBox="0 0 4239.8212891 964.2299194" style="enable-background:new 0 0 4239.8212891 964.2299194;" xml:space="preserve">
<style type="text/css">
	.st0{fill:#2E3192;}
	.st1{fill:#C1272D;}
	.st2{enable-background:new    ;}
	.st3{fill:#FFFFFF;}
</style>
<g id="Ebene_3">
</g>
<g id="Ebene_6">
	<g>
		<g>
			<path class="st0" d="M355.9268494,425.9518127c4.5306091-34.8132629,18.1490784-66.7035217,32.3705139-98.1804504
				c1.9122009-2.6318054,4.0908813-5.1115417,5.6936646-7.9199829
				c10.9226379-19.1388245,23.7574768-36.8610229,38.3993835-53.3381958
				c20.2802429-22.8221588,43.0903931-42.638031,68.9021912-58.9564819
				c5.711853-3.6110992,11.8117065-6.6353302,17.3673706-10.4606018
				c9.0318604-6.2187347,19.3063965-9.7837219,29.1813965-14.1318665
				c9.9901123-4.398819,20.2017822-8.5364685,30.6744995-11.5398254
				c15.2453613-4.3720093,30.7849731-7.7408142,46.257019-11.2843781c4.4776001-1.0254974,9.2102051-0.8991547,13.7283936-1.7932281
				c14.2200928-2.8138885,28.6207275-2.8284454,42.9421387-2.2079315
				c14.6705933,0.6356506,29.3122559,2.2993164,43.9208984,3.9235992
				c22.2738037,2.4765472,43.7741089,8.4195251,64.7084961,16.1725311
				c12.3341675,4.5679321,24.234375,10.3189087,36.2835083,15.6425171
				c14.6361694,6.4666138,27.6452026,15.7065125,40.7546387,24.6700897
				c8.1140747,5.5479736,15.6638794,11.9729156,23.1455078,18.3795776
				c7.27771,6.2320709,14.5410156,12.570755,21.0952148,19.5358429c8.5142822,9.048111,16.734314,18.4431915,24.3185425,28.2769928
				c7.7880859,10.0981445,14.9284058,20.7294617,21.8618164,31.4447327
				c9.0942383,14.054718,16.5997314,28.9677429,22.4747314,44.6834106
				c3.6013184,9.6334839,7.8737793,19.0421143,10.9851685,28.8251343c2.848877,8.9577942,4.7540283,18.2386475,6.6861572,27.4586182
				c1.8758545,8.9520264,3.4050903,17.9847717,4.8015137,27.0260925c0.8683472,5.6228638,1.4385986,11.3156433,1.7301636,16.9981995
				c0.4564819,8.899353,0.99646,17.8305664,0.7098389,26.7227783c-0.357605,11.0929565-1.4081421,22.1695862-2.3723145,33.2347412
				c-0.5946655,6.8240967-1.5737915,13.6151733-2.4279175,20.4150391c-0.0553589,0.4407959-0.5193481,0.8303223-0.7932129,1.2437134
				c-0.2515869-0.5679932-0.7182007-1.1345215-0.72229-1.7043457c-0.0518188-7.2531738,0.4352417-14.5455322-0.1547241-21.7509155
				c-0.8034058-9.811554-1.6152954-19.7450256-3.8583984-29.2890015
				c-3.9266968-16.7082214-10.3397217-32.5360107-19.3410645-47.3121948
				c-10.02771-16.4609375-22.6864014-30.5938721-37.4976196-42.6878967
				c-12.4098511-10.1332703-26.3494873-17.9827576-41.2911987-23.9173279
				c-18.3294678-7.2801819-37.4263916-11.1292725-57.0686035-11.9405823
				c-14.2666626-0.589325-28.3518677,1.4330444-42.2335205,4.7290955
				c-29.9458618,7.1102905-55.7579346,21.8017883-77.3881226,43.5071411
				c-20.1080322,20.177948-33.9497681,44.1730042-41.5762329,71.7521667
				c-4.2092285,15.2216492-9.9760132,29.9160461-18.3894653,43.3438416
				c-4.6739502,7.4595947-9.6801758,14.8560181-15.5228271,21.4005127
				c-6.8790894,7.7053833-14.4307861,14.9405518-22.4262695,21.4804688
				c-7.2501831,5.9302979-15.1919556,11.1771851-23.3568726,15.7909546
				c-13.907959,7.8589478-28.5862427,14.093811-44.508728,16.6751709
				c-10.4196167,1.689209-20.8710327,3.7967529-31.3676147,4.2109375
				c-9.2160645,0.3636475-18.5369263-1.1735229-27.771698-2.2219238
				c-13.0408325-1.4803467-25.7339478-4.9337158-37.6180115-10.2283936
				c-10.8733826-4.8444214-21.3345337-10.8964844-31.2849121-17.46521
				c-15.7642822-10.4067383-28.8802795-23.7684937-39.7039795-39.307312
				c-10.6815491-15.3347168-19.0649109-31.7358398-24.1543579-49.8309021
				c-3.4575806-12.2932739-6.0010681-24.6500549-6.0426331-37.4564209
				C356.022583,441.0307617,355.967926,433.491333,355.9268494,425.9518127z"/>
			<path class="st1" d="M355.9268494,425.9518127c0.0410767,7.5395203,0.0957336,15.078949,0.1201782,22.6185303
				c0.0415649,12.806366,2.5850525,25.163147,6.0426331,37.4564209
				c5.089447,18.0950623,13.4728088,34.4961853,24.1543579,49.8309021
				c10.8237,15.5388184,23.9396973,28.9005737,39.7039795,39.307312c9.9503784,6.5687256,20.4115295,12.6207886,31.2849121,17.46521
				c11.8840637,5.2946777,24.577179,8.7480469,37.6180115,10.2283936c9.2347717,1.0484009,18.5556335,2.5855713,27.771698,2.2219238
				c10.496582-0.4141846,20.947998-2.5217285,31.3676147-4.2109375c15.9224854-2.5813599,30.600769-8.8162231,44.508728-16.6751709
				c8.164917-4.6137695,16.1066895-9.8606567,23.3568726-15.7909546
				c7.9954834-6.539917,15.5471802-13.7750854,22.4262695-21.4804688
				c5.8426514-6.5444946,10.848877-13.940918,15.5228271-21.4005127
				c8.4134521-13.4277954,14.1802368-28.1221924,18.3894653-43.3438416
				c7.6264648-27.5791626,21.4682007-51.5742188,41.5762329-71.7521667
				c21.630188-21.7053528,47.4422607-36.3968506,77.3881226-43.5071411
				c13.8816528-3.296051,27.9668579-5.3184204,42.2335205-4.7290955
				c19.6422119,0.8113098,38.7391357,4.6604004,57.0686035,11.9405823
				c14.9417114,5.9345703,28.8813477,13.7840576,41.2911987,23.9173279
				c14.8112183,12.0940247,27.4699097,26.2269592,37.4976196,42.6878967
				c9.0013428,14.7761841,15.4143677,30.6039734,19.3410645,47.3121948
				c2.243103,9.5439758,3.0549927,19.4774475,3.8583984,29.2890015c0.5899658,7.2053833,0.1029053,14.4977417,0.1547241,21.7509155
				c0.0040894,0.5698242,0.4707031,1.1363525,0.72229,1.7043457c-1.3569946,6.9110107-2.5959473,13.8475952-4.092041,20.7283936
				c-5.569519,25.6143188-15.21521,49.7347412-27.0721436,73.0187988
				c-8.666687,17.019104-19.3265381,32.7460327-30.8710938,47.9401855
				c-10.0098267,13.1742554-20.9710083,25.4660034-32.8806763,36.8991089
				c-12.6445923,12.1383057-26.0940552,23.3655396-40.7330933,33.0331421
				c-9.0440063,5.9725952-18.4821777,11.3477783-27.7357178,17.0038452
				c-15.1333618,9.2501831-31.4077759,16.1030273-48.1187134,21.7340698
				c-14.9153442,5.0258789-30.1291504,9.2357178-45.3693848,13.1973877
				c-7.5969238,1.9749146-15.5100708,2.9888916-23.3471069,3.725647
				c-12.3117065,1.1573486-24.682373,1.6786499-37.0236816,2.5317993
				c-14.7793579,1.0216675-29.4196777-0.3817139-44.0302124-2.3907471
				c-8.0004883-1.1000977-16.0501709-1.9365845-23.9832764-3.4026489
				c-6.5554199-1.2114258-12.9691772-3.1848755-19.4525757-4.7927246c-1.539917-0.382019-3.1644897-0.4871216-4.6533813-1.0003662
				c-11.6017456-3.9993896-23.2841187-7.7941895-34.7440796-12.1694336
				c-26.4067383-10.081665-50.5514221-24.3419189-73.293396-40.9786377
				c-17.3304443-12.6779785-32.9030762-27.3968506-47.3701172-43.2125854
				c-6.8242188-7.4603271-12.9173279-15.6098633-19.09729-23.6352539
				c-15.5195312-20.1539917-27.9963379-42.1258545-37.9325562-65.4956665
				c-4.3852234-10.3140259-8.5604248-20.803772-11.6851196-31.5469971
				c-4.5962524-15.8026123-8.5645752-31.8183594-12.0085449-47.9128418
				c-1.7644043-8.2454224-2.2199402-16.8430786-2.5415039-25.3091431
				c-0.5732422-15.0914001-1.1044922-30.2183228-0.6711426-45.3021851
				c0.2919617-10.163269,2.212738-20.2857666,3.5385437-30.4089355
				C354.4723511,430.6456909,355.322876,428.3148804,355.9268494,425.9518127z"/>
		</g>
	</g>
</g>
<g id="Ebene_5">
</g>
<g id="Topf">
	<g>
		<path d="M677.7302246,166.1139221c43.0789795,0,84.8213501,8.4170074,124.0679932,25.0166626
			c37.9530029,16.053009,72.0570068,39.0526733,101.3653564,68.3606873
			c29.3079834,29.3083191,52.3076782,63.412323,68.3606567,101.3653259
			c16.5996094,39.2466736,25.0166016,80.9890137,25.0166016,124.0679932s-8.4169922,84.8213806-25.0166016,124.0680237
			c-16.0529785,37.9530029-39.0526733,72.0570068-68.3606567,101.3653564
			c-29.3083496,29.3079834-63.4123535,52.3076782-101.3653564,68.3606567
			c-39.2466431,16.5996704-80.9890137,25.0166626-124.0679932,25.0166626s-84.8213501-8.4169922-124.0679932-25.0166626
			c-37.9530029-16.0529785-72.0570374-39.0526733-101.3653564-68.3606567
			c-29.3080139-29.3083496-52.3076782-63.4123535-68.3606873-101.3653564
			c-16.5996704-39.2466431-25.0166626-80.9890137-25.0166626-124.0680237s8.4169922-84.8213196,25.0166626-124.0679932
			c16.053009-37.9530029,39.0526733-72.0570068,68.3606873-101.3653259
			c29.3083191-29.3080139,63.4123535-52.3076782,101.3653564-68.3606873
			C592.9088745,174.5309296,634.6512451,166.1139221,677.7302246,166.1139221 M677.7302246,76.1139221
			c-225.7800293,0-408.8106995,183.0306702-408.8106995,408.8106689s183.0306702,408.8106995,408.8106995,408.8106995
			s408.8105469-183.0306396,408.8105469-408.8106995S903.5102539,76.1139221,677.7302246,76.1139221L677.7302246,76.1139221z"/>
	</g>
</g>
<g id="Ebene_2_00000075846787983010904670000007667848230458739881_">
</g>
<g id="Ebene_1_00000129183769672739974190000011262670918754711967_">
	<g>
		<ellipse cx="171.4656982" cy="207.4341736" rx="95.5712814" ry="132.0262756"/>
		<g>
			<path d="M188.5180054,101.3617706l12.9476929,755.3546753c0.2840118,16.5685425-12.9172211,30.2302246-29.4857635,30.5142212
				s-30.2302246-12.9172363-30.5142365-29.4857788c-0.13591,0.0532227,13.0203552-756.0771484,12.9474487-756.3809204
				C155.5071716,79.3995743,187.1602173,78.872345,188.5180054,101.3617706L188.5180054,101.3617706z"/>
		</g>
	</g>
	<g>
		<path d="M1196.6203613,101.3617706l12.9476318,755.3546753c0.2840576,16.5685425-12.9172363,30.2302246-29.4857178,30.5142212
			c-16.5686035,0.2839966-30.2302246-12.9172363-30.5142822-29.4857788
			c-0.1358643,0.0532227,13.0205078-756.0771484,12.9475098-756.3809204
			C1163.6094971,79.3996124,1195.2624512,78.8722992,1196.6203613,101.3617706L1196.6203613,101.3617706z"/>
	</g>
	<g>
		<path d="M1279.5878906,102.0728912l12.9477539,755.3546753c0.2839355,16.5685425-12.9172363,30.2302246-29.4858398,30.5142212
			c-16.5684814,0.2839966-30.2302246-12.9172363-30.5141602-29.4857788
			c-0.1358643,0.0532227,13.0203857-756.0771484,12.9473877-756.3809204
			C1246.5771484,80.1106873,1278.2301025,79.5834732,1279.5878906,102.0728912L1279.5878906,102.0728912z"/>
	</g>
	<g class="st2">
		<path d="M1439.703125,122.5380859h123.7807617V78h108.7416992v44.5380859h123.2026367v78.6640625H1439.703125V122.5380859z
			 M1554.2290039,414.0585938c-48.0083008,0-100.0654297-17.9306641-100.0654297-93.703125
			c0-76.3505859,52.0571289-94.28125,100.0654297-94.28125h125.5161133c48.0083008,0,100.065918,17.9306641,100.065918,94.28125
			c0,75.7724609-52.0576172,93.703125-100.065918,93.703125H1554.2290039z M1591.8261719,492.7236328
			c0,20.2441406,3.4702148,25.4501953,24.871582,25.4501953h313.5009766v81.5556641h-356.8818359
			c-53.2143555,0-90.2329102-15.6171875-90.2329102-79.8212891v-78.6640625h108.7421875V492.7236328z M1575.0522461,292.0126953
			c-10.9902344,0-18.5092773,9.8339844-18.5092773,27.7646484c0,18.5087891,7.519043,28.3417969,18.5092773,28.3417969h83.8701172
			c10.9897461,0,18.5092773-9.8330078,18.5092773-28.3417969c0-17.9306641-7.5195312-27.7646484-18.5092773-27.7646484H1575.0522461
			z M1815.0942383,104.6064453h108.7421875v111.6347656h73.4584961v81.5556641h-73.4584961v166.5839844h-108.7421875V104.6064453z"
			/>
		<path d="M2030.2617188,287.9638672h391.5869141v-76.3505859c0-20.2441406-3.4697266-25.4501953-24.8720703-25.4501953
			h-328.5395508v-81.5566406h371.9204102c53.2148438,0,90.2324219,15.6171875,90.2324219,79.8212891v103.5361328h32.3925781
			v75.7724609H2350.703125v60.1552734h89.6542969c53.2148438,0,90.2324219,15.6171875,90.2324219,79.8212891v96.0166016
			h-108.7412109v-68.8310547c0-20.2441406-3.4697266-25.4501953-24.8720703-25.4501953H2062.652832v-81.5566406h179.3081055
			v-60.1552734h-211.6992188V287.9638672z"/>
		<path d="M2770.6289062,497.3505859h94.859375v-85.6054688c-39.9101562-24.8720703-66.5175781-68.2529297-66.5175781-141.7119141
			c0-138.8193359,95.4394531-171.2109375,196.0839844-171.2109375h86.1835938
			c100.0644531,0,196.0820312,32.3916016,196.0820312,171.2109375c0,74.6162109-27.1855469,118.5751953-68.8320312,143.4472656
			v83.8701172h94.8613281v81.5566406h-532.7207031V497.3505859z M3073.140625,357.3740234
			c67.0957031,0,95.4375-24.8720703,95.4375-87.3408203s-28.3417969-87.3408203-95.4375-87.3408203h-69.9882812
			c-67.0976562,0-95.4394531,24.8720703-95.4394531,87.3408203s28.3417969,87.3408203,95.4394531,87.3408203H3073.140625z
			 M2974.2304688,440.6660156v56.6845703h125.515625v-56.1064453h-115.1035156
			C2981.171875,441.2441406,2977.7011719,441.2441406,2974.2304688,440.6660156z"/>
		<path d="M3460.0976562,365.4716797v83.2919922c0,32.3916016,15.0371094,48.5869141,56.6835938,48.5869141
			c42.2246094,0,57.2636719-16.1953125,57.2636719-48.5869141v-25.4501953h108.7421875v12.7246094
			c0,100.6445312-43.3808594,142.8691406-166.0058594,142.8691406c-122.0449219,0-165.4257812-42.2246094-165.4257812-142.8691406
			V283.9150391h211.1210938v-97.7519531h-211.1210938v-81.5566406H3671.21875v260.8652344H3460.0976562z M3751.0390625,104.6064453
			H3859.78125v474.3007812h-108.7421875V104.6064453z"/>
	</g>
	<g class="st2">
		<path d="M1494.0249023,829.1396484l-18.7915039-41l-7.5166016,8.3710938v32.6289062h-21.8662109V707.1660156h21.8662109
			v64.5742188l24.7705078-31.7744141h23.0625l-25.625,31.7744141l27.8457031,57.3994141H1494.0249023z"/>
		<path d="M1592.0825195,831.8730469c-11.9580078,0-20.8149414-3.84375-26.5644531-11.53125
			c-5.7519531-7.6875-8.6269531-19.5009766-8.6269531-35.4472656c0-15.7167969,3.0166016-27.5898438,9.0541992-35.6181641
			c6.0351562-8.0292969,14.918457-12.0439453,26.6499023-12.0439453c11.9580078,0,20.8120117,3.84375,26.5639648,11.53125
			c5.7495117,7.6875,8.6269531,19.5039062,8.6269531,35.4472656c0,15.7167969-3.0185547,27.5888672-9.0537109,35.6181641
			C1612.6943359,827.8583984,1603.8110352,831.8730469,1592.0825195,831.8730469z M1592.253418,814.7900391
			c3.1870117,0,5.6640625-1.0253906,7.4311523-3.0751953c1.7641602-2.0498047,3.0454102-5.2666016,3.84375-9.6523438
			c0.7954102-4.3828125,1.1958008-10.2763672,1.1958008-17.6806641c0-11.0449219-0.9130859-18.8183594-2.7333984-23.3183594
			c-1.8232422-4.4980469-5.0126953-6.7480469-9.5664062-6.7480469c-3.1899414,0-5.6669922,1.0253906-7.4311523,3.0751953
			c-1.7670898,2.0498047-3.0483398,5.2685547-3.84375,9.6513672c-0.7983398,4.3857422-1.1958008,10.2792969-1.1958008,17.6816406
			c0,11.0478516,0.9101562,18.8203125,2.7333984,23.3183594
			C1584.5073242,812.5419922,1587.6967773,814.7900391,1592.253418,814.7900391z"/>
		<path d="M1676.6416016,829.1396484v-89.1738281h21.8662109v11.9580078
			c2.3916016-4.3271484,5.2373047-7.6582031,8.5415039-9.9931641c3.3022461-2.3330078,6.7749023-3.5029297,10.4208984-3.5029297
			c1.8203125,0,3.8706055,0.2861328,6.1499023,0.8544922l-2.5625,20.5
			c-1.7084961-0.4541016-3.9291992-0.6835938-6.6625977-0.6835938c-4.3291016,0-7.9433594,1.5371094-10.8476562,4.6123047
			s-4.355957,6.8925781-4.355957,11.4462891v53.9824219H1676.6416016z"/>
		<path d="M1828.3408203,801.9775391c-0.9125977,9.7958984-4.1293945,17.2275391-9.6518555,22.2929688
			c-5.5253906,5.0664062-13.1835938,7.6025391-22.9770508,7.6025391c-11.8457031,0-20.6142578-3.7851562-26.3081055-11.3603516
			c-5.6958008-7.5722656-8.5415039-19.2744141-8.5415039-35.1054688c0-15.7167969,3.0166016-27.6748047,9.0541992-35.875
			c6.0351562-8.2001953,14.8623047-12.2998047,26.4790039-12.2998047c10.7036133,0,18.762207,3.7021484,24.1723633,11.1035156
			c5.4082031,7.4052734,8.1147461,18.3378906,8.1147461,32.7998047v8.7128906h-45.7827148
			c0.2265625,17.3125,4.6123047,25.9658203,13.1538086,25.9658203c3.4165039,0,5.9790039-1.0517578,7.6875-3.1601562
			c1.7084961-2.1054688,2.8452148-5.6640625,3.4165039-10.6767578H1828.3408203z M1807.3286133,776.1816406
			c0-8.0849609-0.9394531-13.9785156-2.8188477-17.6806641c-1.8789062-3.7001953-4.8125-5.5517578-8.7978516-5.5517578
			c-4.0996094,0-7.1186523,1.7929688-9.0537109,5.3808594c-1.9379883,3.5869141-3.1337891,9.5400391-3.5874023,17.8515625
			H1807.3286133z"/>
		<path d="M1916.6591797,829.1396484v-9.9082031c-2.6210938,3.8730469-5.78125,6.8623047-9.480957,8.96875
			c-3.7021484,2.1054688-7.7167969,3.1601562-12.043457,3.1601562c-7.2900391,0-12.9833984-2.3330078-17.0834961-7.0039062
			c-4.0996094-4.6689453-6.1499023-11.1601562-6.1499023-19.4746094c0-8.9960938,2.9897461-16.0849609,8.96875-21.2685547
			c5.9790039-5.1816406,14.5473633-8.2265625,25.7099609-9.1396484l9.2250977-0.6835938v-5.2958984
			c0-5.3515625-0.7978516-9.2802734-2.3916016-11.7871094c-1.5961914-2.5039062-4.1586914-3.7578125-7.6875-3.7578125
			c-3.1894531,0-5.637207,0.96875-7.3457031,2.9033203c-1.7084961,1.9384766-2.9042969,5.0136719-3.5874023,9.2255859
			l-20.1582031-1.7089844c1.3666992-8.8828125,4.668457-15.4599609,9.9082031-19.7304688
			c5.2373047-4.2705078,12.5830078-6.40625,22.0371094-6.40625c10.4770508,0,18.1938477,2.7060547,23.1479492,8.1142578
			c4.9541016,5.4111328,7.4311523,13.8671875,7.4311523,25.3681641v58.4248047H1916.6591797z M1915.8051758,787.9697266
			l-6.8330078,0.6826172c-5.125,0.4570312-9.0834961,1.9384766-11.8730469,4.4414062
			c-2.7919922,2.5068359-4.1855469,5.8671875-4.1855469,10.0791016c0,3.7587891,0.7954102,6.6357422,2.3920898,8.6269531
			c1.5932617,1.9941406,3.9287109,2.9902344,7.0039062,2.9902344c4.1000977,0,7.3725586-1.6230469,9.8227539-4.8691406
			c2.4477539-3.2451172,3.6728516-7.6582031,3.6728516-13.2392578V787.9697266z"/>
		<path d="M2033.5078125,829.1396484v-64.4033203c0-3.3017578-0.7421875-5.8085938-2.2207031-7.5166016
			c-1.4814453-1.7080078-3.6464844-2.5625-6.4916992-2.5625c-3.6464844,0-6.8066406,1.28125-9.4814453,3.84375
			c-2.6772461,2.5625-4.0141602,5.5517578-4.0141602,8.96875v61.6699219H1988.75v-89.1738281h21.8662109v9.7373047
			c2.9604492-3.9853516,6.40625-7.0605469,10.3354492-9.2246094c3.9291992-2.1621094,8.0556641-3.2460938,12.3852539-3.2460938
			c7.0600586,0,12.6123047,2.25,16.65625,6.7480469c4.0410156,4.5,6.0644531,10.6767578,6.0644531,18.5351562v66.6240234
			H2033.5078125z"/>
		<path d="M2107.3061523,726.640625v-19.4746094h23.2329102v19.4746094H2107.3061523z M2107.6479492,829.1396484v-89.1738281
			h22.5493164v89.1738281H2107.6479492z"/>
		<path d="M2200.578125,791.0439453c-8.0878906-2.1621094-14.0078125-5.3808594-17.7666016-9.6513672
			c-3.7578125-4.2714844-5.6367188-10.0498047-5.6367188-17.3398438c0-8.0849609,2.7597656-14.5761719,8.2851562-19.4746094
			c5.5224609-4.8955078,12.9541016-7.3457031,22.2929688-7.3457031c8.7685547,0,15.5166016,2.0234375,20.2441406,6.0644531
			c4.7246094,4.0439453,7.8847656,10.6210938,9.4804688,19.7314453l-19.4746094,2.0498047
			c-0.7978516-4.4423828-2.0234375-7.6025391-3.6728516-9.4814453c-1.6523438-1.8789062-4.0146484-2.8183594-7.0888672-2.8183594
			c-3.0751953,0-5.4667969,0.8828125-7.1757812,2.6474609c-1.7080078,1.7675781-2.5615234,4.1855469-2.5615234,7.2607422
			c0,3.0742188,0.7099609,5.4394531,2.1347656,7.0888672c1.4228516,1.6523438,3.9003906,2.9902344,7.4316406,4.0146484
			l8.1992188,2.3916016c8.5419922,2.5068359,14.6328125,5.8935547,18.2792969,10.1650391
			c3.6435547,4.2705078,5.4667969,10.2226562,5.4667969,17.8515625c0,8.5419922-2.7919922,15.2890625-8.3710938,20.2431641
			c-5.5810547,4.9541016-13.1542969,7.4316406-22.7207031,7.4316406c-10.1376953,0-17.7958984-2.3916016-22.9765625-7.1748047
			c-5.1835938-4.7832031-8.1728516-12.1855469-8.96875-22.2080078h20.1582031
			c0.4541016,4.5556641,1.6494141,7.9169922,3.5878906,10.0791016c1.9345703,2.1640625,4.7246094,3.2451172,8.3701172,3.2451172
			c3.1875,0,5.6640625-0.9658203,7.4316406-2.9033203c1.7636719-1.9355469,2.6474609-4.5546875,2.6474609-7.8583984
			c0-3.1875-0.7685547-5.75-2.3056641-7.6875c-1.5380859-1.9355469-4.0146484-3.3583984-7.4316406-4.2714844
			L2200.578125,791.0439453z"/>
		<path d="M2347.6640625,795.4863281c-1.7089844,24.2578125-12.5302734,36.3867188-32.4580078,36.3867188
			c-23.0068359,0-34.5087891-15.6015625-34.5087891-46.8076172c0-15.8291016,2.9609375-27.7607422,8.8837891-35.7890625
			c5.9199219-8.0292969,14.6914062-12.0439453,26.3076172-12.0439453c18.5625,0,28.9267578,11.1630859,31.0917969,33.4824219
			l-21.0126953,2.2216797c-0.6826172-6.71875-1.8232422-11.5019531-3.4160156-14.3505859
			c-1.5966797-2.8447266-3.9882812-4.2705078-7.1748047-4.2705078c-4.2148438,0-7.2050781,2.3066406-8.96875,6.9189453
			c-1.7675781,4.6123047-2.6484375,12.4433594-2.6484375,23.4892578c0,10.9326172,0.9101562,18.6787109,2.7333984,23.2333984
			c1.8203125,4.5556641,4.8955078,6.8330078,9.2246094,6.8330078c3.3017578,0,5.8085938-1.5380859,7.5166016-4.6123047
			c1.7089844-3.0751953,2.7900391-7.9707031,3.2460938-14.6914062H2347.6640625z"/>
		<path d="M2438.5429688,829.1396484v-64.4033203c0-3.3017578-0.7412109-5.8085938-2.2197266-7.5166016
			c-1.4814453-1.7080078-3.6464844-2.5625-6.4921875-2.5625c-3.6464844,0-6.8066406,1.28125-9.4814453,3.84375
			c-2.6767578,2.5625-4.0136719,5.5517578-4.0136719,8.96875v61.6699219h-22.5498047V707.1660156h22.5498047v41.8535156
			c2.7324219-3.7578125,6.0048828-6.6621094,9.8222656-8.7119141c3.8144531-2.0507812,7.8847656-3.0751953,12.2138672-3.0751953
			c7.0605469,0,12.6123047,2.25,16.65625,6.7480469c4.0419922,4.5,6.0644531,10.6767578,6.0644531,18.5351562v66.6240234
			H2438.5429688z"/>
		<path d="M2508.5830078,789.5068359v-22.8916016h43.9033203v22.8916016H2508.5830078z"/>
		<path d="M2663.8671875,829.1396484l-27.3330078-57.0576172l-9.9082031,12.4707031v44.5869141h-23.7460938V707.1660156h23.7460938
			v48.1748047L2662.5,707.1660156h24.2587891l-34.3369141,46.6367188l37.2412109,75.3369141H2663.8671875z"/>
		<path d="M2761.9257812,831.8730469c-11.9589844,0-20.8154297-3.84375-26.5644531-11.53125
			c-5.7529297-7.6875-8.6269531-19.5009766-8.6269531-35.4472656c0-15.7167969,3.015625-27.5898438,9.0537109-35.6181641
			c6.0351562-8.0292969,14.9179688-12.0439453,26.6494141-12.0439453c11.9589844,0,20.8125,3.84375,26.5644531,11.53125
			c5.75,7.6875,8.6269531,19.5039062,8.6269531,35.4472656c0,15.7167969-3.0185547,27.5888672-9.0537109,35.6181641
			C2782.5371094,827.8583984,2773.6542969,831.8730469,2761.9257812,831.8730469z M2762.0957031,814.7900391
			c3.1875,0,5.6650391-1.0253906,7.4316406-3.0751953c1.7646484-2.0498047,3.0458984-5.2666016,3.84375-9.6523438
			c0.7949219-4.3828125,1.1953125-10.2763672,1.1953125-17.6806641c0-11.0449219-0.9121094-18.8183594-2.7324219-23.3183594
			c-1.8232422-4.4980469-5.0136719-6.7480469-9.5673828-6.7480469c-3.1894531,0-5.6660156,1.0253906-7.4306641,3.0751953
			c-1.7675781,2.0498047-3.0488281,5.2685547-3.84375,9.6513672c-0.7978516,4.3857422-1.1962891,10.2792969-1.1962891,17.6816406
			c0,11.0478516,0.9101562,18.8203125,2.7333984,23.3183594
			C2754.3496094,812.5419922,2757.5400391,814.7900391,2762.0957031,814.7900391z"/>
		<path d="M2910.2050781,795.4863281c-1.7089844,24.2578125-12.5292969,36.3867188-32.4580078,36.3867188
			c-23.0068359,0-34.5078125-15.6015625-34.5078125-46.8076172c0-15.8291016,2.9599609-27.7607422,8.8828125-35.7890625
			c5.9208984-8.0292969,14.6914062-12.0439453,26.3085938-12.0439453c18.5615234,0,28.9257812,11.1630859,31.0908203,33.4824219
			l-21.0126953,2.2216797c-0.6826172-6.71875-1.8222656-11.5019531-3.4160156-14.3505859
			c-1.5966797-2.8447266-3.9882812-4.2705078-7.1748047-4.2705078c-4.2148438,0-7.2041016,2.3066406-8.96875,6.9189453
			c-1.7675781,4.6123047-2.6484375,12.4433594-2.6484375,23.4892578c0,10.9326172,0.9101562,18.6787109,2.7333984,23.2333984
			c1.8203125,4.5556641,4.8955078,6.8330078,9.2255859,6.8330078c3.3017578,0,5.8076172-1.5380859,7.5166016-4.6123047
			c1.7080078-3.0751953,2.7890625-7.9707031,3.2451172-14.6914062H2910.2050781z"/>
		<path d="M3001.0839844,829.1396484v-64.4033203c0-3.3017578-0.7412109-5.8085938-2.2207031-7.5166016
			c-1.4814453-1.7080078-3.6455078-2.5625-6.4912109-2.5625c-3.6464844,0-6.8066406,1.28125-9.4814453,3.84375
			c-2.6767578,2.5625-4.0146484,5.5517578-4.0146484,8.96875v61.6699219h-22.5498047V707.1660156h22.5498047v41.8535156
			c2.7333984-3.7578125,6.0058594-6.6621094,9.8232422-8.7119141c3.8144531-2.0507812,7.8847656-3.0751953,12.2138672-3.0751953
			c7.0605469,0,12.6123047,2.25,16.65625,6.7480469c4.0419922,4.5,6.0644531,10.6767578,6.0644531,18.5351562v66.6240234
			H3001.0839844z"/>
		<path d="M3139.4570312,801.9775391c-0.9130859,9.7958984-4.1298828,17.2275391-9.6523438,22.2929688
			c-5.5253906,5.0664062-13.1835938,7.6025391-22.9765625,7.6025391c-11.8466797,0-20.6152344-3.7851562-26.3085938-11.3603516
			c-5.6962891-7.5722656-8.5410156-19.2744141-8.5410156-35.1054688c0-15.7167969,3.015625-27.6748047,9.0537109-35.875
			c6.0351562-8.2001953,14.8623047-12.2998047,26.4785156-12.2998047c10.7041016,0,18.7626953,3.7021484,24.1728516,11.1035156
			c5.4082031,7.4052734,8.1142578,18.3378906,8.1142578,32.7998047v8.7128906h-45.7822266
			c0.2265625,17.3125,4.6123047,25.9658203,13.1542969,25.9658203c3.4160156,0,5.9785156-1.0517578,7.6865234-3.1601562
			c1.7089844-2.1054688,2.8457031-5.6640625,3.4169922-10.6767578H3139.4570312z M3118.4443359,776.1816406
			c0-8.0849609-0.9394531-13.9785156-2.8183594-17.6806641c-1.8798828-3.7001953-4.8125-5.5517578-8.7978516-5.5517578
			c-4.1005859,0-7.1191406,1.7929688-9.0546875,5.3808594c-1.9375,3.5869141-3.1337891,9.5400391-3.5869141,17.8515625H3118.4443359
			z"/>
		<path d="M3232.2167969,829.1396484v-64.4033203c0-3.3017578-0.7412109-5.8085938-2.2207031-7.5166016
			c-1.4814453-1.7080078-3.6455078-2.5625-6.4912109-2.5625c-3.6464844,0-6.8066406,1.28125-9.4814453,3.84375
			c-2.6767578,2.5625-4.0146484,5.5517578-4.0146484,8.96875v61.6699219h-22.5498047v-89.1738281h21.8671875v9.7373047
			c2.9599609-3.9853516,6.40625-7.0605469,10.3349609-9.2246094c3.9287109-2.1621094,8.0556641-3.2460938,12.3847656-3.2460938
			c7.0605469,0,12.6123047,2.25,16.65625,6.7480469c4.0419922,4.5,6.0644531,10.6767578,6.0644531,18.5351562v66.6240234
			H3232.2167969z"/>
		<path d="M3305.5029297,829.1396484v-26.9912109h22.7207031v26.9912109H3305.5029297z"/>
		<path d="M3424.0576172,829.1396484v-10.25c-2.2792969,4.0996094-5.2392578,7.2900391-8.8828125,9.5664062
			c-3.6464844,2.2773438-7.5166016,3.4169922-11.6162109,3.4169922c-8.8837891,0-15.6611328-3.9296875-20.3291016-11.7871094
			c-4.6708984-7.8583984-7.0039062-19.3603516-7.0039062-34.5087891c0-15.6015625,2.4472656-27.5595703,7.3457031-35.8740234
			c4.8955078-8.3125,11.8994141-12.4707031,21.0117188-12.4707031c3.4169922,0,6.7480469,0.9130859,9.9941406,2.7333984
			c3.2451172,1.8232422,6.1767578,4.4414062,8.7978516,7.8583984v-40.6582031h22.5498047v121.9736328H3424.0576172z
			 M3423.7167969,780.453125c0-8.9960938-0.9697266-15.5732422-2.9042969-19.7314453
			c-1.9384766-4.15625-5.0126953-6.2353516-9.2255859-6.2353516c-4.3291016,0-7.4599609,2.3359375-9.3955078,7.0039062
			c-1.9375,4.6708984-2.9042969,12.3583984-2.9042969,23.0625c0,10.7060547,0.9667969,18.3935547,2.9042969,23.0625
			c1.9355469,4.6708984,5.0664062,7.0039062,9.3955078,7.0039062c4.2128906,0,7.2871094-2.0498047,9.2255859-6.1503906
			c1.9345703-4.0996094,2.9042969-10.6474609,2.9042969-19.6455078V780.453125z"/>
		<path d="M3562.2597656,801.9775391c-0.9130859,9.7958984-4.1298828,17.2275391-9.6523438,22.2929688
			c-5.5253906,5.0664062-13.1835938,7.6025391-22.9765625,7.6025391c-11.8466797,0-20.6152344-3.7851562-26.3085938-11.3603516
			c-5.6962891-7.5722656-8.5410156-19.2744141-8.5410156-35.1054688c0-15.7167969,3.015625-27.6748047,9.0537109-35.875
			c6.0351562-8.2001953,14.8623047-12.2998047,26.4785156-12.2998047c10.7041016,0,18.7626953,3.7021484,24.1728516,11.1035156
			c5.4082031,7.4052734,8.1142578,18.3378906,8.1142578,32.7998047v8.7128906h-45.7822266
			c0.2265625,17.3125,4.6123047,25.9658203,13.1542969,25.9658203c3.4160156,0,5.9785156-1.0517578,7.6865234-3.1601562
			c1.7089844-2.1054688,2.8457031-5.6640625,3.4169922-10.6767578H3562.2597656z M3541.2470703,776.1816406
			c0-8.0849609-0.9394531-13.9785156-2.8183594-17.6806641c-1.8798828-3.7001953-4.8125-5.5517578-8.7978516-5.5517578
			c-4.1005859,0-7.1191406,1.7929688-9.0546875,5.3808594c-1.9375,3.5869141-3.1337891,9.5400391-3.5869141,17.8515625H3541.2470703
			z"/>
	</g>
	<path class="st1" d="M4057.1328125,400.5201721h-0.0002441c-56.9226074,0-103.0673828-46.1448669-103.0673828-103.0674438
		v-89.0428925c0-56.9225769,46.1447754-103.0674362,103.0673828-103.0674362h0.0002441
		c56.9223633,0,103.0673828,46.1448593,103.0673828,103.0674362v89.0428925
		C4160.2001953,354.3753052,4114.0551758,400.5201721,4057.1328125,400.5201721z"/>
	<g class="st2">
		<path class="st3" d="M4039.0488281,201.0898438h27.2675781v-21.3339844h16.2011719
			c3.8496094,0,5.1328125,0.9628906,5.1328125,2.40625c0,1.2832031-1.2832031,2.8867188-2.5664062,4.3310547v14.5966797h35.7695312
			v16.0390625h-35.7695312v24.3808594h41.5429688v16.0410156h-35.6083984
			c6.2548828,12.5107422,24.5419922,30.796875,38.9775391,39.1367188
			c-4.1699219,4.9726562-8.5019531,12.3515625-11.3886719,17.484375
			c-11.2285156-8.1806641-27.1074219-23.5791016-33.5234375-34.1660156v45.0732422h-18.7675781v-43.46875
			c-7.859375,11.8701172-20.53125,25.6640625-37.8535156,38.1748047c-4.3320312-5.9345703-9.625-11.5488281-14.5976562-16.0390625
			c19.890625-10.265625,34.8076172-27.5898438,45.5546875-46.1953125h-25.8242188v29.6738281h-17.6445312v-8.3408203h-12.671875
			v15.3984375h-18.125V192.5878906h48.4414062v48.921875h32.7207031v-24.3808594h-27.2675781V201.0898438z
			 M4015.9511719,208.6279297h-12.671875V262.84375h12.671875V208.6279297z"/>
	</g>
</g>
</svg>
