<?xml version="1.0" encoding="utf-8"?>
<!-- Generator: $$$/GeneralStr/196=Adobe Illustrator 27.6.0, SVG Export Plug-In . SVG Version: 6.00 Build 0)  -->
<svg version="1.1" id="Ebene_1" xmlns="http://www.w3.org/2000/svg" xmlns:xlink="http://www.w3.org/1999/xlink" x="0px" y="0px"
	 viewBox="0 0 3745.3 964.2" style="enable-background:new 0 0 3745.3 964.2;" xml:space="preserve">
<style type="text/css">
	.st0{fill:#E94222;}
	.st1{fill:#FFFFFF;}
	.st2{stroke:#000000;stroke-width:18;stroke-miterlimit:10;}
	.st3{fill:#88210E;}
</style>
<g id="Ebene_3">
</g>
<g id="Ebene_6">
	<path class="st0" d="M887.5,579.1c-1.4-2.7-1.4-2.7-3.2-19.4l-0.3-2.2c-1.9-16.6-1.9-17.3-1.9-18.1c0-2.8,0-5.4,0.1-8.2l0,0
		c0.1-4.8,0.2-9.4-0.2-13.6c-0.8-10.7-1.7-20.1-3.8-28.8c-3.9-16.5-10.2-31.8-18.6-45.6c-9.5-15.5-21.7-29.4-36.3-41.3
		c-11.6-9.4-24.9-17.1-39.7-23c-17.3-6.8-35.9-10.8-55.5-11.6c-12.1-0.5-25.3,1.1-40.5,4.6c-28.5,6.8-53.6,20.9-74.5,41.9
		c-19.2,19.2-32.7,42.5-40,69.2c-5.6,19.9-12.6,36.5-21.6,50.8c-4.5,7.2-10.7,16.7-18.3,25.2c-8,9-16.7,17.3-25.8,24.8
		c-8.1,6.6-17.3,12.8-27.3,18.5c-18.7,10.5-36,17-53.1,19.8l-0.3,0c-1.7,0.2-3.4,0.5-5.1,0.9l-1.8,0.3c-9,1.5-18.4,3.1-28.2,3.5l0,0
		c-1.3,0.1-2.5,0.2-4,0.2c-8.1,0-16.1-1-22.6-1.9c-1-0.1-2.1-0.2-3.1-0.4c-0.9-0.1-1.8-0.2-2.7-0.3l-0.2,0c-15.8-1.8-31-6-45.1-12.3
		c-11.5-5.1-23.3-11.7-35.8-20c-18.1-12-33.9-27.6-46.9-46.4c-6.6-9.4-12.2-18.9-16.9-28.6c0.4,4.3,1,8.5,1.9,12.7
		c3.7,17.1,7.9,34.1,12.8,50.9c3.3,11.4,7.7,22.5,12.4,33.5c10.5,24.8,23.8,48.2,40.3,69.6c6.6,8.5,13,17.2,20.3,25.1
		c15.4,16.8,32,32.4,50.4,45.9c24.1,17.7,49.8,32.9,77.9,43.6c12.1,4.6,24.6,8.6,36.9,12.9c1.5,0.6,3.3,0.7,4.9,1.1
		c6.9,1.7,13.7,3.8,20.7,5.1c8.4,1.5,17,2.4,25.5,3.6c15.5,2.1,31.1,3.6,46.8,2.5c13.2-0.9,26.3-1.5,39.4-2.7
		c8.3-0.8,16.7-1.9,24.8-4c16.2-4.2,32.3-8.7,48.2-14c17.8-6,35.1-13.3,51.2-23.1c9.8-6,19.9-11.7,29.5-18.1
		c15.6-10.3,29.9-22.2,43.3-35.1c12.7-12.1,24.4-25.2,35-39.2c12.3-16.2,23.6-32.9,32.8-51c8.3-16.3,15.7-33.1,21.4-50.5
		L887.5,579.1z"/>
	<g>
		<path class="st1" d="M905.8,539.2C905.8,539.2,905.8,539.3,905.8,539.2C905.8,539.3,905.8,539.2,905.8,539.2z"/>
	</g>
</g>
<g id="Ebene_5">
</g>
<g id="Topf">
	<path d="M557.7,70c55.7,0,109.6,10.9,160.4,32.4c49.1,20.8,93.1,50.5,131,88.3c37.9,37.9,67.6,82,88.3,131
		c21.5,50.8,32.4,104.7,32.4,160.4S959,591.7,937.5,642.5c-20.8,49.1-50.5,93.1-88.3,131c-37.9,37.9-82,67.6-131,88.3
		c-50.8,21.5-104.7,32.4-160.4,32.4s-109.6-10.9-160.4-32.4c-49.1-20.8-93.1-50.5-131-88.3c-37.9-37.9-67.6-82-88.3-131
		c-21.5-50.8-32.4-104.7-32.4-160.4s10.9-109.6,32.4-160.4c20.8-49.1,50.5-93.1,88.3-131c37.9-37.9,82-67.6,131-88.3
		C448.1,80.9,502.1,70,557.7,70 M557.7,0C291.5,0,75.6,215.9,75.6,482.1s215.9,482.1,482.1,482.1s482.1-215.9,482.1-482.1
		S824,0,557.7,0L557.7,0z"/>
</g>
<g id="Ebene_2_00000125562297871770665760000008198023702078919555_">
</g>
<g id="Ebene_1_00000090265878013131041610000011389277804130011548_">
	<g>
		<path class="st2" d="M1337.9,38.4c4.5,42.4,5.5,86.9,3,133.5s-14,94.8-34.3,144.5h2.5c7.3,2.3,14.4,4.8,21.2,7.6
			c2.8,1.1,5.6,2.1,8.5,3c2.8,0.8,5.1,2.1,6.8,3.8c5.1,5.1,3.4,14.1-5.1,27.1c-22,40.1-41.5,80-58.5,119.5c5.1-1.1,10.6-3,16.5-5.5
			s10.3-3.5,13.1-3c11.3,1.1,19.5,3.4,24.6,6.8c1.7,1.1,3.7,1.8,5.9,2.1c2.3,0.3,3.7,1,4.2,2.1c2.3,4.5,3,10.3,2.1,17.4
			c-0.8,7.1-1.6,12-2.1,14.8c-1.1,13-2.5,27.3-4.2,42.8s-5.4,27.5-11,36c-6.2,9.6-14.1,17.1-23.7,22.5s-19.2,12-28.8,19.9
			c-7.3,6.2-16.4,11-27.1,14.4s-19.2,5.1-25.4,5.1c-1.1,0,0.1-0.8,3.8-2.5c3.7-1.7,6.1-4,7.2-6.8c-4.5,0.6-7.6,0-9.3-1.7
			c-1.7-1.7-3.7-3.1-5.9-4.2c-2.3-1.1-4.7-1.8-7.2-2.1s-4.4-1.8-5.5-4.7c-1.1-2.3-1.6-5-1.3-8.1c0.3-3.1,0.4-5.8,0.4-8.1
			c1.1-24.3,5.1-48.5,11.9-72.5s14.7-47,23.7-69.1c9-22,18.4-43.1,28-63.1s18.1-38.6,25.4-55.5c-5.1-0.6-14,0.7-26.7,3.8
			c-12.7,3.1-26.6,6.5-41.5,10.2c-15,3.7-29.7,7.2-44.1,10.6s-25.8,5.1-34.3,5.1c-2.3,0-4.8-3.1-7.6-9.3c-1.1-1.1-2.3-2.3-3.4-3.4
			s-2-2.3-2.5-3.4c-1.7-3.9-3-8.9-3.8-14.8s0.1-10,3-12.3c22-15.8,44.3-26,67-30.5c22.6-4.5,48.3-4.5,77.1,0c0-20.9,0.1-43.2,0.4-67
			c0.3-23.7,1.1-46.7,2.5-69.1c1.4-22.3,3.1-42.9,5.1-61.9c2-18.9,4.7-34,8.1-45.3c1.7-5.6,4.2-11.4,7.6-17.4
			c3.4-5.9,6.5-10.9,9.3-14.8c1.1-1.7,2.5-2.3,4.2-1.7s3.2,1.7,4.7,3.4c1.4,1.7,3,3.4,4.7,5.1c1.7,1.7,3.1,2.5,4.2,2.5
			c1.1,0.6,2.1-0.6,3-3.4C1335,38.1,1336.2,37.3,1337.9,38.4z M1237.1,600.3c6.8,1.1,13.1,0.7,19.1-1.3c5.9-2,11.3-4.4,16.1-7.2
			c4.8-2.8,8.9-6.1,12.3-9.7c3.4-3.7,5.9-7.2,7.6-10.6c6.8-17.5-1.7-36.7-25.4-57.6C1256,543.3,1246.1,572.1,1237.1,600.3z
			 M1425.2,524.9c1.1,2.3,2.1,7.1,3,14.4s0.7,13.6-0.4,18.6c-1.7,10.2-3.3,20.9-4.7,32.2c-1.4,11.3-1.6,24.3-0.4,39
			c37.3-7.3,73.9-17.5,109.8-30.5s71.9-26.8,108.1-41.5c1.7,0,3-0.6,3.8-1.7c0.8-1.1,1.8-1.1,3,0c1.1,1.1,1.1,3.1,0,5.9
			c-1.1,2.8-1.7,5.4-1.7,7.6c0,6.8-1.4,11.6-4.2,14.4c-18.1,10.2-37.2,20.8-57.2,31.8c-20.1,11-40.5,20.9-61.4,29.7
			s-42,15.8-63.1,21.2c-21.2,5.4-41.7,7.5-61.4,6.4c-2.8-1.1-4.7-2.8-5.5-5.1s-1.8-4.8-3-7.6c-1.1-2.8-1.6-7.3-1.3-13.6
			c0.3-6.2,0.1-10.7-0.4-13.6c-0.6-2.8-1.7-5.7-3.4-8.5c-1.7-2.8-2.5-5.7-2.5-8.5c1.1-18.6,5.6-36.9,13.6-54.7
			C1403.5,543.1,1413.3,531.1,1425.2,524.9z M1645.6,313.9c11.9,0,21,1.8,27.5,5.5s10,6.1,10.6,7.2c0,0.6-1.3,1.6-3.8,3
			s-5.7,3-9.3,4.7c-3.7,1.7-7.5,3.3-11.4,4.7c-4,1.4-7.6,2.4-11,3c-11.3,2.8-26,6.4-44.1,10.6s-36.2,8.9-54.2,14l-10.2,104.2
			c-1.7,2.3-3.8,3.5-6.4,3.8c-2.5,0.3-5.2,1.3-8.1,3c-1.7,1.1-4.5,3-8.5,5.5s-6.8,4.4-8.5,5.5c-4.5,2.3-7.5,3-8.9,2.1
			c-1.4-0.8-2.4-2.7-3-5.5c-4.5-51.4-5.1-104.2-1.7-158.5c3.4-54.2,13.6-107.1,30.5-158.5c1.1-1.7,1.8-3.1,2.1-4.2
			c0.3-1.1,1.8-1.7,4.7-1.7c1.1,0,3.1,1.6,5.9,4.7c2.8,3.1,5.1,5,6.8,5.5c6.2,2.3,12.1,5.5,17.8,9.7c5.6,4.2,7.6,9.2,5.9,14.8
			c-2.8,22.6-5.2,45.1-7.2,67.4c-2,22.3-4.4,44.8-7.2,67.4c13-2.8,27.8-6.1,44.5-9.7C1615.2,318.2,1630.9,315.6,1645.6,313.9z"/>
		<path class="st2" d="M1923.6,522.4c3.4,0.6,7.3,0.8,11.9,0.8c4.5,0,8.5,0.6,11.9,1.7c3.4,1.1,6.4,3.1,8.9,5.9
			c2.5,2.8,5.5,5.1,8.9,6.8c4.5,4.5,5.6,10.4,3.4,17.8c-0.6,1.1-1,2.5-1.3,4.2s-1,3.4-2.1,5.1c0,11.3-0.3,23.6-0.8,36.9
			c-0.6,13.3-1.7,27-3.4,41.1c-1.7,14.1-3.7,27.8-5.9,41.1c-2.3,13.3-5.1,25.6-8.5,36.9c-3.4,3.4-5.7,5.1-6.8,5.1
			c-1.7,0-3.1-1.8-4.2-5.5s-3.1-7.5-5.9-11.4c-1.1-2.3-2.3-5-3.4-8.1s-1.7-6.6-1.7-10.6c2.8-36.7,2.8-73.5,0-110.2
			c-6.2,1.1-13.3,2.5-21.2,4.2c-7.9,1.7-16.4,3.4-25.4,5.1c-9,1.7-17.9,3.5-26.7,5.5c-8.8,2-16.8,3.8-24.2,5.5
			c-6.2,1.7-11.6,2-16.1,0.8c-4.5-1.1-9.3-3.4-14.4-6.8c-2.8-1.7-6.5-3.4-11-5.1c-4.5-1.7-8.2-4-11-6.8c-1.1-1.1-3-2.4-5.5-3.8
			c-2.5-1.4-4.1-2.7-4.7-3.8c-1.1-2.8-0.4-5.7,2.1-8.5s4.9-5.1,7.2-6.8c7.9-4,15.8-7.6,23.7-11c7.9-3.4,16.1-6.5,24.6-9.3
			c1.1-13.6,2.3-28.5,3.4-44.9s3.2-33.2,6.4-50.4c3.1-17.2,7.3-34.5,12.7-51.7c5.4-17.2,12.6-33.8,21.6-49.6
			c-32.8,4.5-63.9,7.3-93.2,8.5c-29.4,1.1-53.4,0.3-72-2.5c0-6.2,0.8-11.2,2.5-14.8c1.7-3.7,4.8-6.9,9.3-9.7
			c4.5-2.8,9.7-6.4,15.7-10.6s12-6.9,18.2-8.1c23.7-2.8,45.3-5.4,64.8-7.6c19.5-2.3,38-4.5,55.5-6.8c7.9-27.1,13.7-53.4,17.4-78.8
			c3.7-25.4,6.1-51.7,7.2-78.8c0-12.4-6.5-18.6-19.5-18.6c-7.3,0-15.8,0.3-25.4,0.8c-9.6,0.6-19.6,1.3-30.1,2.1
			c-10.5,0.8-20.9,1.7-31.4,2.5s-19.9,1.8-28.4,3c-5.1,1.1-7.9-0.3-8.5-4.2c0-0.6,0.8-2.5,2.5-5.9s3.9-6.2,6.8-8.5
			c1.7-1.1,3.8-2.7,6.4-4.7c2.5-2,5.2-3.5,8.1-4.7c8.5-2.3,18.1-4.2,28.8-5.9c10.7-1.7,21.2-3,31.4-3.8c10.2-0.8,19.3-1.4,27.5-1.7
			c8.2-0.3,14-0.1,17.4,0.4c2.8,1.1,5.4,2.4,7.6,3.8c2.3,1.4,4.5,2.7,6.8,3.8c2.8,1.7,5.6,3.4,8.5,5.1c2.8,1.7,5.4,3.7,7.6,5.9
			c1.7,1.7,3,3.5,3.8,5.5s1.8,4.4,3,7.2c2.8,11.9,3.7,25.7,2.5,41.5c-1.1,15.8-3.4,31.8-6.8,47.9s-7.8,31.6-13.1,46.6
			c-5.4,15-10.9,27.5-16.5,37.7c16.4-2.3,32.1-4.4,47-6.4c15-2,29.8-3.8,44.5-5.5c3.9-0.6,7.6-0.3,11,0.8c3.4,1.1,6.5,1.7,9.3,1.7
			s6.8,0.3,11.9,0.8c5.1,0.6,8.5,1.4,10.2,2.5c2.8,2.8,5.8,5.2,8.9,7.2c3.1,2,5.5,4.4,7.2,7.2c1.1,1.7,1.5,3.5,1.3,5.5
			c-0.3,2-0.4,4.1-0.4,6.4c-21.5,6.2-44.5,11.9-69.1,17s-49.6,9.6-75,13.6c-1.1,10.7-2.5,23.7-4.2,39s-3.7,31.5-5.9,48.7
			c-2.3,17.2-5,34.6-8.1,52.1s-6.6,33.9-10.6,49.2c13-2.8,25-4.8,36-5.9C1905.3,522.1,1915.1,521.8,1923.6,522.4z"/>
		<path class="st2" d="M2615.3,462.2c0,4-1.1,6.8-3.4,8.5c-2.3,1.7-4.8,4-7.6,6.8c-3.4,4-7.6,8.5-12.7,13.6
			c-5.1,5.1-10.5,10.2-16.1,15.3c-5.7,5.1-11,9.9-16.1,14.4s-9.6,8.2-13.6,11c-42.4,20.9-84.9,34.6-127.6,41.1
			c-42.7,6.5-88.6,6.6-137.7,0.4c-7.3-1.1-14.4-3.7-21.2-7.6c-6.8-4-13.9-5.9-21.2-5.9c-4,0-5.9-1.4-5.9-4.2c0-1.1,1-3.1,3-5.9
			c2-2.8,4.7-4.2,8.1-4.2c5.1,0,10.3,0,15.7,0s10.6-0.3,15.7-0.8c-7.3-17-11.9-33.3-13.6-49.2c-1.7-15.8-2.1-31.6-1.3-47.5
			c0.8-15.8,2.4-31.5,4.7-47s3.7-31.5,4.2-47.9c-1.1,0-3.4-0.6-6.8-1.7c-2.3-1.1-3.7-2.4-4.2-3.8c-0.6-1.4-1.4-3-2.5-4.7
			c-3.4-3.9-5.2-8.6-5.5-14s-0.4-11.1-0.4-17.4c0-5.1-0.3-10-0.8-14.8c-0.6-4.8,0-10.3,1.7-16.5c3.4-10.7,7.8-21.7,13.1-33.1
			c5.4-11.3,11.4-22.2,18.2-32.6c6.8-10.4,14-20.3,21.6-29.7s15.1-17.4,22.5-24.2c3.9-3.9,8.1-6.5,12.3-7.6s8.9-2.3,14-3.4
			c3.9-1.1,7.9-2.4,11.9-3.8c3.9-1.4,8.2-2.1,12.7-2.1c2.3,0,4.7,0,7.2,0s4.7,0.6,6.4,1.7c1.1,1.1,2.4,2.4,3.8,3.8
			c1.4,1.4,2.4,2.7,3,3.8l-11,13.6l-11.9,11.9c2.3-1.1,4.4-2.1,6.4-3c2-0.8,4.1-1.8,6.4-3c4.5-1.1,8.9-1.5,13.1-1.3
			c4.2,0.3,8.6,0.7,13.1,1.3s8.5,1,11.9,1.3s6.2,1.3,8.5,3c2.8,2.3,5.6,3.7,8.5,4.2c2.8,0.6,4.8,2.3,5.9,5.1
			c1.7,6.2,1.4,13-0.8,20.3c-2.3,7.3-4.8,14.4-7.6,21.2c-4.5,9.6-11.2,19.8-19.9,30.5c-8.8,10.7-18.8,21.2-30.1,31.4
			c-11.3,10.2-23.3,19.6-36,28.4s-25,16-36.9,21.6c-4,1.7-7.6,3.3-11,4.7c-3.4,1.4-6.8,2.7-10.2,3.8c0.6,13,0.4,28-0.4,44.9
			c-0.8,17-2.1,34.3-3.8,52.1s-3.4,35.3-5.1,52.5c-1.7,17.2-3.1,32.6-4.2,46.2C2378.6,536.2,2489.9,509.1,2615.3,462.2z
			 M2306.8,269.8c-5.1,9.6-5.5,14.7-1.3,15.3c4.2,0.6,9.7,0,16.5-1.7c8.5-1.7,17.5-4.5,27.1-8.5c9.6-3.9,18.8-8.8,27.5-14.4
			c8.8-5.6,16.7-11.4,23.7-17.4c7.1-5.9,12-12,14.8-18.2c1.7-3.9-0.7-6.4-7.2-7.2s-14.3-0.7-23.3,0.4c-9,1.1-17.9,2.7-26.7,4.7
			s-14.6,3.5-17.4,4.7c0-3.9,1.4-9.6,4.2-17c-7.9,9.6-14.8,19.4-20.8,29.2C2318.3,249.6,2312.5,259.6,2306.8,269.8z M2465.3,350.3
			c-6.8,13-12.9,26.6-18.2,40.7c-5.4,14.1-10.7,28.1-16.1,42c-5.4,13.9-11.3,27.3-17.8,40.3s-14.3,24.9-23.3,35.6
			c-1.1,1.7-3.3,3.5-6.4,5.5c-3.1,2-5.5,3-7.2,3c-4,0.6-7.8,1.7-11.4,3.4c-3.7,1.7-7.2,2.8-10.6,3.4c-4.5,0-7.1-1.1-7.6-3.4
			c0-0.6,0.1-0.8,0.4-0.8c0.3,0,0.4-0.6,0.4-1.7c10.7-10.7,19.1-23.6,25-38.6s11.9-30.2,17.8-45.8c5.9-15.5,12.7-30.8,20.3-45.8
			s18.2-27.5,31.8-37.7c0.6-0.6,2.3-1.1,5.1-1.7s5.8-1,8.9-1.3c3.1-0.3,5.6-0.3,7.6,0C2466,347.6,2466.4,348.6,2465.3,350.3z"/>
		<path class="st2" d="M2798.4,180c3.4,13.6,2.1,27.4-3.8,41.5c-5.9,14.1-13.7,27.7-23.3,40.7c-9.6,13-19.9,25-30.9,36
			s-20.2,20.2-27.5,27.5c16.4-3.9,31.8-6.8,46.2-8.5s26.4-2,36-0.8c2.8,0.6,6.4,1,10.6,1.3c4.2,0.3,7.5,1,9.7,2.1
			c2.8,1.1,4.4,2.4,4.7,3.8s1,3.3,2.1,5.5c1.7,5.1,3.2,9.3,4.7,12.7c1.4,3.4,1.5,7.1,0.4,11c-1.1,2.8-2.8,5.8-5.1,8.9
			s-4.2,5.8-5.9,8.1c-17.5,25.4-35.9,51.1-55.1,77.1c-19.2,26-35.9,53.4-50,82.2c27.1-10.7,54.5-24.9,82.2-42.4s53.4-35.6,77.1-54.2
			s44.9-36.2,63.6-52.5c18.6-16.4,32.8-28.8,42.4-37.3c0,2.8-2.1,7.6-6.4,14.4c-4.2,6.8-6.9,11.6-8.1,14.4
			c-4.5,10.2-9,17.7-13.6,22.5c-4.5,4.8-9,12.3-13.6,22.5c-6.8,8.5-14.7,18.4-23.7,29.7c-9,11.3-17.5,21.5-25.4,30.5
			c-11.3,12.4-23.2,24.6-35.6,36.4c-12.4,11.9-25.6,22.9-39.4,33.1c-13.9,10.2-28.1,19.2-42.8,27.1c-14.7,7.9-30,13.8-45.8,17.8
			c-3.4,1.1-6.6,1.1-9.7,0c-3.1-1.1-6.4-2.3-9.7-3.4c-3.4-1.1-7.2-2-11.4-2.5c-4.2-0.6-7.5-2.3-9.7-5.1c-1.7-2.8-2.4-5.7-2.1-8.5
			c0.3-2.8,0.4-6.5,0.4-11c0.6-11.3,3.8-25.3,9.7-42s12.7-33.8,20.3-51.3s15.4-34,23.3-49.6c7.9-15.5,14.1-28.1,18.6-37.7
			c-4.5,0.6-9.9,1.6-16.1,3c-6.2,1.4-12.9,3-19.9,4.7c-7.1,1.7-14.1,3.3-21.2,4.7c-7.1,1.4-13.4,2.7-19.1,3.8
			c-2.8,1.1-5.4,1.1-7.6,0c-2.3-1.1-4.8-2.5-7.6-4.2c-2.3-1.1-5.2-2.5-8.9-4.2s-6.1-3.9-7.2-6.8c-0.6-1.7-0.3-3.2,0.8-4.7
			c1.1-1.4,1.7-3.2,1.7-5.5s1.1-5.2,3.4-8.9c2.3-3.7,4.9-7.3,8.1-11c3.1-3.7,6.1-6.9,8.9-9.7c2.8-2.8,5.1-5.1,6.8-6.8
			c6.8-9,14-19.2,21.6-30.5s14.5-22.6,20.8-33.9c6.2-11.3,11.6-22.2,16.1-32.6c4.5-10.4,7.3-19.6,8.5-27.5c0-2.8-2.5-4.4-7.6-4.7
			s-11.3,0.1-18.6,1.3c-7.3,1.1-15.1,2.7-23.3,4.7s-15.1,3.8-20.8,5.5c-4.5-0.6-10-3.1-16.5-7.6s-11.2-8.5-14-11.9
			c-2.8-2.8-4.2-5.2-4.2-7.2s-0.3-3.2-0.8-3.8c-3.4-4.5-1.4-8.8,5.9-12.7c3.4-2.3,8.8-4.9,16.1-8.1c7.3-3.1,15.4-6.1,24.2-8.9
			c8.8-2.8,17.7-5.4,26.7-7.6c9-2.3,16.7-3.7,22.9-4.2c3.4-0.6,7.9-0.4,13.6,0.4c5.6,0.8,11.6,2.7,17.8,5.5
			c2.8,1.1,6.6,3.7,11.4,7.6c4.8,4,8.6,6.8,11.4,8.5c4.5,2.8,7.3,4.7,8.5,5.5C2794.4,172.7,2796.1,175.4,2798.4,180z M3050.9,203.7
			c2.3,19.8,3.8,42,4.7,66.5s1.1,49.9,0.8,75.9s-0.8,51.6-1.7,76.7c-0.8,25.1-1.7,48.2-2.5,69.1s-1.7,38.4-2.5,52.5
			c-0.8,14.1-1.3,23.4-1.3,28c-11.9-15.8-20.5-38-25.8-66.5c-5.4-28.5-8.5-59.8-9.3-93.7s-0.1-68.8,2.1-104.7
			c2.3-35.9,5.1-69.4,8.5-100.4c-0.6-2.3,0.4-4.1,3-5.5c2.5-1.4,5.2-3.2,8.1-5.5c1.7-1.1,3.4-2.8,5.1-5.1c1.7-2.3,3.1-3.4,4.2-3.4
			c3.4-0.6,5.2,1.3,5.5,5.5C3049.9,197.3,3050.4,200.9,3050.9,203.7z"/>
	</g>
	<g>
		<path d="M1167.3,847c-2.4,0-3.5-0.8-3.5-2.2c0-0.8,0.3-1.5,1.1-1.9s1.6-0.8,2.7-1.3c1.7-0.6,3.2-1.2,4.6-1.9
			c1.4-0.8,2.1-2.3,2.1-4.6v-81.1c0-3.5-0.5-6.2-1.4-8.1c-0.9-2-2.8-3.3-5.6-3.8c-1.1-0.3-1.7-1-1.7-2.5c0-1.4,0.5-2.1,1.5-2.4
			c2.9-0.6,5.8-1.4,8.6-2.4c2.9-1,5.6-2,8.1-3c2.5-1,4.7-1.8,6.4-2.4c0.8-0.3,1.5-0.5,2-0.5c0.6,0,0.9,0.2,1.2,0.5
			c0.3,0.3,0.3,0.8,0.3,1.4c0,1-0.2,2.7-0.5,5.3c-0.3,2.5-0.6,5.8-0.7,9.7l0.2,59.8c0,1.2,0.4,1.9,1.2,1.9c0.4,0,1-0.2,1.8-0.5
			c0.8-0.3,1.4-0.8,2.1-1.5c4.2-3.6,7.9-7.2,11.1-10.7c3.1-3.5,5.3-5.9,6.4-7.5c0.6-0.7,0.9-1.2,1.2-1.7c0.3-0.4,0.3-0.8,0.3-1.2
			c0-0.6-0.4-1.1-1.4-1.6c-0.9-0.5-2.1-0.8-3.6-1.1c-1.4-0.3-2-1-2-2c0-0.8,0.4-1.4,1.2-1.7c0.8-0.3,1.6-0.5,2.5-0.5h8.1
			c1.9,0,4.2-0.1,7.1-0.3c2.8-0.3,5.5-0.5,8.1-0.8c2.6-0.3,4.6-0.5,5.9-0.6c1.4,0,2,0.6,2,1.9c0,0.8-0.3,1.4-1.1,2s-1.7,1-2.9,1.4
			c-2,0.4-4.2,1.2-6.4,2.3c-2.3,1-4.6,2.3-7,3.6c-1.4,0.8-3.3,2-5.5,3.6c-2.2,1.7-4.5,3.5-7,5.4c-2.4,1.9-4.6,3.9-6.6,5.8
			c-0.6,0.6-0.8,1.1-0.8,1.7c0,0.3,0.1,0.6,0.3,0.8c0.2,0.3,0.3,0.5,0.6,0.8c2.8,3.5,5.5,6.9,8.2,10.3c2.7,3.5,5.3,6.7,7.9,9.7
			s4.8,5.7,6.9,8c1.9,1.9,4.2,3.6,6.8,5.3c2.6,1.6,4.7,2.7,6.4,3.2c1.1,0.4,2.2,0.8,3.2,1.3c1,0.4,1.6,1,1.6,1.9
			c0,1.4-1.2,2.2-3.5,2.2c-6,0-12-0.1-18.1-0.3c-6-0.2-11.9-0.3-17.4-0.3c-2.1,0-3.1-0.7-3.1-2c0-0.8,0.3-1.4,0.9-1.9
			s1.4-0.9,2.4-1.3c1-0.3,1.8-0.8,2.4-1.3c0.6-0.5,0.8-1.1,1-1.8c0-0.4-0.2-0.9-0.5-1.4c-0.3-0.5-0.8-1.1-1.4-1.9l-17.3-22.3
			c-0.4-0.6-0.8-0.8-1.2-0.8c-0.6,0.1-0.8,0.6-0.8,1.4c-0.1,1.5-0.2,3.2-0.2,5s0,3.6,0,5.3c0,1.9,0,3.8,0,5.8s0.1,4,0.2,5.8
			c0,2,0.4,3.5,1.4,4.3c0.8,0.9,2.2,1.6,3.8,2.2c0.8,0.3,1.7,0.7,2.5,1.1s1.2,1,1.2,1.9c0,0.8-0.4,1.4-1.2,1.8s-1.5,0.6-2.2,0.6
			c-2.1,0-4-0.1-5.5-0.3s-3.1-0.3-4.5-0.4c-1.4-0.1-3.1-0.2-5.2-0.2c-1.9,0-3.6,0.1-5.2,0.2c-1.5,0.1-3.1,0.3-4.8,0.4
			C1171.5,846.9,1169.6,847,1167.3,847z"/>
		<path d="M1312.1,848.8c-6.5,0-12.5-1.4-17.6-4.4c-5.3-3-9.4-7-12.5-12.2c-3.1-5.3-4.7-11.1-4.7-17.6c0-5.1,1-10,3-14.7
			c2-4.7,4.7-8.8,8.1-12.5c3.5-3.6,7.5-6.6,12.1-8.7c4.7-2.2,9.7-3.2,15-3.2c6.8,0,12.9,1.6,18.2,4.7c5.4,3.1,9.7,7.4,12.9,12.5
			c3.2,5.3,4.8,10.9,4.8,17.1c0,6.9-1.4,13.3-4.4,19.2c-3,5.9-7.3,10.7-13.1,14.3C1328.2,847,1320.9,848.8,1312.1,848.8z
			 M1315.4,842.3c2.8,0,5.3-0.6,7.4-1.7c2.2-1.1,3.9-2.8,5.3-5.2c1.4-2.4,2.3-5.4,2.7-9.2c0.5-3.8,0.8-8,0.8-12.4
			c0-5.8-0.8-11.2-2.4-16c-1.5-4.7-3.7-8.6-6.5-11.5c-2.8-2.9-6-4.3-9.8-4.3c-2.1,0-4.1,0.3-5.8,1.1c-1.7,0.8-3.3,1.9-4.7,3.6
			c-2,2.4-3.4,5.5-4.1,9.6c-0.8,4.1-1.1,8.7-1.1,14.1c0,5.3,0.8,10.4,2.4,15.3c1.6,4.9,3.8,8.9,6.5,12
			C1308.9,840.8,1312,842.3,1315.4,842.3z"/>
		<path d="M1388.4,847c-0.9,0-1.7-0.2-2.4-0.6c-0.7-0.4-1-0.9-1-1.6c0-0.8,0.3-1.5,1.1-2c0.8-0.4,1.6-0.8,2.7-1.2
			c2.4-0.7,4-1.4,4.9-2.5c0.9-0.9,1.4-2.3,1.4-3.9v-37.5c0-2.5-0.3-4.7-1.1-6.4c-0.8-1.7-2.3-2.9-4.6-3.4c-0.4-0.3-0.9-0.5-1.4-0.9
			c-0.4-0.4-0.7-0.9-0.7-1.8c0-1.4,0.6-2.4,1.9-2.6c3.3-0.8,7-2.1,10.9-3.6c3.9-1.5,7.2-3,9.8-4.4c0.6-0.3,1.2-0.7,1.9-1
			s1.2-0.5,1.5-0.5c0.8,0,1.4,0.6,1.4,1.7c0,0.4,0,1.4-0.1,3c-0.1,1.5-0.1,3.2-0.2,5.1s-0.2,3.5-0.3,4.9c0,0.7,0.2,1,0.5,1
			c1.8-2.4,3.8-4.5,6-6.5s4.6-3.6,7.1-5s5-2,7.5-2c3.2,0,5.6,0.7,7.2,2c1.6,1.4,2.4,3,2.4,5c0,1.5-0.4,3.2-1.3,5
			c-0.8,1.8-1.9,3.3-3.1,4.6c-1.3,1.3-2.7,1.9-4.2,1.9c-0.8,0-1.9-0.2-2.8-0.6c-1-0.4-2-0.8-3-1.4c-1-0.4-2-0.8-3.1-1.4
			c-1-0.4-2-0.7-2.9-0.7c-2.8,0-5.3,1-7.5,3.1c-2.2,2-3.3,6.1-3.3,12v29.3c0,2,0.8,3.6,2.2,4.6c1.4,1,3.6,2,6.7,2.9
			c1.2,0.3,2.1,0.7,2.7,1.1c0.6,0.4,0.9,1,0.9,1.9c0,1.4-1,2.2-3,2.2c-3.3,0-6.4-0.2-9.4-0.4c-3-0.3-5.8-0.4-8.7-0.4
			c-1.9,0-3.7,0.1-5.4,0.2c-1.7,0.1-3.5,0.3-5.3,0.4C1392.6,846.9,1390.6,847,1388.4,847z"/>
		<path d="M1506.1,848.8c-6.1,0-11.5-1.5-16.2-4.7c-4.7-3.1-8.3-7.4-11-12.9c-2.6-5.5-4-11.8-4-18.7c0-6.8,1.6-13,4.7-18.6
			c3.1-5.6,7.4-10.1,12.7-13.4c5.3-3.3,11.2-5,17.5-5c4.7,0,8.8,0.9,12.5,2.9c3.6,1.9,6.6,4.6,8.7,8c2.2,3.4,3.2,7.2,3.2,11.4
			c0,4-1.7,6-5.2,6h-33.8c-1.5,0-2.7,0.4-3.4,1.3c-0.8,0.8-1.1,2.4-1.1,4.6c0,4.7,1,8.9,3.1,12.6c2,3.8,4.8,6.8,8.2,9
			c3.5,2.2,7.4,3.3,11.9,3.3c3.2,0,6.2-0.7,8.9-1.9c2.7-1.3,5.3-3.1,7.7-5.3c0.4-0.3,0.8-0.7,1.2-0.9c0.3-0.3,0.7-0.4,1-0.4
			c1.1,0,1.7,0.7,1.7,2c0,1.5-0.7,3.5-2,5.7c-1.4,2.5-3.2,5-5.8,7.3c-2.5,2.4-5.5,4.2-9.1,5.6
			C1514.1,848.1,1510.3,848.8,1506.1,848.8z M1495.4,797.3h11.9c2.9,0,5.1-0.1,6.5-0.2s2.8-0.3,4.2-0.7c0.6-0.1,0.9-0.6,1.2-1.4
			c0.3-0.8,0.3-1.8,0.3-2.9c0-3-1.1-5.5-3.4-7.5c-2.3-2-5.1-3.1-8.4-3.1c-2.4,0-4.6,0.7-6.9,2.1c-2.2,1.4-4.1,3.1-5.5,5.3
			c-1.4,2.1-2.1,4.2-2,6.5C1493.2,796.7,1493.9,797.3,1495.4,797.3z"/>
		<path d="M1584.5,848.8c-2.6,0-5.2-0.8-7.5-2.2s-4.3-3.3-5.8-5.7s-2.2-4.7-2.2-7.2c0-3.8,1.1-6.9,3.3-9.2c2.2-2.4,5.5-4.5,10-6.4
			l15.5-6.7c2.2-0.8,3.6-1.7,4.1-2.5c0.5-0.8,0.8-2.2,0.8-4.3l0.3-9.8c0.1-3.1-0.5-5.6-1.9-7.5c-1.4-1.9-3.5-2.8-6.3-2.8
			c-1.4,0-3,0.3-4.5,0.8c-1.5,0.6-2.8,1.3-3.6,2.2c-0.4,0.4-0.8,1-0.9,1.8c-0.2,0.8-0.3,1.4-0.3,2.1c0,0.6,0,1.3,0.1,2.1
			c0.1,0.8,0.1,1.6,0.1,2.3s-0.8,1.5-2.5,2.5c-1.7,1-3.6,1.9-5.7,2.6c-2.1,0.8-3.9,1.2-5.3,1.2c-0.8,0-1.4-0.3-1.9-0.8
			c-0.4-0.6-0.7-1.2-0.7-2c0-1.8,0.6-3.6,1.8-5.4s3.1-3.8,5.6-5.9c2.8-2.4,5.8-4.4,9.2-6.3s6.6-3.3,9.7-4.4c3.1-1.1,5.9-1.7,8.2-1.7
			c5.3,0,9.6,1.8,12.8,5.3c3.2,3.5,4.7,8.1,4.7,13.7l-0.8,35.7c-0.1,2.5,0.3,4.5,1.4,6.2c1,1.7,2.4,2.5,3.9,2.5c2.4,0,4.2-0.7,5.7-2
			c0.4-0.4,0.8-0.7,1.2-0.7c0.6,0,1,0.2,1.4,0.6c0.4,0.4,0.6,0.8,0.6,1.4c0,1.2-0.9,2.7-2.6,4.5c-2,2-4.2,3.6-6.4,4.6
			c-2.3,1-4.5,1.6-6.8,1.6c-5.8,0-10.7-3.1-14.3-9.2h-0.5c-3.6,3.2-7,5.6-10.1,7C1591.2,848.1,1587.9,848.8,1584.5,848.8z
			 M1593.6,838.8c1.5,0,2.9-0.3,4-0.8c1.1-0.5,2-1.2,2.8-2.1c0.4-0.6,0.8-1.2,1.1-2c0.3-0.8,0.5-1.9,0.6-3.3l0.3-10.7
			c0.1-1.1,0-1.9-0.3-2.3c-0.3-0.4-0.8-0.6-1.2-0.6c-0.3,0-0.6,0-1,0.1c-0.4,0.1-0.9,0.3-1.5,0.6c-4.1,1.7-7,3.5-8.8,5.3
			s-2.6,4.3-2.6,7.3s0.8,5.2,2.2,6.4C1590.6,838.1,1592.1,838.8,1593.6,838.8z"/>
		<path d="M1666.4,847c-0.8,0-1.7-0.2-2.4-0.6s-1-0.9-1-1.6c0-0.8,0.3-1.5,1.1-2c0.8-0.4,1.6-0.8,2.7-1.2c1.7-0.4,3.2-1,4.6-1.9
			c1.4-0.8,2.1-2.3,2.1-4.5v-37.3c0-2.5-0.3-4.7-1.1-6.6s-2.3-3.1-4.6-3.6c-0.4-0.3-0.8-0.5-1.2-0.9c-0.3-0.4-0.5-1-0.5-1.9
			c0-1.4,0.5-2.3,1.5-2.5c3.9-0.8,7.7-2.1,11.6-3.6c3.8-1.5,7.2-3.1,10.1-4.7c0.4-0.3,0.8-0.5,1.4-0.8c0.4-0.3,0.8-0.5,1.4-0.5
			c0.6,0,0.9,0.2,1.1,0.6s0.3,0.8,0.3,1.3c0,0.8-0.2,2.2-0.4,4.3c-0.3,2.1-0.4,4-0.4,5.5c0,0.4,0,0.9,0.1,1.4s0.2,0.8,0.3,0.9
			c3.8-3.6,7.7-6.4,11.8-8.3c4.1-2,8.6-3,13.7-3c5.7,0,10.4,2.2,14.2,6.5c3.8,4.3,5.8,10.1,5.8,17.1v36.3c0,2.2,0.7,3.6,2,4.3
			c1.4,0.7,2.8,1.3,4.5,1.9c0.8,0.3,1.7,0.8,2.5,1.3c0.8,0.5,1.2,1.2,1.2,2.1c0,0.7-0.3,1.2-1.1,1.5c-0.8,0.3-1.4,0.5-2.1,0.5
			c-2.2,0-4.2-0.1-5.8-0.3c-1.7-0.2-3.3-0.3-4.9-0.4c-1.6-0.1-3.4-0.2-5.4-0.2c-1.9,0-3.6,0.1-5.3,0.2c-1.7,0.1-3.4,0.3-5.1,0.4
			c-1.7,0.2-3.7,0.3-5.9,0.3c-0.6,0-1.2-0.2-1.9-0.5s-1-0.8-1-1.5c0-0.8,0.3-1.6,1-2.1c0.7-0.5,1.4-0.9,2.4-1.3
			c1.7-0.6,3.1-1.2,4.4-1.9c1.3-0.7,1.9-2.1,1.9-4.3v-33.8c0-4.4-1.1-8-3.2-10.5c-2.2-2.5-5.1-3.8-8.7-3.8c-3,0-5.6,0.4-7.8,1.4
			s-4.4,2.2-6.5,3.8c-0.4,0.3-0.8,0.8-1,1.4c-0.3,0.6-0.3,1.3-0.3,1.9v39.7c0,2.2,0.7,3.7,1.9,4.4c1.3,0.8,2.7,1.3,4.4,1.8
			c2.4,0.8,3.5,1.9,3.5,3.1c0,0.7-0.3,1.2-0.8,1.6c-0.6,0.4-1.3,0.6-2.2,0.6c-2.2,0-4.2-0.1-5.8-0.3c-1.7-0.2-3.3-0.3-4.8-0.4
			c-1.5-0.1-3.3-0.2-5.3-0.2c-1.9,0-3.6,0.1-5.3,0.2c-1.7,0.1-3.4,0.3-5.2,0.4C1670.7,846.9,1668.6,847,1666.4,847z"/>
		<path d="M1783.3,847c-0.9,0-1.6-0.2-2.2-0.6c-0.6-0.4-0.8-0.9-0.8-1.6c0-0.8,0.3-1.5,1-2c0.7-0.4,1.4-0.8,2.4-1
			c2.6-0.7,4.6-1.4,5.8-2.2c1.2-0.8,1.8-2.1,1.8-4v-36.1c0-3.6-0.6-6.2-1.7-8s-3-2.9-5.7-3.3c-0.6-0.1-1-0.4-1.4-0.9
			s-0.5-1.1-0.5-1.8c0-1.5,0.6-2.4,1.9-2.5c5.3-1.1,10-2.6,13.9-4.6c3.9-1.9,7-3.5,9.1-4.6c1.5-0.8,2.5-1.2,3-1.2
			c1.2,0,1.9,0.6,1.9,1.7c-0.1,1.5-0.3,3.7-0.7,6.4c-0.3,2.7-0.7,5.6-0.9,8.6c-0.3,3.1-0.4,5.9-0.4,8.6v37.5c0,1.7,0.6,3,1.9,3.8
			c1.2,0.9,3.1,1.7,5.8,2.5c0.8,0.3,1.7,0.7,2.4,1.1c0.7,0.4,1,1,1,1.9c0,1.4-0.9,2-2.8,2c-2.1,0-4.2-0.1-6.1-0.2
			c-1.9-0.1-3.8-0.3-5.7-0.3c-1.9-0.1-3.7-0.2-5.8-0.2c-1.9,0-3.7,0.1-5.5,0.2c-1.8,0.1-3.6,0.3-5.4,0.4
			C1787.5,846.9,1785.5,847,1783.3,847z M1799.9,763c-3.2,0-5.9-1.1-8.1-3.3c-2.2-2.2-3.3-4.9-3.3-8c0-3.5,1.1-6.3,3.3-8.5
			s4.9-3.3,8.1-3.3c3.3,0,6.1,1.1,8.3,3.3s3.3,5.1,3.3,8.5c0,3.1-1.1,5.8-3.3,8C1806.1,761.9,1803.3,763,1799.9,763z"/>
		<path d="M1874.4,848.8c-3.6,0-7-0.5-10.3-1.4c-3.3-0.9-6.3-2.4-8.9-4.2c-0.8-1.5-1.4-4-1.8-7.3c-0.4-3.3-0.6-6.6-0.6-9.8
			c0-1.4,0.9-2,2.8-2c0.8,0,1.4,0.3,2,0.7c0.6,0.4,0.9,0.9,1.2,1.5c1.9,4.9,4.2,8.8,7.2,11.8c2.9,3,6.2,4.4,9.8,4.4
			c3.1,0,5.6-0.9,7.3-2.9c1.8-1.9,2.6-4.2,2.6-6.8c0-3-1.1-5.5-3.2-7.5c-2.1-1.9-5.2-4.1-8.9-6.2c-3.5-1.9-6.5-3.9-9.2-6
			c-2.7-2.1-4.8-4.5-6.4-7.2c-1.5-2.7-2.4-5.9-2.4-9.6c0-4.1,1-7.7,3.1-10.9c2.1-3.1,5.1-5.5,8.9-7.3c3.8-1.8,8.2-2.6,13.2-2.6
			c3.6,0,6.8,0.4,9.6,1.2c2.8,0.8,4.8,1.5,5.9,2.4c0.8,1.1,1.6,3.1,2.2,6.1c0.6,3,0.8,6,0.8,9.2c0,1-0.8,1.5-2.5,1.5
			c-0.8,0-1.5-0.3-2.4-0.7c-0.8-0.4-1.3-0.8-1.5-1.4c-1.4-4.1-3.3-7.2-5.5-9.3c-2.2-2.1-4.7-3.1-7.6-3.1c-2.5,0-4.8,0.8-7,2.4
			c-2,1.6-3.1,3.9-3.1,6.8c0,2.4,0.9,4.4,2.9,6.4c1.9,1.9,4.7,3.8,8.4,5.8c7,3.8,12,7.4,15.2,10.8c3.1,3.4,4.7,7.9,4.7,13.6
			c0,6.8-2.4,12.1-7,16.1C1889.6,846.8,1882.9,848.8,1874.4,848.8z"/>
		<path d="M1966.4,848.8c-5.8,0-11-1.5-15.7-4.5c-4.7-3-8.4-7.1-11.1-12.4c-2.7-5.3-4.1-11.2-4.1-17.7c0-7.2,1.7-13.7,5-19.6
			c3.3-5.8,7.7-10.4,13.2-13.9c5.5-3.5,11.6-5.2,18.4-5.2c8.5,0,15.5,2.6,21.4,8c1.1,1,1.7,2,1.7,3c0,0.8-0.4,1.8-1.4,3
			c-0.8,1.2-1.9,2.3-3.1,3.1c-1.2,0.9-2.3,1.4-3.1,1.4c-0.9,0-1.7-0.3-2.5-0.8c-0.8-0.6-1.5-1.2-2.4-1.9c-2.8-2.2-5.7-4.1-8.6-5.7
			c-3-1.5-5.6-2.4-7.6-2.4c-4.6,0-8.1,2-10.7,6s-3.8,10-3.8,18c0,5.4,0.9,10.2,2.8,14.2c1.9,4,4.6,7.1,8,9.3c3.5,2.2,7.5,3.3,12,3.3
			c3.3,0,6.2-0.5,8.6-1.6c2.4-1,4.9-2.7,7.5-5.1c0.4-0.3,0.8-0.7,1.3-0.9c0.4-0.3,0.8-0.4,1.3-0.4c1.2,0,1.9,0.8,1.9,2.6
			c0,0.4-0.1,1.1-0.3,1.9c-0.3,0.8-0.7,1.8-1.4,2.7c-1.2,2.2-3.2,4.6-5.9,7c-2.7,2.5-5.8,4.4-9.4,6
			C1974.6,848.1,1970.7,848.8,1966.4,848.8z"/>
		<path d="M2030.4,847c-2.2,0-3.3-0.8-3.3-2.2c0-1.2,1.3-2.3,3.8-3.1c1.7-0.6,3.2-1.2,4.6-1.9c1.4-0.8,2.1-2.3,2.1-4.6V754
			c0-3-0.4-5.6-1.3-7.8c-0.8-2.2-2.7-3.6-5.6-4.2c-1.1-0.3-1.7-1-1.7-2.5c0-1.2,0.5-2,1.5-2.4c2.2-0.6,4.8-1.3,7.7-2.3
			c3-0.9,5.8-1.9,8.6-3c2.8-1,5.2-1.9,7-2.4c0.8-0.3,1.4-0.5,1.7-0.5c0.7,0,1.1,0.2,1.4,0.5c0.3,0.3,0.3,0.8,0.3,1.2
			c0,0.7-0.1,1.5-0.3,2.6c-0.3,1.1-0.4,2.6-0.6,4.6c-0.2,1.9-0.3,4.6-0.3,7.9v35.5c0,1.4,0.1,2.5,0.2,3.2c0.1,0.8,0.4,1.4,0.8,1.9
			c1.7-1.4,3.7-2.9,6.2-4.6c2.5-1.7,5.3-3.2,8.3-4.5c3.1-1.3,6.5-1.9,10.2-1.9c5.8,0,10.6,2.1,14.4,6.4c3.8,4.2,5.8,9.9,5.8,17v35.9
			c0,2.4,0.7,4,2,4.8c1.4,0.9,2.8,1.6,4.3,2.2c1.2,0.4,2.1,0.8,2.7,1.4c0.6,0.4,0.9,1,0.9,1.9c0,1.4-1.2,2.2-3.5,2.2
			c-2.5,0-4.6-0.1-6.1-0.3s-2.9-0.3-4.2-0.4c-1.4-0.1-3.1-0.2-5.5-0.2c-2.2,0-4,0.1-5.3,0.2c-1.3,0.1-2.5,0.3-3.9,0.4
			c-1.4,0.2-3.3,0.3-5.8,0.3c-2.5,0-3.6-0.8-3.6-2.4c0-0.8,0.3-1.4,1-1.9c0.7-0.4,1.5-0.8,2.5-1.2c1.5-0.4,3-1.2,4.2-2.2
			s1.9-2.6,1.9-5v-33.1c0-2.5-0.6-4.8-1.9-7c-1.2-2-2.7-3.7-4.6-4.9c-1.9-1.2-3.8-1.9-5.9-1.9c-1.8,0-3.8,0.3-6,0.8s-4.2,1.5-6,2.8
			c-1.2,0.9-2,1.9-2.4,2.9c-0.4,1-0.6,2.7-0.6,5.1v35.7c0.1,2.2,0.8,3.7,1.9,4.6c1.2,0.8,2.5,1.5,3.9,2.1c1.1,0.3,1.9,0.8,2.5,1.2
			s0.9,1,0.9,1.9c0,1.5-1,2.4-3,2.4c-2.2,0-4.2-0.1-5.8-0.3c-1.7-0.2-3.2-0.3-4.7-0.4c-1.5-0.1-3.2-0.2-5.3-0.2
			c-1.9,0-3.6,0.1-5.3,0.2c-1.6,0.1-3.3,0.3-5,0.4C2034.7,846.9,2032.7,847,2030.4,847z"/>
		<path d="M2146.1,818.8c-1,0-1.5-0.5-1.5-1.5c0-2.9,0.3-5.3,0.8-7c0.6-1.8,1.4-2.7,2.5-2.8c5.8-0.8,11.8-1.8,17.9-2.5
			c6.2-0.8,12.1-1.5,17.9-2.1c0.8,0,1.4,0.2,1.8,0.6c0.3,0.4,0.4,0.8,0.4,1.4c0,3-0.3,5.3-0.7,6.8c-0.4,1.5-1.4,2.4-2.6,2.5
			c-5.7,0.8-11.7,1.6-18.1,2.5C2158.1,817.5,2152,818.2,2146.1,818.8z"/>
		<path d="M2221.8,847c-2.4,0-3.5-0.8-3.5-2.2c0-0.8,0.3-1.5,1.1-1.9c0.8-0.4,1.6-0.8,2.7-1.3c1.7-0.6,3.2-1.2,4.6-1.9
			c1.4-0.8,2.1-2.3,2.1-4.6v-81.1c0-3.5-0.5-6.2-1.4-8.1c-0.9-2-2.8-3.3-5.6-3.8c-1.1-0.3-1.7-1-1.7-2.5c0-1.4,0.5-2.1,1.5-2.4
			c2.9-0.6,5.8-1.4,8.6-2.4s5.6-2,8.1-3c2.5-1,4.7-1.8,6.4-2.4c0.8-0.3,1.5-0.5,2-0.5c0.6,0,0.9,0.2,1.2,0.5
			c0.3,0.3,0.3,0.8,0.3,1.4c0,1-0.2,2.7-0.5,5.3c-0.3,2.5-0.6,5.8-0.7,9.7l0.2,59.8c0,1.2,0.4,1.9,1.2,1.9c0.4,0,1-0.2,1.8-0.5
			c0.8-0.3,1.4-0.8,2.1-1.5c4.2-3.6,7.9-7.2,11.1-10.7c3.1-3.5,5.3-5.9,6.4-7.5c0.6-0.7,0.9-1.2,1.2-1.7c0.3-0.4,0.3-0.8,0.3-1.2
			c0-0.6-0.4-1.1-1.4-1.6c-0.9-0.5-2.1-0.8-3.6-1.1c-1.4-0.3-2-1-2-2c0-0.8,0.4-1.4,1.2-1.7c0.8-0.3,1.6-0.5,2.5-0.5h8.1
			c1.9,0,4.2-0.1,7.1-0.3c2.8-0.3,5.5-0.5,8.1-0.8c2.6-0.3,4.6-0.5,5.9-0.6c1.4,0,2,0.6,2,1.9c0,0.8-0.3,1.4-1.1,2s-1.7,1-2.9,1.4
			c-2,0.4-4.2,1.2-6.4,2.3c-2.3,1-4.6,2.3-7,3.6c-1.4,0.8-3.3,2-5.5,3.6c-2.2,1.7-4.5,3.5-7,5.4c-2.4,1.9-4.6,3.9-6.6,5.8
			c-0.6,0.6-0.8,1.1-0.8,1.7c0,0.3,0.1,0.6,0.3,0.8c0.2,0.3,0.3,0.5,0.6,0.8c2.8,3.5,5.5,6.9,8.2,10.3c2.7,3.5,5.3,6.7,7.9,9.7
			c2.5,3,4.8,5.7,6.9,8c1.9,1.9,4.2,3.6,6.8,5.3c2.6,1.6,4.7,2.7,6.4,3.2c1.1,0.4,2.2,0.8,3.2,1.3c1,0.4,1.6,1,1.6,1.9
			c0,1.4-1.2,2.2-3.5,2.2c-6,0-12-0.1-18.1-0.3c-6-0.2-11.9-0.3-17.4-0.3c-2.1,0-3.1-0.7-3.1-2c0-0.8,0.3-1.4,0.9-1.9
			c0.6-0.5,1.4-0.9,2.4-1.3c1-0.3,1.8-0.8,2.4-1.3c0.6-0.5,0.8-1.1,1-1.8c0-0.4-0.2-0.9-0.5-1.4c-0.3-0.5-0.8-1.1-1.4-1.9
			l-17.3-22.3c-0.4-0.6-0.8-0.8-1.2-0.8c-0.6,0.1-0.8,0.6-0.8,1.4c-0.1,1.5-0.2,3.2-0.2,5s0,3.6,0,5.3c0,1.9,0,3.8,0,5.8
			s0.1,4,0.2,5.8c0,2,0.4,3.5,1.4,4.3c0.8,0.9,2.2,1.6,3.8,2.2c0.8,0.3,1.7,0.7,2.5,1.1c0.8,0.4,1.2,1,1.2,1.9
			c0,0.8-0.4,1.4-1.2,1.8c-0.8,0.4-1.5,0.6-2.2,0.6c-2.1,0-4-0.1-5.5-0.3s-3.1-0.3-4.5-0.4c-1.4-0.1-3.1-0.2-5.2-0.2
			c-1.9,0-3.6,0.1-5.2,0.2c-1.5,0.1-3.1,0.3-4.8,0.4C2225.9,846.9,2224,847,2221.8,847z"/>
		<path d="M2366.5,848.8c-6.5,0-12.5-1.4-17.6-4.4c-5.3-3-9.4-7-12.5-12.2c-3.1-5.3-4.7-11.1-4.7-17.6c0-5.1,1-10,3-14.7
			c2-4.7,4.7-8.8,8.1-12.5c3.5-3.6,7.5-6.6,12.1-8.7c4.7-2.2,9.7-3.2,15-3.2c6.8,0,12.9,1.6,18.2,4.7c5.4,3.1,9.7,7.4,12.9,12.5
			c3.2,5.3,4.8,10.9,4.8,17.1c0,6.9-1.4,13.3-4.4,19.2c-3,5.9-7.3,10.7-13.1,14.3C2382.6,847,2375.3,848.8,2366.5,848.8z
			 M2369.9,842.3c2.8,0,5.3-0.6,7.4-1.7c2.2-1.1,3.9-2.8,5.3-5.2s2.3-5.4,2.7-9.2c0.5-3.8,0.8-8,0.8-12.4c0-5.8-0.8-11.2-2.4-16
			c-1.5-4.7-3.7-8.6-6.5-11.5c-2.8-2.9-6-4.3-9.8-4.3c-2.1,0-4.1,0.3-5.8,1.1c-1.7,0.8-3.3,1.9-4.7,3.6c-2,2.4-3.4,5.5-4.1,9.6
			c-0.8,4.1-1.1,8.7-1.1,14.1c0,5.3,0.8,10.4,2.4,15.3c1.6,4.9,3.8,8.9,6.5,12C2363.3,840.8,2366.4,842.3,2369.9,842.3z"/>
		<path d="M2470.8,848.8c-5.8,0-11-1.5-15.7-4.5c-4.7-3-8.4-7.1-11.1-12.4c-2.7-5.3-4.1-11.2-4.1-17.7c0-7.2,1.7-13.7,5-19.6
			c3.3-5.8,7.7-10.4,13.2-13.9s11.6-5.2,18.4-5.2c8.5,0,15.5,2.6,21.4,8c1.1,1,1.7,2,1.7,3c0,0.8-0.4,1.8-1.4,3
			c-0.8,1.2-1.9,2.3-3.1,3.1c-1.2,0.9-2.3,1.4-3.1,1.4c-0.9,0-1.7-0.3-2.5-0.8c-0.8-0.6-1.5-1.2-2.4-1.9c-2.8-2.2-5.7-4.1-8.6-5.7
			c-3-1.5-5.6-2.4-7.6-2.4c-4.6,0-8.1,2-10.7,6c-2.5,4-3.8,10-3.8,18c0,5.4,0.9,10.2,2.8,14.2c1.9,4,4.6,7.1,8,9.3
			c3.5,2.2,7.5,3.3,12,3.3c3.3,0,6.2-0.5,8.6-1.6c2.4-1,4.9-2.7,7.5-5.1c0.4-0.3,0.8-0.7,1.3-0.9c0.4-0.3,0.8-0.4,1.3-0.4
			c1.2,0,1.9,0.8,1.9,2.6c0,0.4-0.1,1.1-0.3,1.9c-0.3,0.8-0.7,1.8-1.4,2.7c-1.2,2.2-3.2,4.6-5.9,7c-2.7,2.5-5.8,4.4-9.4,6
			C2479,848.1,2475.1,848.8,2470.8,848.8z"/>
		<path d="M2534.9,847c-2.2,0-3.3-0.8-3.3-2.2c0-1.2,1.3-2.3,3.8-3.1c1.7-0.6,3.2-1.2,4.6-1.9c1.4-0.8,2.1-2.3,2.1-4.6V754
			c0-3-0.4-5.6-1.3-7.8c-0.8-2.2-2.7-3.6-5.6-4.2c-1.1-0.3-1.7-1-1.7-2.5c0-1.2,0.5-2,1.5-2.4c2.2-0.6,4.8-1.3,7.7-2.3
			c3-0.9,5.8-1.9,8.6-3c2.8-1,5.2-1.9,7-2.4c0.8-0.3,1.4-0.5,1.7-0.5c0.7,0,1.1,0.2,1.4,0.5c0.3,0.3,0.3,0.8,0.3,1.2
			c0,0.7-0.1,1.5-0.3,2.6c-0.3,1.1-0.4,2.6-0.6,4.6c-0.2,1.9-0.3,4.6-0.3,7.9v35.5c0,1.4,0.1,2.5,0.2,3.2c0.1,0.8,0.4,1.4,0.8,1.9
			c1.7-1.4,3.7-2.9,6.2-4.6c2.5-1.7,5.3-3.2,8.3-4.5c3.1-1.3,6.5-1.9,10.2-1.9c5.8,0,10.6,2.1,14.4,6.4c3.8,4.2,5.8,9.9,5.8,17v35.9
			c0,2.4,0.7,4,2,4.8c1.4,0.9,2.8,1.6,4.3,2.2c1.2,0.4,2.1,0.8,2.7,1.4c0.6,0.4,0.9,1,0.9,1.9c0,1.4-1.2,2.2-3.5,2.2
			c-2.5,0-4.6-0.1-6.1-0.3s-2.9-0.3-4.2-0.4c-1.4-0.1-3.1-0.2-5.5-0.2c-2.2,0-4,0.1-5.3,0.2c-1.3,0.1-2.5,0.3-3.9,0.4
			c-1.4,0.2-3.3,0.3-5.8,0.3c-2.5,0-3.6-0.8-3.6-2.4c0-0.8,0.3-1.4,1-1.9c0.7-0.4,1.5-0.8,2.5-1.2c1.5-0.4,3-1.2,4.2-2.2
			c1.2-1,1.9-2.6,1.9-5v-33.1c0-2.5-0.6-4.8-1.9-7c-1.2-2-2.7-3.7-4.6-4.9c-1.9-1.2-3.8-1.9-5.9-1.9c-1.8,0-3.8,0.3-6,0.8
			s-4.2,1.5-6,2.8c-1.2,0.9-2,1.9-2.4,2.9c-0.4,1-0.6,2.7-0.6,5.1v35.7c0.1,2.2,0.8,3.7,1.9,4.6c1.2,0.8,2.5,1.5,3.9,2.1
			c1.1,0.3,1.9,0.8,2.5,1.2c0.6,0.4,0.9,1,0.9,1.9c0,1.5-1,2.4-3,2.4c-2.2,0-4.2-0.1-5.8-0.3c-1.7-0.2-3.2-0.3-4.7-0.4
			c-1.5-0.1-3.2-0.2-5.3-0.2c-1.9,0-3.6,0.1-5.3,0.2c-1.6,0.1-3.3,0.3-5,0.4C2539.1,846.9,2537.1,847,2534.9,847z"/>
		<path d="M2679.9,848.8c-6.1,0-11.5-1.5-16.2-4.7s-8.3-7.4-11-12.9c-2.6-5.5-4-11.8-4-18.7c0-6.8,1.6-13,4.7-18.6
			c3.1-5.6,7.4-10.1,12.7-13.4s11.2-5,17.5-5c4.7,0,8.8,0.9,12.5,2.9c3.6,1.9,6.6,4.6,8.7,8c2.2,3.4,3.2,7.2,3.2,11.4
			c0,4-1.7,6-5.2,6H2669c-1.5,0-2.7,0.4-3.4,1.3c-0.8,0.8-1.1,2.4-1.1,4.6c0,4.7,1,8.9,3.1,12.6c2,3.8,4.8,6.8,8.2,9
			c3.5,2.2,7.4,3.3,11.9,3.3c3.2,0,6.2-0.7,8.9-1.9c2.7-1.3,5.3-3.1,7.7-5.3c0.4-0.3,0.8-0.7,1.2-0.9c0.3-0.3,0.7-0.4,1-0.4
			c1.1,0,1.7,0.7,1.7,2c0,1.5-0.7,3.5-2,5.7c-1.4,2.5-3.2,5-5.8,7.3c-2.5,2.4-5.5,4.2-9.1,5.6C2688,848.1,2684.1,848.8,2679.9,848.8
			z M2669.2,797.3h11.9c2.9,0,5.1-0.1,6.5-0.2c1.4-0.1,2.8-0.3,4.2-0.7c0.6-0.1,0.9-0.6,1.2-1.4c0.3-0.8,0.3-1.8,0.3-2.9
			c0-3-1.1-5.5-3.4-7.5c-2.3-2-5.1-3.1-8.4-3.1c-2.4,0-4.6,0.7-6.9,2.1c-2.2,1.4-4.1,3.1-5.5,5.3c-1.4,2.1-2.1,4.2-2,6.5
			C2667.1,796.7,2667.7,797.3,2669.2,797.3z"/>
		<path d="M2744.5,847c-0.8,0-1.7-0.2-2.4-0.6s-1-0.9-1-1.6c0-0.8,0.3-1.5,1.1-2c0.8-0.4,1.6-0.8,2.7-1.2c1.7-0.4,3.2-1,4.6-1.9
			c1.4-0.8,2.1-2.3,2.1-4.5v-37.3c0-2.5-0.3-4.7-1.1-6.6s-2.3-3.1-4.6-3.6c-0.4-0.3-0.8-0.5-1.2-0.9c-0.3-0.4-0.5-1-0.5-1.9
			c0-1.4,0.5-2.3,1.5-2.5c3.9-0.8,7.7-2.1,11.6-3.6c3.8-1.5,7.2-3.1,10.1-4.7c0.4-0.3,0.8-0.5,1.4-0.8c0.4-0.3,0.8-0.5,1.4-0.5
			c0.6,0,0.9,0.2,1.1,0.6s0.3,0.8,0.3,1.3c0,0.8-0.2,2.2-0.4,4.3s-0.4,4-0.4,5.5c0,0.4,0,0.9,0.1,1.4c0.1,0.5,0.2,0.8,0.3,0.9
			c3.8-3.6,7.7-6.4,11.8-8.3c4.1-2,8.6-3,13.7-3c5.7,0,10.4,2.2,14.2,6.5c3.8,4.3,5.8,10.1,5.8,17.1v36.3c0,2.2,0.7,3.6,2,4.3
			c1.4,0.7,2.8,1.3,4.5,1.9c0.8,0.3,1.7,0.8,2.5,1.3c0.8,0.5,1.2,1.2,1.2,2.1c0,0.7-0.3,1.2-1.1,1.5c-0.8,0.3-1.4,0.5-2.1,0.5
			c-2.2,0-4.2-0.1-5.8-0.3c-1.7-0.2-3.3-0.3-4.9-0.4c-1.6-0.1-3.4-0.2-5.4-0.2c-1.9,0-3.6,0.1-5.3,0.2c-1.7,0.1-3.4,0.3-5.1,0.4
			c-1.7,0.2-3.7,0.3-5.9,0.3c-0.6,0-1.2-0.2-1.9-0.5s-1-0.8-1-1.5c0-0.8,0.3-1.6,1-2.1c0.7-0.5,1.4-0.9,2.4-1.3
			c1.7-0.6,3.1-1.2,4.4-1.9c1.3-0.7,1.9-2.1,1.9-4.3v-33.8c0-4.4-1.1-8-3.2-10.5c-2.2-2.5-5.1-3.8-8.7-3.8c-3,0-5.6,0.4-7.8,1.4
			c-2.2,0.9-4.4,2.2-6.5,3.8c-0.4,0.3-0.8,0.8-1,1.4c-0.3,0.6-0.3,1.3-0.3,1.9v39.7c0,2.2,0.7,3.7,1.9,4.4c1.3,0.8,2.7,1.3,4.4,1.8
			c2.4,0.8,3.5,1.9,3.5,3.1c0,0.7-0.3,1.2-0.8,1.6s-1.3,0.6-2.2,0.6c-2.2,0-4.2-0.1-5.8-0.3c-1.7-0.2-3.3-0.3-4.8-0.4
			c-1.5-0.1-3.3-0.2-5.3-0.2c-1.9,0-3.6,0.1-5.3,0.2c-1.7,0.1-3.4,0.3-5.2,0.4C2748.7,846.9,2746.7,847,2744.5,847z"/>
		<path d="M2874.7,850.6c-3.2,0-6-1.2-8.4-3.6c-2.4-2.4-3.6-5.2-3.6-8.4c0-3.5,1.2-6.4,3.6-8.7s5.2-3.6,8.4-3.6
			c3.5,0,6.4,1.2,8.7,3.6s3.6,5.3,3.6,8.7c0,3.2-1.2,6-3.6,8.4S2878,850.6,2874.7,850.6z"/>
		<path d="M2975.4,849.7c-0.3,0-0.8-0.3-1.4-0.9c-0.6-0.6-0.9-1.1-0.9-1.4c0.3-1.5,0.4-3.2,0.6-4.9c0.2-1.7,0.3-3.2,0.4-4.4v-1
			c-2.1,3.1-5.1,5.8-8.9,8.2c-3.8,2.4-8.2,3.6-13.1,3.6c-6.2,0-11.7-1.6-16.5-4.7c-4.7-3.1-8.6-7.4-11.3-12.6
			c-2.7-5.3-4.1-10.9-4.1-17c0-7.2,1.6-13.7,4.9-19.6c3.3-5.8,7.9-10.4,13.7-13.8c5.8-3.4,12.7-5.1,20.5-5.1c1.9,0,3.8,0.2,5.8,0.4
			c1.9,0.3,3.6,0.7,5.1,1.1c1.4,0.3,2,0.5,2.2,0.5c0.6,0,0.8-0.9,0.8-2.8v-21c0-4.2-0.6-7.2-1.7-8.8c-1.1-1.7-2.9-2.7-5.3-3.1
			c-1.2-0.3-1.9-1.2-1.9-2.5c0-1.2,0.6-2,1.7-2.4c4.3-1,8.4-2.1,12.2-3.4c3.8-1.3,7-2.5,9.4-3.6c1.1-0.4,1.9-0.8,2.4-0.9
			c0.5-0.2,0.8-0.3,0.9-0.3c1.1,0,1.7,0.6,1.7,1.7c-0.3,2.6-0.4,5.2-0.6,7.4c-0.2,2.3-0.3,4.8-0.4,7.7l-0.5,81.1
			c0,3.8,0.3,6.5,0.8,8.1c0.6,1.7,1.5,2.5,2.8,2.5c0.6,0,1.3,0,2.2-0.1c0.8-0.1,2.5-0.2,4.7-0.4c1.7-0.1,2.5,0.4,2.5,1.7
			c0,0.9-0.3,1.8-0.9,2.5c-0.6,0.8-1.2,1.3-1.8,1.3c-3.8,0.4-7.6,1.2-11.5,2.2s-7.8,2.3-11.9,3.8c-0.8,0.3-1.4,0.6-1.8,0.8
			C2976.1,849.6,2975.7,849.7,2975.4,849.7z M2959.8,838.3c2.1,0,4.4-0.5,7-1.6c2.5-1,4.7-2.5,6.5-4.4v-34.7c0-2.4-0.8-4.7-2.4-7
			c-1.5-2.3-3.6-4.2-6.2-5.7c-2.5-1.5-5.3-2.3-8.1-2.3c-2.6,0-5.3,0.9-7.8,2.9c-2.5,1.9-4.7,4.9-6.4,8.9c-1.7,4-2.5,9.1-2.5,15.3
			c0,5.1,0.7,9.5,1.9,13.1c1.3,3.6,2.9,6.5,4.9,8.7c2,2.2,4.2,3.9,6.5,4.9C2955.4,837.8,2957.6,838.3,2959.8,838.3z"/>
		<path d="M3065.6,848.8c-6.1,0-11.5-1.5-16.2-4.7c-4.7-3.1-8.3-7.4-11-12.9c-2.6-5.5-4-11.8-4-18.7c0-6.8,1.6-13,4.7-18.6
			c3.1-5.6,7.4-10.1,12.7-13.4s11.2-5,17.5-5c4.7,0,8.8,0.9,12.5,2.9c3.6,1.9,6.6,4.6,8.7,8c2.2,3.4,3.2,7.2,3.2,11.4
			c0,4-1.7,6-5.2,6h-33.8c-1.5,0-2.7,0.4-3.4,1.3c-0.8,0.8-1.1,2.4-1.1,4.6c0,4.7,1,8.9,3.1,12.6c2,3.8,4.8,6.8,8.2,9
			c3.5,2.2,7.4,3.3,11.9,3.3c3.2,0,6.2-0.7,8.9-1.9c2.7-1.3,5.3-3.1,7.7-5.3c0.4-0.3,0.8-0.7,1.2-0.9c0.3-0.3,0.7-0.4,1-0.4
			c1.1,0,1.7,0.7,1.7,2c0,1.5-0.7,3.5-2,5.7c-1.4,2.5-3.2,5-5.8,7.3c-2.5,2.4-5.5,4.2-9.1,5.6
			C3073.6,848.1,3069.8,848.8,3065.6,848.8z M3054.9,797.3h11.9c2.9,0,5.1-0.1,6.5-0.2c1.4-0.1,2.8-0.3,4.2-0.7
			c0.6-0.1,0.9-0.6,1.2-1.4c0.3-0.8,0.3-1.8,0.3-2.9c0-3-1.1-5.5-3.4-7.5c-2.3-2-5.1-3.1-8.4-3.1c-2.4,0-4.6,0.7-6.9,2.1
			c-2.2,1.4-4.1,3.1-5.5,5.3c-1.4,2.1-2.1,4.2-2,6.5C3052.7,796.7,3053.4,797.3,3054.9,797.3z"/>
	</g>
	<path class="st0" d="M3299.9,428.5L3299.9,428.5c-66.5,0-120.4-53.9-120.4-120.4v-104c0-66.5,53.9-120.4,120.4-120.4l0,0
		c66.5,0,120.4,53.9,120.4,120.4v104C3420.3,374.5,3366.5,428.5,3299.9,428.5z"/>
	<g>
		<path class="st1" d="M3278.9,195.5h31.9v-24.9h18.9c4.4,0,6,1.2,6,2.8c0,1.5-1.5,3.4-3,5v17.1h41.8v18.7h-41.8v28.5h48.5v18.7
			h-41.6c7.4,14.6,28.6,36,45.6,45.7c-4.9,5.8-9.9,14.5-13.3,20.4c-13.1-9.6-31.7-27.6-39.1-40v52.8h-22v-50.8
			c-9.2,13.9-23.9,30-44.3,44.6c-5-6.9-11.2-13.4-17.1-18.7c23.2-12,40.7-32.2,53.3-54h-30.1v34.7h-20.6v-9.7h-14.8v18h-21.1V185.5
			h56.5v57.1h38.2v-28.5h-31.9v-18.7H3278.9z M3251.9,204.3h-14.8v63.3h14.8V204.3z"/>
	</g>
</g>
<path class="st3" d="M229.6,377.9V388c0,4.1,0.1,15.7,0.1,27.4c0,11.6,0.1,23.2,0.1,27.2c0,10.3,1.8,21.2,5.8,35.4
	c4.6,16.4,12.2,32.2,23.4,48.1c10.8,15.5,23.5,28.1,37.8,37.6c10.9,7.2,21.1,12.9,31,17.3c11.2,5,23,8.2,35.1,9.6c1,0.1,2,0.2,3,0.3
	c1,0.1,2,0.2,3,0.3l0.3,0c8,1,14.6,1.8,20.8,1.5c7.5-0.3,15.1-1.5,23.1-2.9l1.7-0.3c1.2-0.2,2.3-0.4,3.5-0.6c1-0.2,2-0.3,3.1-0.5
	l0.2,0c13-2.1,26.7-7.3,41.9-15.8c8.7-5,16.3-10.1,22.6-15.2c7.7-6.3,15.2-13.4,22.1-21.1c5.9-6.6,11.1-14.7,14.9-20.6
	c7.3-11.6,13-25.3,17.6-41.8c9-32.3,25.3-60.6,48.7-84c25.6-25.6,56.1-42.8,90.7-51c18.2-4.3,34.5-6.1,49.7-5.5
	c23.1,0.9,45.4,5.6,66.4,13.9c18.2,7.2,34.5,16.7,48.6,28.2c17.7,14.4,32.4,31.2,43.8,49.8c8.7,14.2,15.4,29.5,20.1,45.7
	c-0.1-7.1-0.5-14.2-0.9-21.3c-0.3-6.1-0.9-12.1-1.8-18.1c-1.5-9.6-3.1-19.2-5.1-28.7c-2-9.8-4.1-19.7-7.1-29.2
	c-3.3-10.4-7.9-20.4-11.7-30.6c-6.2-16.7-14.2-32.6-23.9-47.5c-7.3-11.4-14.9-22.7-23.2-33.4c-8.1-10.5-16.8-20.5-25.9-30.1
	c-6.9-7.4-14.7-14.2-22.4-20.8c-7.9-6.8-16-13.6-24.6-19.5c-13.9-9.5-27.7-19.3-43.3-26.2c-12.8-5.6-25.5-11.7-38.6-16.6
	c-22.3-8.2-45.1-14.6-68.8-17.2c-15.5-1.8-31.1-3.5-46.7-4.2c-15.3-0.7-30.6-0.7-45.7,2.3c-4.8,0.9-9.8,0.8-14.6,1.9
	c-16.5,3.8-33,7.4-49.2,12c-11.1,3.2-22,7.6-32.6,12.3c-10.5,4.6-21.4,8.4-31,15c-5.9,4-12.4,7.3-18.5,11.1
	c-27.5,17.4-51.7,38.4-73.3,62.7c-15.5,17.5-29.2,36.3-40.8,56.7c-1.8,3-4.1,5.6-6.1,8.4c-10,22.2-19.7,44.5-26.6,67.9L229.6,377.9z
	"/>
</svg>
